<svg width="25" height="24" viewBox="0 0 25 24" fill="none" xmlns="http://www.w3.org/2000/svg">
<path fill-rule="evenodd" clip-rule="evenodd" d="M16.6738 14.793C16.7666 14.8858 16.8403 14.9961 16.8905 15.1174C16.9408 15.2387 16.9666 15.3687 16.9666 15.5C16.9666 15.6313 16.9408 15.7613 16.8905 15.8826C16.8403 16.0039 16.7666 16.1142 16.6738 16.207C16.581 16.2998 16.4707 16.3735 16.3494 16.4237C16.2281 16.474 16.0981 16.4998 15.9668 16.4998C15.8355 16.4998 15.7055 16.474 15.5842 16.4237C15.4629 16.3735 15.3526 16.2998 15.2598 16.207L12.4668 13.414L9.6738 16.207C9.58114 16.3002 9.47098 16.3741 9.34965 16.4246C9.22832 16.4751 9.09821 16.501 8.9668 16.501C8.83539 16.501 8.70528 16.4751 8.58394 16.4246C8.46261 16.3741 8.35245 16.3002 8.2598 16.207C8.16685 16.1142 8.09311 16.004 8.0428 15.8827C7.99249 15.7614 7.9666 15.6313 7.9666 15.5C7.9666 15.3687 7.99249 15.2386 8.0428 15.1173C8.09311 14.996 8.16685 14.8858 8.2598 14.793L11.0528 12L8.2598 9.207C8.16695 9.11415 8.0933 9.00393 8.04306 8.88263C7.99281 8.76132 7.96695 8.6313 7.96695 8.5C7.96695 8.3687 7.99281 8.23868 8.04306 8.11737C8.0933 7.99607 8.16695 7.88584 8.2598 7.793C8.35264 7.70016 8.46286 7.62651 8.58417 7.57626C8.70548 7.52601 8.83549 7.50015 8.9668 7.50015C9.0981 7.50015 9.22812 7.52601 9.34942 7.57626C9.47073 7.62651 9.58095 7.70016 9.6738 7.793L12.4668 10.586L15.2598 7.793C15.3526 7.70016 15.4629 7.62651 15.5842 7.57626C15.7055 7.52601 15.8355 7.50015 15.9668 7.50015C16.0981 7.50015 16.2281 7.52601 16.3494 7.57626C16.4707 7.62651 16.581 7.70016 16.6738 7.793C16.7666 7.88584 16.8403 7.99607 16.8905 8.11737C16.9408 8.23868 16.9666 8.3687 16.9666 8.5C16.9666 8.6313 16.9408 8.76132 16.8905 8.88263C16.8403 9.00393 16.7666 9.11415 16.6738 9.207L13.8808 12L16.6738 14.793ZM12.4668 1C6.3918 1 1.4668 5.925 1.4668 12C1.4668 18.075 6.3918 23 12.4668 23C18.5418 23 23.4668 18.075 23.4668 12C23.4668 5.925 18.5418 1 12.4668 1Z" fill="#8B95A1"/>
</svg>
