<svg width="25" height="24" viewBox="0 0 25 24" fill="none" xmlns="http://www.w3.org/2000/svg">
<path fill-rule="evenodd" clip-rule="evenodd" d="M22.8068 16.913L18.8278 13.833C18.6356 13.6847 18.396 13.6115 18.1538 13.6272C17.9115 13.6428 17.6833 13.7462 17.5118 13.918L15.3998 16.031C15.2425 16.1899 15.0362 16.2911 14.8142 16.3181C14.5923 16.3451 14.3677 16.2965 14.1768 16.18C13.4968 15.763 12.3588 14.955 10.9348 13.53C9.51081 12.107 8.70281 10.968 8.28581 10.289C8.16918 10.0983 8.12052 9.87372 8.14775 9.65184C8.17499 9.42996 8.27652 9.22382 8.43581 9.06699L10.5478 6.95399C10.7198 6.78258 10.8233 6.55423 10.8388 6.31188C10.8543 6.06953 10.7807 5.82988 10.6318 5.63799L7.55281 1.65799C6.85281 0.754989 5.53281 0.611989 4.67281 1.36699C3.53981 2.36099 2.17881 3.84999 1.78281 5.52099C1.06581 8.53099 2.19881 12.308 7.17881 17.288C12.1588 22.267 15.9358 23.401 18.9448 22.685C20.6158 22.287 22.1058 20.925 23.0998 19.793C23.8538 18.933 23.7108 17.613 22.8068 16.913Z" fill="#8B95A1"/>
</svg>
