<svg width="25" height="24" viewBox="0 0 25 24" fill="none" xmlns="http://www.w3.org/2000/svg">
<path fill-rule="evenodd" clip-rule="evenodd" d="M12.4668 17.118C12.1485 17.118 11.8433 16.9916 11.6183 16.7665C11.3932 16.5415 11.2668 16.2363 11.2668 15.918C11.2668 15.5997 11.3932 15.2945 11.6183 15.0695C11.8433 14.8444 12.1485 14.718 12.4668 14.718C12.7851 14.718 13.0903 14.8444 13.3153 15.0695C13.5404 15.2945 13.6668 15.5997 13.6668 15.918C13.6668 16.2363 13.5404 16.5415 13.3153 16.7665C13.0903 16.9916 12.7851 17.118 12.4668 17.118ZM11.4668 7.283C11.4668 7.01778 11.5722 6.76343 11.7597 6.57589C11.9472 6.38836 12.2016 6.283 12.4668 6.283C12.732 6.283 12.9864 6.38836 13.1739 6.57589C13.3614 6.76343 13.4668 7.01778 13.4668 7.283V12.283C13.4668 12.5482 13.3614 12.8026 13.1739 12.9901C12.9864 13.1776 12.732 13.283 12.4668 13.283C12.2016 13.283 11.9472 13.1776 11.7597 12.9901C11.5722 12.8026 11.4668 12.5482 11.4668 12.283V7.283ZM12.4668 1C6.3918 1 1.4668 5.925 1.4668 12C1.4668 18.076 6.3918 23 12.4668 23C18.5418 23 23.4668 18.076 23.4668 12C23.4668 5.925 18.5418 1 12.4668 1Z" fill="#8B95A1"/>
</svg>
