<svg width="25" height="24" viewBox="0 0 25 24" fill="none" xmlns="http://www.w3.org/2000/svg">
<path fill-rule="evenodd" clip-rule="evenodd" d="M18.4668 12.5L16.2668 13.2C15.0668 13.6 14.1668 14.5 13.7668 15.7L12.9668 18C12.7668 18.5 12.1668 18.5 12.0668 18L11.3668 15.8C10.9668 14.6 10.0668 13.7 8.8668 13.3L6.4668 12.5C5.9668 12.3 5.9668 11.7 6.4668 11.6L8.6668 10.9C9.8668 10.5 10.7668 9.6 11.1668 8.4L11.9668 6C12.1668 5.5 12.7668 5.5 12.8668 6L13.5668 8.2C13.9668 9.4 14.8668 10.3 16.0668 10.7L18.2668 11.4C18.9668 11.7 18.9668 12.3 18.4668 12.5ZM12.4668 1C6.3668 1 1.4668 5.9 1.4668 12C1.4668 18.1 6.3668 23 12.4668 23C18.5668 23 23.4668 18.1 23.4668 12C23.4668 5.9 18.5668 1 12.4668 1Z" fill="#8B95A1"/>
</svg>
