<svg width="25" height="24" viewBox="0 0 25 24" fill="none" xmlns="http://www.w3.org/2000/svg">
<path fill-rule="evenodd" clip-rule="evenodd" d="M12.4668 1.40002C12.1751 1.40002 11.8953 1.51592 11.689 1.72221C11.4827 1.9285 11.3668 2.20829 11.3668 2.50002V5.54202C11.3668 5.83376 11.4827 6.11355 11.689 6.31984C11.8953 6.52613 12.1751 6.64202 12.4668 6.64202C12.7586 6.64202 13.0383 6.52613 13.2446 6.31984C13.4509 6.11355 13.5668 5.83376 13.5668 5.54202V2.50002C13.5668 2.35557 13.5384 2.21253 13.4831 2.07907C13.4278 1.94561 13.3468 1.82435 13.2446 1.72221C13.1425 1.62006 13.0212 1.53904 12.8878 1.48376C12.7543 1.42848 12.6113 1.40002 12.4668 1.40002Z" fill="#8B95A1"/>
<path fill-rule="evenodd" clip-rule="evenodd" d="M7.1228 8.21101C7.22475 8.31357 7.34598 8.39496 7.47949 8.45049C7.61301 8.50603 7.7562 8.53462 7.9008 8.53462C8.04541 8.53462 8.1886 8.50603 8.32212 8.45049C8.45563 8.39496 8.57686 8.31357 8.6788 8.21101C8.88496 8.00457 9.00076 7.72475 9.00076 7.43301C9.00076 7.14126 8.88496 6.86144 8.6788 6.65501L6.5268 4.50501C6.31727 4.31594 6.04312 4.21456 5.76099 4.2218C5.47885 4.22904 5.21027 4.34435 5.01071 4.54391C4.81114 4.74348 4.69583 5.01206 4.6886 5.29419C4.68136 5.57633 4.78274 5.85047 4.9718 6.06001L7.1218 8.21101H7.1228Z" fill="#8B95A1" fill-opacity="0.16"/>
<path fill-rule="evenodd" clip-rule="evenodd" d="M7.10882 12C7.10882 11.7083 6.99293 11.4285 6.78664 11.2222C6.58035 11.0159 6.30056 10.9 6.00882 10.9H2.96682C2.67508 10.9 2.39529 11.0159 2.189 11.2222C1.98271 11.4285 1.86682 11.7083 1.86682 12C1.86682 12.2918 1.98271 12.5716 2.189 12.7778C2.39529 12.9841 2.67508 13.1 2.96682 13.1H6.00882C6.30056 13.1 6.58035 12.9841 6.78664 12.7778C6.99293 12.5716 7.10882 12.2918 7.10882 12Z" fill="#8B95A1" fill-opacity="0.32"/>
<path fill-rule="evenodd" clip-rule="evenodd" d="M7.12279 15.789L4.97179 17.939C4.86963 18.0412 4.78858 18.1625 4.73329 18.296C4.678 18.4295 4.64954 18.5725 4.64954 18.717C4.64954 18.8615 4.678 19.0046 4.73329 19.1381C4.78858 19.2716 4.86963 19.3929 4.97179 19.495C5.17813 19.7014 5.45799 19.8173 5.74979 19.8173C5.89428 19.8173 6.03736 19.7888 6.17085 19.7335C6.30433 19.6782 6.42563 19.5972 6.52779 19.495L8.67779 17.345C8.86919 17.1359 8.97253 16.861 8.9663 16.5775C8.96007 16.2941 8.84474 16.024 8.64434 15.8235C8.44394 15.6229 8.1739 15.5074 7.89047 15.501C7.60704 15.4946 7.33206 15.5978 7.12279 15.789Z" fill="#8B95A1" fill-opacity="0.56"/>
<path fill-rule="evenodd" clip-rule="evenodd" d="M12.4668 17.358C12.1751 17.358 11.8953 17.4739 11.689 17.6802C11.4827 17.8865 11.3668 18.1663 11.3668 18.458V21.5C11.3668 21.7918 11.4827 22.0716 11.689 22.2778C11.8953 22.4841 12.1751 22.6 12.4668 22.6C12.7586 22.6 13.0383 22.4841 13.2446 22.2778C13.4509 22.0716 13.5668 21.7918 13.5668 21.5V18.458C13.5668 18.1663 13.4509 17.8865 13.2446 17.6802C13.0383 17.4739 12.7586 17.358 12.4668 17.358Z" fill="#8B95A1" fill-opacity="0.56"/>
<path fill-rule="evenodd" clip-rule="evenodd" d="M17.8108 15.7891C17.7086 15.6869 17.5874 15.6058 17.4539 15.5505C17.3204 15.4953 17.1773 15.4668 17.0328 15.4668C16.8883 15.4668 16.7453 15.4953 16.6118 15.5505C16.4783 15.6058 16.357 15.6869 16.2548 15.7891C16.1526 15.8912 16.0716 16.0125 16.0163 16.146C15.961 16.2795 15.9326 16.4226 15.9326 16.5671C15.9326 16.7115 15.961 16.8546 16.0163 16.9881C16.0716 17.1216 16.1526 17.2429 16.2548 17.3451L18.4058 19.4951C18.5078 19.5975 18.6291 19.6788 18.7626 19.7342C18.8961 19.7897 19.0392 19.8183 19.1838 19.8183C19.3284 19.8183 19.4715 19.7897 19.605 19.7342C19.7386 19.6788 19.8598 19.5975 19.9618 19.4951C20.064 19.3929 20.1451 19.2716 20.2004 19.1381C20.2557 19.0046 20.2842 18.8616 20.2842 18.7171C20.2842 18.5726 20.2557 18.4295 20.2004 18.296C20.1451 18.1625 20.064 18.0412 19.9618 17.9391L17.8118 15.7891H17.8108Z" fill="#8B95A1" fill-opacity="0.72"/>
<path fill-rule="evenodd" clip-rule="evenodd" d="M21.9668 10.9H18.9248C18.6331 10.9 18.3533 11.0159 18.147 11.2222C17.9407 11.4285 17.8248 11.7083 17.8248 12C17.8248 12.2918 17.9407 12.5716 18.147 12.7778C18.3533 12.9841 18.6331 13.1 18.9248 13.1H21.9668C22.2586 13.1 22.5384 12.9841 22.7446 12.7778C22.9509 12.5716 23.0668 12.2918 23.0668 12C23.0668 11.7083 22.9509 11.4285 22.7446 11.2222C22.5384 11.0159 22.2586 10.9 21.9668 10.9Z" fill="#8B95A1" fill-opacity="0.72"/>
<path fill-rule="evenodd" clip-rule="evenodd" d="M17.0328 8.534C17.3138 8.534 17.5958 8.427 17.8108 8.212L19.9618 6.061C20.1558 5.85221 20.2613 5.57632 20.256 5.29136C20.2508 5.0064 20.1353 4.73458 19.9337 4.53305C19.7322 4.33152 19.4604 4.21599 19.1754 4.21076C18.8905 4.20553 18.6146 4.311 18.4058 4.505L16.2558 6.655C16.1021 6.80891 15.9974 7.0049 15.955 7.21825C15.9126 7.43159 15.9343 7.65272 16.0174 7.85373C16.1005 8.05474 16.2413 8.22663 16.422 8.3477C16.6027 8.46877 16.8153 8.53359 17.0328 8.534Z" fill="#8B95A1" fill-opacity="0.72"/>
</svg>
