<svg width="25" height="24" viewBox="0 0 25 24" fill="none" xmlns="http://www.w3.org/2000/svg">
<path fill-rule="evenodd" clip-rule="evenodd" d="M21.4338 12.362C21.1204 12.3074 20.798 12.3796 20.5377 12.5626C20.2775 12.7456 20.1005 13.0246 20.0458 13.338C19.7345 15.1268 18.8009 16.748 17.41 17.915C16.0191 19.0821 14.2605 19.72 12.4448 19.716C8.19083 19.716 4.72983 16.255 4.72983 12C4.72983 7.74602 8.19083 4.28502 12.4448 4.28502C14.3788 4.28502 16.1978 4.99902 17.6198 6.28902L16.6278 7.28102C16.4981 7.4103 16.4067 7.57306 16.3639 7.75117C16.3211 7.92929 16.3286 8.11579 16.3855 8.28991C16.4424 8.46404 16.5465 8.61896 16.6862 8.73744C16.8259 8.85592 16.9958 8.93332 17.1768 8.96102L21.3888 9.61102C21.5427 9.63474 21.7 9.62183 21.8479 9.57335C21.9959 9.52487 22.1303 9.44218 22.2403 9.33199C22.3503 9.2218 22.4328 9.08723 22.481 8.9392C22.5292 8.79117 22.5418 8.63385 22.5178 8.48002L21.8688 4.26902C21.841 4.08806 21.7635 3.91837 21.645 3.77876C21.5266 3.63915 21.3717 3.5351 21.1977 3.47813C21.0237 3.42116 20.8373 3.41352 20.6592 3.45604C20.4812 3.49856 20.3183 3.58959 20.1888 3.71902L19.3168 4.59202C17.4531 2.84963 14.9962 1.8818 12.4448 1.88502C6.86783 1.88502 2.32983 6.42302 2.32983 12C2.32983 17.578 6.86783 22.115 12.4448 22.115C17.3728 22.115 21.5628 18.597 22.4098 13.75C22.4644 13.4365 22.3923 13.1142 22.2092 12.8539C22.0262 12.5936 21.7473 12.4167 21.4338 12.362Z" fill="#8B95A1"/>
</svg>
