<svg width="25" height="24" viewBox="0 0 25 24" fill="none" xmlns="http://www.w3.org/2000/svg">
<path fill-rule="evenodd" clip-rule="evenodd" d="M12.4668 12.742C12.1061 12.7489 11.7476 12.6839 11.4123 12.5506C11.077 12.4174 10.7717 12.2186 10.5141 11.9659C10.2566 11.7133 10.052 11.4118 9.91229 11.0791C9.77262 10.7465 9.70069 10.3893 9.70069 10.0285C9.70069 9.66772 9.77262 9.31055 9.91229 8.97789C10.052 8.64523 10.2566 8.34375 10.5141 8.09109C10.7717 7.83843 11.077 7.63967 11.4123 7.50641C11.7476 7.37315 12.1061 7.30809 12.4668 7.31501C13.1774 7.32865 13.8544 7.62054 14.3521 8.12793C14.8499 8.63532 15.1287 9.31773 15.1287 10.0285C15.1287 10.7393 14.8499 11.4217 14.3521 11.9291C13.8544 12.4365 13.1774 12.7284 12.4668 12.742ZM10.3428 1.03701C6.07278 1.99001 3.07878 6.00901 3.24678 10.381C3.37878 13.815 5.48578 16.887 11.7548 22.914C12.1508 23.294 12.7848 23.296 13.1818 22.915C19.6658 16.682 21.6978 13.61 21.6978 10.028C21.6978 4.23801 16.3648 -0.306989 10.3428 1.03801" fill="#8B95A1"/>
</svg>
