<svg width="24" height="25" viewBox="0 0 24 25" fill="none" xmlns="http://www.w3.org/2000/svg">
<mask id="path-1-inside-1_775_4282" fill="white">
<path fill-rule="evenodd" clip-rule="evenodd" d="M19.5 2.03003H4.5C4.23478 2.03003 3.98043 2.13539 3.79289 2.32292C3.60536 2.51046 3.5 2.76481 3.5 3.03003V21.03C3.5 21.2952 3.60536 21.5496 3.79289 21.7371C3.98043 21.9247 4.23478 22.03 4.5 22.03H13V17.03C13 15.652 14.122 14.53 15.5 14.53H20.5V3.03003C20.5 2.76481 20.3946 2.51046 20.2071 2.32292C20.0196 2.13539 19.7652 2.03003 19.5 2.03003Z"/>
</mask>
<path d="M4.5 2.03003V0.0300293V2.03003ZM3.5 3.03003H1.5H3.5ZM3.5 21.03H1.5H3.5ZM13 22.03V24.03H15V22.03H13ZM20.5 14.53V16.53H22.5V14.53H20.5ZM19.5 0.0300293H4.5V4.03003H19.5V0.0300293ZM4.5 0.0300293C3.70435 0.0300293 2.94129 0.346099 2.37868 0.908709L5.20711 3.73714C5.01957 3.92467 4.76522 4.03003 4.5 4.03003V0.0300293ZM2.37868 0.908709C1.81607 1.47132 1.5 2.23438 1.5 3.03003H5.5C5.5 3.29525 5.39464 3.5496 5.20711 3.73714L2.37868 0.908709ZM1.5 3.03003V21.03H5.5V3.03003H1.5ZM1.5 21.03C1.5 21.8257 1.81607 22.5887 2.37868 23.1514L5.20711 20.3229C5.39464 20.5105 5.5 20.7648 5.5 21.03H1.5ZM2.37868 23.1514C2.94129 23.714 3.70435 24.03 4.5 24.03V20.03C4.76521 20.03 5.01957 20.1354 5.20711 20.3229L2.37868 23.1514ZM4.5 24.03H13V20.03H4.5V24.03ZM15 22.03V17.03H11V22.03H15ZM15 17.03C15 16.7566 15.2266 16.53 15.5 16.53V12.53C13.0174 12.53 11 14.5475 11 17.03H15ZM15.5 16.53H20.5V12.53H15.5V16.53ZM22.5 14.53V3.03003H18.5V14.53H22.5ZM22.5 3.03003C22.5 2.23438 22.1839 1.47132 21.6213 0.908709L18.7929 3.73714C18.6054 3.5496 18.5 3.29524 18.5 3.03003H22.5ZM21.6213 0.908709C21.0587 0.346098 20.2956 0.0300293 19.5 0.0300293V4.03003C19.2348 4.03003 18.9804 3.92467 18.7929 3.73714L21.6213 0.908709Z" fill="#ADB6C1" mask="url(#path-1-inside-1_775_4282)"/>
<path d="M15.5 19.6158L15.5 17.03L18.0858 17.03L15.5 19.6158Z" stroke="#ADB6C1" stroke-width="2"/>
</svg>
