<svg width="25" height="24" viewBox="0 0 25 24" fill="none" xmlns="http://www.w3.org/2000/svg">
<path fill-rule="evenodd" clip-rule="evenodd" d="M21.6768 16.105L20.1438 15.338L14.0318 18.394C13.5457 18.6361 13.0099 18.7618 12.4668 18.761C11.9237 18.7617 11.3879 18.636 10.9018 18.394L4.78978 15.338L3.25578 16.105C3.08937 16.1879 2.94938 16.3156 2.85153 16.4737C2.75368 16.6318 2.70184 16.8141 2.70184 17C2.70184 17.1859 2.75368 17.3682 2.85153 17.5263C2.94938 17.6844 3.08937 17.8121 3.25578 17.895L11.5728 22.052C11.8504 22.1911 12.1567 22.2635 12.4673 22.2635C12.7778 22.2635 13.0841 22.1911 13.3618 22.052L21.6778 17.894C21.8439 17.811 21.9837 17.6833 22.0813 17.5253C22.179 17.3673 22.2307 17.1853 22.2307 16.9995C22.2307 16.8138 22.179 16.6317 22.0813 16.4737C21.9837 16.3157 21.8439 16.1881 21.6778 16.105" fill="#8B95A1"/>
<path fill-rule="evenodd" clip-rule="evenodd" d="M21.6768 11.105L20.1438 10.338L14.0318 13.394C13.5457 13.6361 13.0099 13.7618 12.4668 13.761C11.9237 13.7617 11.3879 13.636 10.9018 13.394L4.78978 10.338L3.25578 11.105C3.08937 11.1879 2.94938 11.3156 2.85153 11.4737C2.75368 11.6318 2.70184 11.8141 2.70184 12C2.70184 12.1859 2.75368 12.3682 2.85153 12.5263C2.94938 12.6844 3.08937 12.8121 3.25578 12.895L11.5728 17.052C11.8504 17.1911 12.1567 17.2635 12.4673 17.2635C12.7778 17.2635 13.0841 17.1911 13.3618 17.052L21.6778 12.894C21.8439 12.811 21.9837 12.6833 22.0813 12.5253C22.179 12.3673 22.2307 12.1853 22.2307 11.9995C22.2307 11.8138 22.179 11.6317 22.0813 11.4737C21.9837 11.3157 21.8439 11.1881 21.6778 11.105" fill="#8B95A1"/>
<path fill-rule="evenodd" clip-rule="evenodd" d="M11.5728 12.053L3.25677 7.89399C3.09089 7.81085 2.95141 7.6832 2.85393 7.52531C2.75646 7.36743 2.70483 7.18554 2.70483 6.99999C2.70483 6.81444 2.75646 6.63255 2.85393 6.47466C2.95141 6.31678 3.09089 6.18913 3.25677 6.10599L11.5728 1.94799C11.8504 1.80888 12.1567 1.73645 12.4673 1.73645C12.7778 1.73645 13.0841 1.80888 13.3618 1.94799L21.6778 6.10599C21.8439 6.18903 21.9836 6.3167 22.0813 6.47469C22.179 6.63268 22.2307 6.81475 22.2307 7.00049C22.2307 7.18623 22.179 7.3683 22.0813 7.52629C21.9836 7.68428 21.8439 7.81195 21.6778 7.89499L13.3618 12.053C13.0838 12.1917 12.7774 12.2639 12.4668 12.2639C12.1561 12.2639 11.8497 12.1917 11.5718 12.053" fill="#8B95A1"/>
</svg>
