<svg width="25" height="24" viewBox="0 0 25 24" fill="none" xmlns="http://www.w3.org/2000/svg">
<path fill-rule="evenodd" clip-rule="evenodd" d="M5.17079 20.938C4.96021 21.1487 4.67455 21.2671 4.37665 21.2672C4.07875 21.2673 3.79301 21.1491 3.58229 20.9385C3.37158 20.7279 3.25315 20.4422 3.25305 20.1443C3.25296 19.8464 3.37121 19.5607 3.58179 19.35C3.79238 19.1393 4.07804 19.0208 4.37594 19.0207C4.52345 19.0207 4.66952 19.0497 4.80581 19.1061C4.94211 19.1625 5.06596 19.2452 5.17029 19.3495C5.27463 19.4537 5.3574 19.5775 5.4139 19.7138C5.47039 19.8501 5.49949 19.9961 5.49953 20.1436C5.49958 20.2911 5.47057 20.4372 5.41417 20.5735C5.35776 20.7098 5.27506 20.8336 5.17079 20.938ZM23.2468 5.73298C23.2257 5.64601 23.1819 5.56622 23.1198 5.5018C23.0577 5.43738 22.9796 5.39065 22.8934 5.36642C22.8073 5.34219 22.7163 5.34132 22.6297 5.36392C22.5431 5.38651 22.4641 5.43175 22.4008 5.49498L19.7018 8.19298L16.7648 7.64898L16.2198 4.71098L18.9188 2.01098C18.9815 1.94751 19.0262 1.86858 19.0485 1.78221C19.0707 1.69584 19.0697 1.60512 19.0455 1.51927C19.0213 1.43342 18.9749 1.3555 18.9108 1.29345C18.8467 1.23139 18.7674 1.18741 18.6808 1.16598C17.6586 0.922812 16.5912 0.945505 15.5802 1.23189C14.5693 1.51828 13.6486 2.05882 12.9058 2.80198C12.0199 3.68909 11.4262 4.82564 11.204 6.05949C10.9819 7.29333 11.142 8.5656 11.6628 9.70598L2.39679 18.22C2.13018 18.4739 1.91705 18.7786 1.76995 19.1162C1.62285 19.4537 1.54475 19.8173 1.54025 20.1855C1.53574 20.5536 1.60493 20.919 1.74373 21.26C1.88253 21.6011 2.08814 21.9109 2.34847 22.1713C2.60879 22.4317 2.91857 22.6374 3.25958 22.7763C3.60058 22.9152 3.96592 22.9844 4.3341 22.98C4.70227 22.9756 5.06585 22.8976 5.40343 22.7506C5.74101 22.6036 6.04578 22.3905 6.29979 22.124L14.8528 12.817C15.9004 13.2624 17.0509 13.4084 18.1766 13.2389C19.3022 13.0694 20.3587 12.5909 21.2287 11.8568C22.0986 11.1226 22.7478 10.1615 23.1041 9.08039C23.4604 7.99926 23.5098 6.8405 23.2468 5.73298Z" fill="#8B95A1"/>
</svg>
