<svg width="25" height="24" viewBox="0 0 25 24" fill="none" xmlns="http://www.w3.org/2000/svg">
<path fill-rule="evenodd" clip-rule="evenodd" d="M1.56677 12.012C1.56677 11.4045 2.05926 10.912 2.66677 10.912H14.3958C15.0033 10.912 15.4958 11.4045 15.4958 12.012C15.4958 12.6196 15.0033 13.112 14.3958 13.112H2.66677C2.05926 13.112 1.56677 12.6196 1.56677 12.012Z" fill="#8B95A1"/>
<path fill-rule="evenodd" clip-rule="evenodd" d="M8.67774 6.00232C9.10723 6.43198 9.1071 7.12846 8.67744 7.55796L4.22256 12.0111L8.67759 16.4662C9.10717 16.8958 9.10717 17.5922 8.67759 18.0218C8.24801 18.4514 7.55153 18.4514 7.12195 18.0218L1.88896 12.7888C1.68264 12.5825 1.56674 12.3027 1.56677 12.0109C1.5668 11.7191 1.68275 11.4393 1.8891 11.233L7.1221 6.00203C7.55176 5.57253 8.24824 5.57267 8.67774 6.00232Z" fill="#8B95A1"/>
<path fill-rule="evenodd" clip-rule="evenodd" d="M14.7037 4.72002C14.359 4.72002 14.0283 4.85698 13.7845 5.10078C13.5407 5.34458 13.4037 5.67524 13.4037 6.02002V7.71402C13.4037 8.32153 12.9112 8.81402 12.3037 8.81402C11.6962 8.81402 11.2037 8.32153 11.2037 7.71402V6.02002C11.2037 5.09176 11.5725 4.20152 12.2289 3.54515C12.8852 2.88877 13.7755 2.52002 14.7037 2.52002H19.1517C20.08 2.52002 20.9702 2.88877 21.6266 3.54515C22.283 4.20152 22.6517 5.09176 22.6517 6.02002V18.005C22.6513 18.933 22.2824 19.8233 21.6261 20.4794C20.9698 21.1355 20.0797 21.504 19.1517 21.504H14.7037C13.7755 21.504 12.8852 21.1353 12.2289 20.4789C11.5725 19.8225 11.2037 18.9323 11.2037 18.004V16.314C11.2037 15.7065 11.6962 15.214 12.3037 15.214C12.9112 15.214 13.4037 15.7065 13.4037 16.314V18.004C13.4037 18.3488 13.5407 18.6795 13.7845 18.9233C14.0283 19.1671 14.359 19.304 14.7037 19.304H19.1517C19.4964 19.304 19.827 19.1671 20.0708 18.9234C20.3146 18.6798 20.4516 18.3492 20.4517 18.0046V6.02002C20.4517 5.67524 20.3148 5.34458 20.071 5.10078C19.8272 4.85698 19.4965 4.72002 19.1517 4.72002H14.7037Z" fill="#8B95A1"/>
</svg>
