<svg width="25" height="24" viewBox="0 0 25 24" fill="none" xmlns="http://www.w3.org/2000/svg">
<g clip-path="url(#clip0_239_340)">
<path fill-rule="evenodd" clip-rule="evenodd" d="M7.9668 11.647C8.45925 11.647 8.94689 11.55 9.40186 11.3615C9.85683 11.1731 10.2702 10.8968 10.6184 10.5486C10.9667 10.2004 11.2429 9.78701 11.4313 9.33204C11.6198 8.87706 11.7168 8.38943 11.7168 7.89697C11.7168 7.40452 11.6198 6.91688 11.4313 6.46191C11.2429 6.00694 10.9667 5.59354 10.6184 5.24532C10.2702 4.8971 9.85683 4.62088 9.40186 4.43242C8.94689 4.24397 8.45925 4.14697 7.9668 4.14697C6.97224 4.14697 6.01841 4.54206 5.31515 5.24532C4.61189 5.94858 4.2168 6.90241 4.2168 7.89697C4.2168 8.89153 4.61189 9.84536 5.31515 10.5486C6.01841 11.2519 6.97224 11.647 7.9668 11.647ZM8.4668 17.828C8.4668 16.564 9.2378 14.693 10.9468 13.276C10.1038 12.979 9.1188 12.793 7.9668 12.793C2.9268 12.793 0.966797 16.231 0.966797 17.828C0.966797 19.428 5.1398 19.852 7.9668 19.852C8.4378 19.852 8.9468 19.839 9.4678 19.812C8.8068 19.285 8.4668 18.625 8.4668 17.828Z" fill="#8B95A1" fill-opacity="0.72"/>
<path fill-rule="evenodd" clip-rule="evenodd" d="M16.9668 12.794C11.9268 12.794 9.9668 16.231 9.9668 17.829C9.9668 19.427 14.1398 19.853 16.9668 19.853C19.7938 19.853 23.9668 19.427 23.9668 17.829C23.9668 16.231 22.0068 12.794 16.9668 12.794ZM16.9668 11.647C17.4593 11.647 17.9469 11.55 18.4019 11.3615C18.8568 11.1731 19.2702 10.8968 19.6184 10.5486C19.9667 10.2004 20.2429 9.78701 20.4313 9.33204C20.6198 8.87706 20.7168 8.38943 20.7168 7.89697C20.7168 7.40452 20.6198 6.91688 20.4313 6.46191C20.2429 6.00694 19.9667 5.59354 19.6184 5.24532C19.2702 4.8971 18.8568 4.62088 18.4019 4.43242C17.9469 4.24397 17.4593 4.14697 16.9668 4.14697C15.9722 4.14697 15.0184 4.54206 14.3151 5.24532C13.6119 5.94858 13.2168 6.90241 13.2168 7.89697C13.2168 8.89153 13.6119 9.84536 14.3151 10.5486C15.0184 11.2519 15.9722 11.647 16.9668 11.647Z" fill="#8B95A1"/>
</g>
<defs>
<clipPath id="clip0_239_340">
<rect width="24" height="24" fill="white" transform="translate(0.466797)"/>
</clipPath>
</defs>
</svg>
