<svg width="25" height="24" viewBox="0 0 25 24" fill="none" xmlns="http://www.w3.org/2000/svg">
<path fill-rule="evenodd" clip-rule="evenodd" d="M12.4668 19.191C12.3092 19.191 12.1532 19.16 12.0076 19.0997C11.862 19.0394 11.7297 18.951 11.6183 18.8395C11.5069 18.7281 11.4185 18.5958 11.3582 18.4502C11.2979 18.3046 11.2668 18.1486 11.2668 17.991C11.2668 17.8334 11.2979 17.6774 11.3582 17.5318C11.4185 17.3862 11.5069 17.2539 11.6183 17.1425C11.7297 17.0311 11.862 16.9427 12.0076 16.8824C12.1532 16.8221 12.3092 16.791 12.4668 16.791C12.7851 16.791 13.0903 16.9174 13.3154 17.1425C13.5404 17.3675 13.6668 17.6728 13.6668 17.991C13.6668 18.3093 13.5404 18.6145 13.3154 18.8395C13.0903 19.0646 12.7851 19.191 12.4668 19.191ZM11.4668 9.20801C11.4668 8.9428 11.5722 8.68844 11.7597 8.50091C11.9473 8.31337 12.2016 8.20801 12.4668 8.20801C12.732 8.20801 12.9864 8.31337 13.1739 8.50091C13.3615 8.68844 13.4668 8.9428 13.4668 9.20801V14.208C13.4668 14.4732 13.3615 14.7276 13.1739 14.9151C12.9864 15.1027 12.732 15.208 12.4668 15.208C12.2016 15.208 11.9473 15.1027 11.7597 14.9151C11.5722 14.7276 11.4668 14.4732 11.4668 14.208V9.20801ZM23.3808 18.815L14.5458 3.51201C13.6218 1.91201 11.3118 1.91201 10.3878 3.51201L1.55283 18.815C0.629825 20.415 1.78283 22.415 3.63183 22.415H21.3018C23.1498 22.415 24.3038 20.415 23.3808 18.815Z" fill="#8B95A1"/>
</svg>
