<svg width="25" height="24" viewBox="0 0 25 24" fill="none" xmlns="http://www.w3.org/2000/svg">
<path fill-rule="evenodd" clip-rule="evenodd" d="M12.4668 9.2C12.1485 9.2 11.8433 9.07357 11.6183 8.84853C11.3932 8.62348 11.2668 8.31826 11.2668 8C11.2668 7.68174 11.3932 7.37652 11.6183 7.15147C11.8433 6.92643 12.1485 6.8 12.4668 6.8C12.7851 6.8 13.0903 6.92643 13.3153 7.15147C13.5404 7.37652 13.6668 7.68174 13.6668 8C13.6668 8.31826 13.5404 8.62348 13.3153 8.84853C13.0903 9.07357 12.7851 9.2 12.4668 9.2ZM13.4668 16.635C13.4668 16.9002 13.3614 17.1546 13.1739 17.3421C12.9864 17.5296 12.732 17.635 12.4668 17.635C12.2016 17.635 11.9472 17.5296 11.7597 17.3421C11.5722 17.1546 11.4668 16.9002 11.4668 16.635V11.635C11.4668 11.3698 11.5722 11.1154 11.7597 10.9279C11.9472 10.7404 12.2016 10.635 12.4668 10.635C12.732 10.635 12.9864 10.7404 13.1739 10.9279C13.3614 11.1154 13.4668 11.3698 13.4668 11.635V16.635ZM12.4668 1C6.3918 1 1.4668 5.925 1.4668 12C1.4668 18.075 6.3918 23 12.4668 23C18.5418 23 23.4668 18.075 23.4668 12C23.4668 5.925 18.5418 1 12.4668 1Z" fill="#8B95A1"/>
</svg>
