<svg width="25" height="24" viewBox="0 0 25 24" fill="none" xmlns="http://www.w3.org/2000/svg">
<path fill-rule="evenodd" clip-rule="evenodd" d="M17.1038 8.67298L11.5038 14.273L7.83082 10.6C7.67395 10.4288 7.5892 10.2037 7.59425 9.97159C7.5993 9.73947 7.69376 9.51826 7.85793 9.35409C8.02211 9.18992 8.24331 9.09546 8.47543 9.09041C8.70755 9.08536 8.93266 9.1701 9.10382 9.32698L11.5038 11.727L15.8308 7.39998C15.9144 7.31639 16.0136 7.25009 16.1228 7.20485C16.2321 7.15961 16.3491 7.13633 16.4673 7.13633C16.5855 7.13633 16.7026 7.15961 16.8118 7.20485C16.921 7.25009 17.0202 7.31639 17.1038 7.39998C17.1874 7.48356 17.2537 7.58279 17.2989 7.69201C17.3442 7.80122 17.3675 7.91827 17.3675 8.03648C17.3675 8.15469 17.3442 8.27174 17.2989 8.38095C17.2537 8.49016 17.1874 8.58939 17.1038 8.67298ZM21.6138 10.57C21.7076 10.4762 21.7602 10.3491 21.7602 10.2165C21.7602 10.0839 21.7076 9.95674 21.6138 9.86298L20.1638 8.41298C20.1017 8.35099 20.057 8.27366 20.0343 8.18884C20.0117 8.10401 20.0118 8.01471 20.0348 7.92998L20.5648 5.94998C20.599 5.82188 20.5809 5.68544 20.5145 5.57068C20.4482 5.45591 20.3389 5.37221 20.2108 5.33798L18.2308 4.80798C18.1458 4.7852 18.0683 4.74039 18.0061 4.67805C17.944 4.61572 17.8994 4.53808 17.8768 4.45298L17.3468 2.47298C17.3124 2.34481 17.2285 2.23555 17.1135 2.16918C16.9986 2.10282 16.862 2.08476 16.7338 2.11898L14.7528 2.64998C14.6681 2.67265 14.579 2.67256 14.4944 2.64974C14.4097 2.62691 14.3326 2.58215 14.2708 2.51998L12.8208 1.06998C12.7271 0.976242 12.5999 0.923584 12.4673 0.923584C12.3347 0.923584 12.2076 0.976242 12.1138 1.06998L10.6638 2.52098C10.6018 2.58306 10.5245 2.62775 10.4397 2.65057C10.3549 2.67338 10.2657 2.67352 10.1808 2.65098L8.20082 2.11898C8.13732 2.1019 8.07108 2.09751 8.00589 2.10606C7.9407 2.11462 7.87783 2.13594 7.82089 2.16883C7.76395 2.20171 7.71406 2.2455 7.67406 2.29769C7.63407 2.34988 7.60476 2.40945 7.58782 2.47298L7.05682 4.45298C7.03422 4.53777 6.9897 4.61512 6.92774 4.67726C6.86578 4.7394 6.78855 4.78414 6.70382 4.80698L4.72282 5.33798C4.59492 5.37242 4.48591 5.45621 4.41972 5.57096C4.35354 5.6857 4.33559 5.82201 4.36982 5.94998L4.89982 7.92998C4.9228 8.01471 4.92297 8.10401 4.90032 8.18884C4.87767 8.27366 4.83299 8.35099 4.77082 8.41298L3.32082 9.86298C3.27429 9.90934 3.23737 9.96443 3.21217 10.0251C3.18698 10.0858 3.17401 10.1508 3.17401 10.2165C3.17401 10.2822 3.18698 10.3472 3.21217 10.4079C3.23737 10.4685 3.27429 10.5236 3.32082 10.57L4.77082 12.02C4.83299 12.0822 4.87765 12.1597 4.9003 12.2447C4.92295 12.3296 4.92278 12.4191 4.89982 12.504L4.36982 14.484C4.33559 14.6119 4.35354 14.7483 4.41972 14.863C4.48591 14.9777 4.59492 15.0615 4.72282 15.096L6.70382 15.627C6.78855 15.6498 6.86578 15.6946 6.92774 15.7567C6.9897 15.8188 7.03422 15.8962 7.05682 15.981L7.58682 17.961C7.60436 18.0252 7.63453 18.0852 7.67557 18.1376C7.71661 18.1899 7.76769 18.2336 7.82582 18.266L5.96482 23.283H11.1478L12.4668 19.725L13.7878 23.283H18.9698L17.1088 18.266C17.1669 18.2337 17.218 18.1901 17.2589 18.1377C17.2997 18.0853 17.3297 18.0252 17.3468 17.961L17.8768 15.981C17.8994 15.896 17.9441 15.8185 18.0062 15.7564C18.0684 15.6942 18.1459 15.6496 18.2308 15.627L20.2108 15.097C20.2744 15.08 20.3339 15.0507 20.3861 15.0107C20.4383 14.9707 20.4821 14.9208 20.515 14.8639C20.5479 14.807 20.5692 14.7441 20.5777 14.6789C20.5863 14.6137 20.5819 14.5475 20.5648 14.484L20.0348 12.504C20.0118 12.4192 20.0117 12.3299 20.0343 12.2451C20.057 12.1603 20.1017 12.083 20.1638 12.021L21.6138 10.571V10.57Z" fill="#8B95A1"/>
</svg>
