<svg width="25" height="24" viewBox="0 0 25 24" fill="none" xmlns="http://www.w3.org/2000/svg">
<g clip-path="url(#clip0_239_356)">
<path fill-rule="evenodd" clip-rule="evenodd" d="M12.5918 9.22498C10.9918 9.22498 9.69177 10.525 9.69177 12.125C9.69177 13.725 10.9918 15.025 12.5918 15.025C14.1918 15.025 15.4918 13.725 15.4918 12.125C15.4918 10.525 14.1918 9.22498 12.5918 9.22498Z" fill="#8B95A1"/>
<path fill-rule="evenodd" clip-rule="evenodd" d="M12.5918 17.125C9.7918 17.125 7.5918 14.825 7.5918 12.125C7.5918 9.42499 9.8918 7.12499 12.5918 7.12499C15.2918 7.12499 17.5918 9.42499 17.5918 12.125C17.5918 14.825 15.3918 17.125 12.5918 17.125ZM23.5918 10.825C20.9918 6.82499 16.8918 4.42499 12.5918 4.42499C8.2918 4.42499 4.1918 6.82499 1.5918 10.825C1.0918 11.625 1.0918 12.625 1.5918 13.425C4.1918 17.425 8.2918 19.825 12.5918 19.825C16.8918 19.825 20.9918 17.425 23.5918 13.425C24.1918 12.625 24.1918 11.625 23.5918 10.825Z" fill="#8B95A1"/>
</g>
<defs>
<clipPath id="clip0_239_356">
<rect width="24" height="24" fill="white" transform="translate(0.466797)"/>
</clipPath>
</defs>
</svg>
