<svg width="25" height="24" viewBox="0 0 25 24" fill="none" xmlns="http://www.w3.org/2000/svg">
<path fill-rule="evenodd" clip-rule="evenodd" d="M20.7848 10.8H13.7848V3.79998C13.7848 3.48172 13.6584 3.17649 13.4333 2.95145C13.2083 2.7264 12.9031 2.59998 12.5848 2.59998C12.2666 2.59998 11.9613 2.7264 11.7363 2.95145C11.5112 3.17649 11.3848 3.48172 11.3848 3.79998V10.8H4.38481C4.06655 10.8 3.76133 10.9264 3.53629 11.1514C3.31124 11.3765 3.18481 11.6817 3.18481 12C3.18481 12.3182 3.31124 12.6235 3.53629 12.8485C3.76133 13.0735 4.06655 13.2 4.38481 13.2H11.3848V20.2C11.3848 20.5182 11.5112 20.8235 11.7363 21.0485C11.9613 21.2735 12.2666 21.4 12.5848 21.4C12.9031 21.4 13.2083 21.2735 13.4333 21.0485C13.6584 20.8235 13.7848 20.5182 13.7848 20.2V13.2H20.7848C21.1031 13.2 21.4083 13.0735 21.6333 12.8485C21.8584 12.6235 21.9848 12.3182 21.9848 12C21.9848 11.6817 21.8584 11.3765 21.6333 11.1514C21.4083 10.9264 21.1031 10.8 20.7848 10.8Z" fill="#8B95A1"/>
</svg>
