<svg width="25" height="24" viewBox="0 0 25 24" fill="none" xmlns="http://www.w3.org/2000/svg">
<path fill-rule="evenodd" clip-rule="evenodd" d="M13.4668 11.761C13.4668 11.794 13.4508 11.823 13.4478 11.855C13.4422 11.9227 13.4284 11.9895 13.4068 12.054C13.3706 12.1736 13.3115 12.285 13.2328 12.382C13.1888 12.435 13.1428 12.482 13.0888 12.526C13.0638 12.546 13.0488 12.575 13.0218 12.593L8.2958 15.743C8.07511 15.8846 7.80766 15.9338 7.55103 15.8801C7.2944 15.8264 7.06913 15.6741 6.92372 15.4559C6.77831 15.2377 6.72441 14.9712 6.77362 14.7136C6.82282 14.4561 6.9712 14.2282 7.1868 14.079L11.4668 11.226V6.556C11.4668 6.29078 11.5722 6.03643 11.7597 5.84889C11.9472 5.66136 12.2016 5.556 12.4668 5.556C12.732 5.556 12.9864 5.66136 13.1739 5.84889C13.3614 6.03643 13.4668 6.29078 13.4668 6.556V11.761ZM12.4668 1.5C6.6678 1.5 1.9668 6.201 1.9668 12C1.9668 17.799 6.6678 22.5 12.4668 22.5C18.2658 22.5 22.9668 17.799 22.9668 12C22.9668 6.201 18.2658 1.5 12.4668 1.5Z" fill="#8B95A1"/>
</svg>
