<svg width="25" height="24" viewBox="0 0 25 24" fill="none" xmlns="http://www.w3.org/2000/svg">
<path d="M21.5668 4.3L12.8668 0.7C12.6668 0.6 12.3668 0.6 12.0668 0.7L3.36685 4.3C2.96685 4.4 2.76685 4.8 2.76685 5.2V13.5C2.76685 17.3 7.56685 21 12.0668 23.3C12.3668 23.4 12.6668 23.4 12.9668 23.3C17.4668 21 22.2668 17.3 22.2668 13.5V5.2C22.1668 4.8 21.9668 4.4 21.5668 4.3ZM17.8668 9.8L12.0668 15.6C11.8668 15.8 11.5668 15.9 11.3668 15.9C11.1668 15.9 10.8668 15.8 10.6668 15.6L7.06685 12C6.66685 11.6 6.66685 10.9 7.06685 10.5C7.46685 10.1 8.16685 10.1 8.56685 10.5L11.3668 13.3L16.4668 8.3C16.8668 7.9 17.5668 7.9 17.9668 8.3C18.3668 8.7 18.3668 9.4 17.8668 9.8Z" fill="#8B95A1"/>
</svg>
