<svg width="25" height="24" viewBox="0 0 25 24" fill="none" xmlns="http://www.w3.org/2000/svg">
<path fill-rule="evenodd" clip-rule="evenodd" d="M10.9668 7.5H13.9668V4.5H10.9668V7.5ZM18.4668 1.5H6.4668C5.93636 1.5 5.42766 1.71071 5.05258 2.08579C4.67751 2.46086 4.4668 2.96957 4.4668 3.5V20.5C4.4668 21.0304 4.67751 21.5391 5.05258 21.9142C5.42766 22.2893 5.93636 22.5 6.4668 22.5H18.4668C18.9972 22.5 19.5059 22.2893 19.881 21.9142C20.2561 21.5391 20.4668 21.0304 20.4668 20.5V3.5C20.4668 2.96957 20.2561 2.46086 19.881 2.08579C19.5059 1.71071 18.9972 1.5 18.4668 1.5Z" fill="#8B95A1"/>
</svg>
