<svg width="21" height="21" viewBox="0 0 21 21" fill="none" xmlns="http://www.w3.org/2000/svg">
<mask id="path-1-inside-1_775_4302" fill="white">
<path fill-rule="evenodd" clip-rule="evenodd" d="M8.55234 2.68091C8.22317 2.35193 7.7769 2.167 7.31151 2.16675H3.58984C3.12438 2.16675 2.67799 2.35165 2.34887 2.68078C2.01974 3.0099 1.83484 3.45629 1.83484 3.92175V4.73591H10.6073L8.55234 2.68091ZM16.7473 5.56925H1.83484V16.1392C1.83484 17.1084 2.62067 17.8934 3.58984 17.8934H16.7473C16.9777 17.8935 17.2059 17.8482 17.4188 17.7601C17.6316 17.672 17.8251 17.5428 17.988 17.3799C18.1509 17.217 18.2801 17.0235 18.3682 16.8107C18.4563 16.5978 18.5016 16.3696 18.5015 16.1392V7.32341C18.5016 7.09302 18.4563 6.86487 18.3682 6.65199C18.2801 6.43912 18.1509 6.2457 17.988 6.08279C17.8251 5.91988 17.6316 5.79067 17.4188 5.70255C17.2059 5.61444 16.9777 5.56914 16.7473 5.56925"/>
</mask>
<path d="M8.55234 2.68091L9.96655 1.2667L9.96616 1.2663L8.55234 2.68091ZM7.31151 2.16675L7.31261 0.166748H7.31151V2.16675ZM1.83484 3.92175H-0.165161H1.83484ZM1.83484 4.73591H-0.165161V6.73591H1.83484V4.73591ZM10.6073 4.73591V6.73591H15.4358L12.0216 3.3217L10.6073 4.73591ZM1.83484 5.56925V3.56925H-0.165161V5.56925H1.83484ZM16.7473 17.8934L16.7483 15.8934H16.7473V17.8934ZM18.5015 16.1392L16.5015 16.1392L16.5015 16.1402L18.5015 16.1392ZM18.5015 7.32341L16.5015 7.32246V7.32341H18.5015ZM9.96616 1.2663C9.26221 0.562756 8.30785 0.167297 7.31261 0.166748L7.3104 4.16675C7.24594 4.16671 7.18412 4.1411 7.13852 4.09553L9.96616 1.2663ZM7.31151 0.166748H3.58984V4.16675H7.31151V0.166748ZM3.58984 0.166748C2.59395 0.166748 1.63885 0.562363 0.934653 1.26656L3.76308 4.09499C3.71713 4.14094 3.65482 4.16675 3.58984 4.16675V0.166748ZM0.934653 1.26656C0.230454 1.97076 -0.165161 2.92586 -0.165161 3.92175L3.83484 3.92175C3.83484 3.98673 3.80903 4.04904 3.76308 4.09499L0.934653 1.26656ZM-0.165161 3.92175V4.73591H3.83484V3.92175H-0.165161ZM1.83484 6.73591H10.6073V2.73591H1.83484V6.73591ZM12.0216 3.3217L9.96655 1.2667L7.13813 4.09513L9.19313 6.15013L12.0216 3.3217ZM16.7473 3.56925H1.83484V7.56925H16.7473V3.56925ZM-0.165161 5.56925V16.1392H3.83484V5.56925H-0.165161ZM-0.165161 16.1392C-0.165161 18.2142 1.51734 19.8934 3.58984 19.8934V15.8934C3.72401 15.8934 3.83484 16.0026 3.83484 16.1392H-0.165161ZM3.58984 19.8934H16.7473V15.8934H3.58984V19.8934ZM16.7464 19.8934C17.2396 19.8937 17.728 19.7967 18.1837 19.6081L16.6538 15.9122C16.6838 15.8998 16.7159 15.8934 16.7483 15.8934L16.7464 19.8934ZM18.1837 19.6081C18.6394 19.4194 19.0534 19.1428 19.4022 18.7941L16.5738 15.9657C16.5967 15.9427 16.6239 15.9246 16.6538 15.9122L18.1837 19.6081ZM19.4022 18.7941C19.7509 18.4453 20.0275 18.0313 20.2161 17.5756L16.5203 16.0457C16.5327 16.0158 16.5508 15.9886 16.5738 15.9657L19.4022 18.7941ZM20.2161 17.5756C20.4048 17.1199 20.5017 16.6315 20.5015 16.1383L16.5015 16.1402C16.5015 16.1078 16.5079 16.0757 16.5203 16.0457L20.2161 17.5756ZM20.5015 16.1392V7.32341H16.5015V16.1392H20.5015ZM20.5015 7.32437C20.5017 6.83117 20.4048 6.34277 20.2161 5.88707L16.5203 7.41692C16.5079 7.38697 16.5015 7.35487 16.5015 7.32246L20.5015 7.32437ZM20.2161 5.88707C20.0275 5.43137 19.7509 5.01731 19.4022 4.66857L16.5738 7.497C16.5508 7.47408 16.5327 7.44687 16.5203 7.41692L20.2161 5.88707ZM19.4022 4.66857C19.0534 4.31983 18.6394 4.04324 18.1837 3.85461L16.6538 7.55049C16.6239 7.5381 16.5967 7.51992 16.5738 7.497L19.4022 4.66857ZM18.1837 3.85461C17.728 3.66598 17.2396 3.56901 16.7464 3.56925L16.7483 7.56925C16.7159 7.56926 16.6838 7.56289 16.6538 7.55049L18.1837 3.85461Z" fill="#ADB6C1" mask="url(#path-1-inside-1_775_4302)"/>
</svg>
