<svg width="25" height="24" viewBox="0 0 25 24" fill="none" xmlns="http://www.w3.org/2000/svg">
<path d="M15.2458 4.67204C14.3378 4.45404 13.4098 4.32404 12.4668 4.32404C8.2548 4.32404 4.2718 6.58504 1.6488 10.352C0.964803 11.334 0.964803 12.667 1.6488 13.649C2.2888 14.568 3.0118 15.393 3.7968 16.122L15.2458 4.67204Z" fill="#8B95A1"/>
<path d="M23.2858 10.352C22.2358 8.84402 20.9608 7.59102 19.5458 6.61902L22.1148 4.05002C22.5838 3.58102 22.5838 2.82102 22.1148 2.35302C21.6458 1.88502 20.8858 1.88402 20.4178 2.35302L2.81879 19.95C2.34979 20.419 2.34979 21.179 2.81879 21.647C3.05279 21.881 3.36079 21.999 3.66779 21.999C3.97479 21.999 4.28179 21.882 4.51679 21.647L7.56079 18.603C9.10979 19.294 10.7668 19.676 12.4668 19.676C16.6798 19.676 20.6628 17.415 23.2858 13.648C23.9688 12.667 23.9688 11.334 23.2858 10.352ZM12.4658 15.974C11.8068 15.974 11.1918 15.803 10.6468 15.516L15.9818 10.181C16.2688 10.726 16.4398 11.34 16.4398 11.999C16.4398 14.192 14.6568 15.974 12.4658 15.974Z" fill="#8B95A1"/>
</svg>
