<svg width="34" height="34" viewBox="0 0 34 34" fill="none" xmlns="http://www.w3.org/2000/svg">
<path d="M8.14598 10.8019L8.14628 10.8022L14.3438 16.9649L8.1814 23.1273C7.94266 23.3661 7.81871 23.6514 7.81871 23.9771C7.81871 24.3028 7.94266 24.5882 8.1814 24.827C8.4174 25.063 8.69389 25.1936 9.00699 25.2072C9.32522 25.221 9.60688 25.1011 9.84561 24.8624L16.8581 17.8499C16.9885 17.7195 17.0848 17.5775 17.1409 17.4232C17.1943 17.2765 17.2208 17.1233 17.2208 16.9646C17.2208 16.8061 17.1943 16.657 17.1392 16.5193C17.0825 16.3775 16.9863 16.243 16.8581 16.1148L9.88103 9.13773C9.64229 8.899 9.35693 8.77505 9.03121 8.77505C8.7055 8.77505 8.42013 8.899 8.1814 9.13773C7.9454 9.37373 7.81476 9.65022 7.80115 9.96332C7.78731 10.2816 7.90725 10.5632 8.14598 10.8019ZM23.3042 16.9649L17.1418 23.1273C16.9031 23.3661 16.7791 23.6514 16.7791 23.9771C16.7791 24.3028 16.9031 24.5882 17.1418 24.827C17.3778 25.063 17.6543 25.1936 17.9674 25.2072C18.2856 25.221 18.5673 25.1011 18.806 24.8624L25.8185 17.8499C25.9489 17.7195 26.0452 17.5775 26.1013 17.4232C26.1547 17.2765 26.1812 17.1233 26.1812 16.9646C26.1812 16.8061 26.1547 16.657 26.0997 16.5193C26.0429 16.3775 25.9467 16.243 25.8185 16.1148L18.8414 9.13773C18.6027 8.899 18.3173 8.77505 17.9916 8.77505C17.6659 8.77505 17.3806 8.899 17.1418 9.13773C16.9058 9.37373 16.7752 9.65022 16.7616 9.96332C16.7477 10.2816 16.8677 10.5632 17.1064 10.8019L17.1067 10.8022L23.3042 16.9649Z" fill="#8B95A1" stroke="#8B95A1" stroke-width="0.3"/>
</svg>
