<svg width="25" height="24" viewBox="0 0 25 24" fill="none" xmlns="http://www.w3.org/2000/svg">
<path fill-rule="evenodd" clip-rule="evenodd" d="M13.3668 14.075V16.274C13.3668 16.5127 13.272 16.7416 13.1032 16.9104C12.9344 17.0792 12.7055 17.174 12.4668 17.174C12.2281 17.174 11.9992 17.0792 11.8304 16.9104C11.6616 16.7416 11.5668 16.5127 11.5668 16.274V14.075C11.2938 13.9182 11.067 13.6924 10.909 13.4201C10.751 13.1478 10.6675 12.8388 10.6668 12.524C10.6779 12.0541 10.8723 11.6072 11.2086 11.2787C11.5449 10.9503 11.9963 10.7664 12.4663 10.7664C12.9363 10.7664 13.3877 10.9503 13.724 11.2787C14.0603 11.6072 14.2547 12.0541 14.2658 12.524C14.2658 13.189 13.9018 13.763 13.3668 14.075ZM9.2868 6.49901C9.28786 5.65604 9.62326 4.84791 10.2194 4.25193C10.8156 3.65595 11.6238 3.3208 12.4668 3.32001C13.3097 3.3208 14.1178 3.65599 14.7138 4.25199C15.3098 4.848 15.645 5.65613 15.6458 6.49901H9.2868ZM19.0658 6.49901H17.6458C17.6445 5.12586 17.0984 3.80933 16.1274 2.83836C15.1565 1.8674 13.8399 1.32133 12.4668 1.32001C11.0936 1.32133 9.77692 1.86737 8.8058 2.8383C7.83468 3.80924 7.28839 5.12577 7.2868 6.49901H5.8668C5.23028 6.49901 4.61983 6.75186 4.16974 7.20195C3.71965 7.65204 3.4668 8.26249 3.4668 8.89901V19.099C3.4668 19.7355 3.71965 20.346 4.16974 20.7961C4.61983 21.2462 5.23028 21.499 5.8668 21.499H19.0658C19.3811 21.4991 19.6932 21.4372 19.9845 21.3166C20.2758 21.1961 20.5405 21.0193 20.7635 20.7964C20.9865 20.5735 21.1633 20.3089 21.284 20.0177C21.4047 19.7264 21.4668 19.4143 21.4668 19.099V8.89901C21.4668 8.58375 21.4047 8.27158 21.284 7.98034C21.1633 7.68909 20.9865 7.42447 20.7635 7.2016C20.5405 6.97872 20.2758 6.80196 19.9845 6.68141C19.6932 6.56086 19.3811 6.49888 19.0658 6.49901Z" fill="#8B95A1"/>
</svg>
