<svg width="25" height="24" viewBox="0 0 25 24" fill="none" xmlns="http://www.w3.org/2000/svg">
<path fill-rule="evenodd" clip-rule="evenodd" d="M16.0708 10.245C15.7838 11.494 14.9238 12.044 14.2948 12.447C13.6438 12.863 13.4188 13.037 13.4188 13.626C13.4188 13.8647 13.324 14.0936 13.1552 14.2624C12.9864 14.4312 12.7575 14.526 12.5188 14.526C12.2801 14.526 12.0512 14.4312 11.8824 14.2624C11.7136 14.0936 11.6188 13.8647 11.6188 13.626C11.6188 12.021 12.6048 11.391 13.3248 10.93C13.8968 10.565 14.1998 10.35 14.3168 9.842C14.4178 9.401 14.3378 9.011 14.0768 8.683C13.7348 8.254 13.1238 7.976 12.5188 7.976C11.5408 7.976 10.7448 8.773 10.7448 9.751C10.7448 9.9897 10.65 10.2186 10.4812 10.3874C10.3124 10.5562 10.0835 10.651 9.8448 10.651C9.6061 10.651 9.37718 10.5562 9.2084 10.3874C9.03962 10.2186 8.9448 9.9897 8.9448 9.751C8.94586 8.80344 9.32274 7.895 9.99277 7.22497C10.6628 6.55494 11.5712 6.17806 12.5188 6.177C13.6678 6.177 14.8038 6.707 15.4848 7.562C16.0868 8.318 16.2948 9.271 16.0708 10.245ZM12.5348 17.984C12.2165 17.984 11.9113 17.8576 11.6863 17.6325C11.4612 17.4075 11.3348 17.1023 11.3348 16.784C11.3348 16.4657 11.4612 16.1605 11.6863 15.9355C11.9113 15.7104 12.2165 15.584 12.5348 15.584C12.8531 15.584 13.1583 15.7104 13.3833 15.9355C13.6084 16.1605 13.7348 16.4657 13.7348 16.784C13.7348 17.1023 13.6084 17.4075 13.3833 17.6325C13.1583 17.8576 12.8531 17.984 12.5348 17.984ZM12.4668 1C6.3908 1 1.4668 5.925 1.4668 12C1.4668 18.076 6.3908 23 12.4668 23C18.5418 23 23.4668 18.076 23.4668 12C23.4668 5.925 18.5418 1 12.4668 1Z" fill="#8B95A1"/>
</svg>
