<svg width="25" height="24" viewBox="0 0 25 24" fill="none" xmlns="http://www.w3.org/2000/svg">
<path fill-rule="evenodd" clip-rule="evenodd" d="M17.3538 6.64401C17.3539 7.28683 17.2273 7.92337 16.9814 8.51729C16.7354 9.1112 16.3749 9.65086 15.9204 10.1054C15.4659 10.56 14.9263 10.9207 14.3325 11.1667C13.7386 11.4128 13.1021 11.5394 12.4593 11.5395C11.1611 11.5396 9.91594 11.024 8.99785 10.1062C8.07977 9.18826 7.56392 7.94325 7.56379 6.64501C7.56372 6.00219 7.69027 5.36565 7.9362 4.77174C8.18214 4.17782 8.54265 3.63817 8.99714 3.18358C9.91504 2.26549 11.1601 1.74964 12.4583 1.74951C13.7565 1.74938 15.0016 2.26497 15.9197 3.18287C16.8378 4.10077 17.3537 5.34578 17.3538 6.64401ZM12.4588 13.037C5.40979 13.037 2.66779 17.523 2.66779 19.61C2.66779 21.696 8.50479 22.252 12.4588 22.252C16.4128 22.252 22.2498 21.696 22.2498 19.61C22.2498 17.523 19.5078 13.037 12.4588 13.037Z" fill="#8B95A1"/>
</svg>
