<svg width="25" height="24" viewBox="0 0 25 24" fill="none" xmlns="http://www.w3.org/2000/svg">
<g clip-path="url(#clip0_239_334)">
<path fill-rule="evenodd" clip-rule="evenodd" d="M23.4668 10.1H21.3668V7.99999C21.359 7.76661 21.2608 7.5454 21.093 7.38307C20.9252 7.22073 20.7008 7.12998 20.4673 7.12998C20.2338 7.12998 20.0094 7.22073 19.8416 7.38307C19.6738 7.5454 19.5756 7.76661 19.5678 7.99999V10.1H17.4668C17.2281 10.1 16.9992 10.1948 16.8304 10.3636C16.6616 10.5324 16.5668 10.7613 16.5668 11C16.5668 11.2387 16.6616 11.4676 16.8304 11.6364C16.9992 11.8052 17.2281 11.9 17.4668 11.9H19.5678V14C19.5638 14.1206 19.5841 14.2409 19.6275 14.3535C19.6709 14.4661 19.7365 14.5689 19.8204 14.6557C19.9043 14.7425 20.0048 14.8115 20.116 14.8586C20.2271 14.9057 20.3466 14.93 20.4673 14.93C20.588 14.93 20.7075 14.9057 20.8186 14.8586C20.9298 14.8115 21.0303 14.7425 21.1142 14.6557C21.1981 14.5689 21.2638 14.4661 21.3071 14.3535C21.3505 14.2409 21.3708 14.1206 21.3668 14V11.9H23.4668C23.7055 11.9 23.9344 11.8052 24.1032 11.6364C24.272 11.4676 24.3668 11.2387 24.3668 11C24.3668 10.7613 24.272 10.5324 24.1032 10.3636C23.9344 10.1948 23.7055 10.1 23.4668 10.1ZM10.4668 11.456C11.6216 11.456 12.729 10.9973 13.5455 10.1807C14.3621 9.3642 14.8208 8.25674 14.8208 7.10199C14.8208 5.94723 14.3621 4.83978 13.5455 4.02324C12.729 3.20671 11.6216 2.74799 10.4668 2.74799C9.31205 2.74799 8.20459 3.20671 7.38806 4.02324C6.57153 4.83978 6.1128 5.94723 6.1128 7.10199C6.1128 8.25674 6.57153 9.3642 7.38806 10.1807C8.20459 10.9973 9.31205 11.456 10.4668 11.456ZM10.4668 12.788C4.1978 12.788 1.7608 16.777 1.7608 18.633C1.7608 20.488 6.9498 20.982 10.4668 20.982C13.9838 20.982 19.1728 20.488 19.1728 18.632C19.1728 16.777 16.7358 12.788 10.4668 12.788Z" fill="#8B95A1"/>
</g>
<defs>
<clipPath id="clip0_239_334">
<rect width="24" height="24" fill="white" transform="translate(0.466797)"/>
</clipPath>
</defs>
</svg>
