<svg width="25" height="24" viewBox="0 0 25 24" fill="none" xmlns="http://www.w3.org/2000/svg">
<g clip-path="url(#clip0_239_470)">
<path fill-rule="evenodd" clip-rule="evenodd" d="M22.1808 13.088L8.5128 21.993C8.36188 22.0914 8.18721 22.1471 8.00722 22.1544C7.82723 22.1617 7.64862 22.1202 7.49026 22.0344C7.33189 21.9485 7.19965 21.8215 7.10752 21.6667C7.01538 21.5119 6.96676 21.3351 6.9668 21.155V3.345C6.96676 3.16487 7.01538 2.98807 7.10752 2.83328C7.19965 2.6785 7.33189 2.55148 7.49026 2.46563C7.64862 2.37979 7.82723 2.33832 8.00722 2.34561C8.18721 2.35289 8.36188 2.40865 8.5128 2.507L22.1808 11.412C22.3203 11.5028 22.4349 11.6271 22.5142 11.7734C22.5936 11.9197 22.6351 12.0835 22.6351 12.25C22.6351 12.4165 22.5936 12.5803 22.5142 12.7266C22.4349 12.873 22.3203 12.9972 22.1808 13.088Z" fill="#8B95A1"/>
</g>
<defs>
<clipPath id="clip0_239_470">
<rect width="24" height="24" fill="white" transform="translate(0.466797)"/>
</clipPath>
</defs>
</svg>
