<svg width="25" height="24" viewBox="0 0 25 24" fill="none" xmlns="http://www.w3.org/2000/svg">
<path d="M8.86678 21.6C6.96678 21.6 4.96678 20.9 3.56678 19.4C0.666785 16.5 0.666785 11.7 3.56678 8.69999L8.06678 4.19999C8.46678 3.79999 9.16678 3.79999 9.66678 4.19999C10.0668 4.59999 10.0668 5.29999 9.66678 5.79999L5.16678 10.3C3.06678 12.4 3.06678 15.8 5.16678 17.8C7.26678 19.9 10.6668 19.9 12.6668 17.8L20.4668 9.99999C21.6668 8.79999 21.6668 6.69999 20.4668 5.49999C19.2668 4.29999 17.1668 4.29999 15.9668 5.49999L8.86678 12.6C8.46678 13 8.46678 13.7 8.86678 14.1C9.26678 14.5 9.96678 14.5 10.3668 14.1L15.1668 9.29999C15.5668 8.89999 16.2668 8.89999 16.7668 9.29999C17.1668 9.69999 17.1668 10.4 16.7668 10.9L11.9668 15.7C10.5668 17 8.46679 17 7.26679 15.7C5.96679 14.4 5.96679 12.4 7.26679 11.1L14.3668 3.99999C16.4668 1.89999 19.8668 1.89999 21.9668 3.99999C24.0668 6.09999 24.0668 9.49999 21.9668 11.6L14.1668 19.4C12.7668 20.8 10.8668 21.6 8.86678 21.6Z" fill="#8B95A1"/>
</svg>
