<svg width="25" height="24" viewBox="0 0 25 24" fill="none" xmlns="http://www.w3.org/2000/svg">
<path fill-rule="evenodd" clip-rule="evenodd" d="M12.4668 2.26001C6.76378 2.26001 2.07478 6.60001 1.52178 12.157C1.50825 12.2966 1.52407 12.4375 1.56822 12.5706C1.61237 12.7038 1.68387 12.8262 1.77813 12.9301C1.87239 13.0339 1.98733 13.117 2.11557 13.1738C2.24381 13.2306 2.38251 13.26 2.52278 13.26H11.7238V19.807C11.7159 20.049 11.6141 20.2785 11.4401 20.4469C11.2661 20.6153 11.0334 20.7095 10.7913 20.7095C10.5491 20.7095 10.3164 20.6153 10.1424 20.4469C9.96842 20.2785 9.8667 20.049 9.85878 19.807C9.84726 19.5495 9.73687 19.3064 9.5506 19.1283C9.36432 18.9502 9.11651 18.8507 8.85878 18.8507C8.60104 18.8507 8.35324 18.9502 8.16696 19.1283C7.98068 19.3064 7.8703 19.5495 7.85878 19.807C7.85957 20.5844 8.16873 21.3297 8.71842 21.8794C9.2681 22.4291 10.0134 22.7382 10.7908 22.739C11.5682 22.7382 12.3136 22.4291 12.8635 21.8794C13.4133 21.3298 13.7227 20.5845 13.7238 19.807V13.26H22.4108C23.0038 13.26 23.4708 12.747 23.4118 12.157C22.8598 6.60001 18.1698 2.26001 12.4668 2.26001Z" fill="#8B95A1"/>
</svg>
