<svg width="25" height="24" viewBox="0 0 25 24" fill="none" xmlns="http://www.w3.org/2000/svg">
<path fill-rule="evenodd" clip-rule="evenodd" d="M12.4668 1.565C6.6678 1.565 1.9668 5.818 1.9668 11.065C1.9668 13.592 3.0648 15.882 4.8428 17.585L3.9748 21.834C3.95631 21.9249 3.96347 22.0191 3.99547 22.1062C4.02746 22.1932 4.08304 22.2696 4.15598 22.3269C4.22892 22.3842 4.31635 22.42 4.40851 22.4305C4.50066 22.4409 4.59389 22.4255 4.6778 22.386L9.4088 20.153C10.4051 20.4267 11.4336 20.5653 12.4668 20.565C18.2658 20.565 22.9668 16.312 22.9668 11.065C22.9668 5.818 18.2658 1.565 12.4668 1.565Z" fill="#8B95A1"/>
</svg>
