<svg width="25" height="24" viewBox="0 0 25 24" fill="none" xmlns="http://www.w3.org/2000/svg">
<path fill-rule="evenodd" clip-rule="evenodd" d="M10.9668 18.86C10.9669 19.0571 11.0059 19.2523 11.0814 19.4343C11.157 19.6164 11.2677 19.7818 11.4071 19.9211C11.5466 20.0603 11.7122 20.1708 11.8943 20.2461C12.0765 20.3214 12.2717 20.3601 12.4688 20.36C12.6659 20.3598 12.8611 20.3209 13.0431 20.2453C13.2252 20.1698 13.3906 20.0591 13.5299 19.9196C13.6692 19.7802 13.7796 19.6146 13.8549 19.4325C13.9302 19.2503 13.9689 19.0551 13.9688 18.858C13.9687 18.4599 13.8104 18.0782 13.5288 17.7968C13.2472 17.5154 12.8654 17.3573 12.4673 17.3575C12.0692 17.3576 11.6875 17.5159 11.4061 17.7975C11.1247 18.079 10.9667 18.4609 10.9668 18.859M22.5788 9.99798C22.2678 9.99798 21.9578 9.88298 21.7158 9.65198C19.2264 7.27007 15.9122 5.94349 12.4668 5.94998C9.02181 5.94375 5.70792 7.2703 3.21881 9.65198C2.97892 9.88086 2.65793 10.0051 2.32646 9.99729C1.99499 9.98951 1.68019 9.85037 1.45131 9.61048C1.22243 9.37059 1.09821 9.0496 1.106 8.71813C1.11378 8.38666 1.25292 8.07186 1.49281 7.84298C4.44635 5.01659 8.3788 3.44239 12.4668 3.44998C16.5728 3.44998 20.4708 5.00998 23.4398 7.84298C23.6206 8.01528 23.7457 8.2378 23.7989 8.48186C23.8521 8.72591 23.8309 8.9803 23.7382 9.21222C23.6454 9.44413 23.4853 9.64294 23.2784 9.78299C23.0716 9.92305 22.8276 9.99793 22.5778 9.99798" fill="#8B95A1"/>
<path fill-rule="evenodd" clip-rule="evenodd" d="M19.2108 13.366C18.9058 13.366 18.5998 13.255 18.3588 13.03C16.7606 11.5366 14.6541 10.7072 12.4668 10.71C10.2795 10.7075 8.17316 11.5369 6.57479 13.03C6.33211 13.2559 6.00962 13.3762 5.67824 13.3644C5.34686 13.3526 5.03375 13.2096 4.80779 12.967C4.58182 12.7243 4.46151 12.4018 4.47333 12.0704C4.48514 11.739 4.62811 11.4259 4.87079 11.2C6.93135 9.27506 9.64701 8.2061 12.4668 8.20997C15.2958 8.20997 17.9938 9.27297 20.0628 11.2C20.2465 11.3712 20.3744 11.5938 20.4298 11.8388C20.4853 12.0837 20.4657 12.3397 20.3737 12.5734C20.2817 12.807 20.1214 13.0076 19.9138 13.149C19.7063 13.2903 19.4609 13.366 19.2098 13.366" fill="#8B95A1"/>
<path fill-rule="evenodd" clip-rule="evenodd" d="M15.9008 16.675C15.6088 16.675 15.3158 16.573 15.0788 16.365C13.6328 15.101 11.3008 15.101 9.85582 16.365C9.73292 16.477 9.58891 16.5633 9.43223 16.6189C9.27555 16.6746 9.10935 16.6984 8.94335 16.689C8.77735 16.6796 8.61489 16.6372 8.46548 16.5643C8.31607 16.4913 8.18272 16.3893 8.07323 16.2642C7.96373 16.139 7.88031 15.9933 7.82782 15.8356C7.77534 15.6778 7.75486 15.5112 7.76758 15.3454C7.7803 15.1796 7.82596 15.018 7.9019 14.8701C7.97784 14.7222 8.08252 14.5909 8.20982 14.484C9.38818 13.4522 10.9011 12.8835 12.4673 12.8835C14.0335 12.8835 15.5465 13.4522 16.7248 14.484C16.916 14.6515 17.0515 14.8734 17.1133 15.12C17.1752 15.3666 17.1603 15.6262 17.0708 15.8642C16.9813 16.1021 16.8213 16.3071 16.6123 16.4518C16.4032 16.5965 16.155 16.674 15.9008 16.674" fill="#8B95A1"/>
</svg>
