<svg width="25" height="24" viewBox="0 0 25 24" fill="none" xmlns="http://www.w3.org/2000/svg">
<path fill-rule="evenodd" clip-rule="evenodd" d="M18.4668 13.3H16.3798L15.6388 15.992C15.5817 16.2051 15.4555 16.3933 15.2799 16.5271C15.1044 16.6608 14.8894 16.7325 14.6688 16.731C14.4482 16.7326 14.2333 16.661 14.0579 16.5272C13.8825 16.3934 13.7565 16.2052 13.6998 15.992L12.4668 11.514L11.2348 15.992C11.1779 16.2051 11.0519 16.3932 10.8765 16.527C10.7011 16.6607 10.4863 16.7325 10.2658 16.731H10.2648C10.0442 16.7326 9.82939 16.661 9.65387 16.5275C9.47835 16.3939 9.35206 16.206 9.29477 15.993L8.55377 13.3H6.46677C6.2546 13.3 6.05112 13.2157 5.90109 13.0657C5.75106 12.9156 5.66677 12.7122 5.66677 12.5C5.66677 12.2878 5.75106 12.0843 5.90109 11.9343C6.05112 11.7843 6.2546 11.7 6.46677 11.7H8.11277L7.44777 9.28098C7.41618 9.1786 7.40547 9.07092 7.41628 8.96432C7.4271 8.85772 7.45922 8.75438 7.51073 8.66044C7.56225 8.56649 7.63211 8.48385 7.71617 8.41741C7.80023 8.35098 7.89679 8.30211 8.0001 8.2737C8.10341 8.24529 8.21137 8.23793 8.31758 8.25204C8.42379 8.26616 8.52609 8.30146 8.61839 8.35587C8.7107 8.41027 8.79114 8.48266 8.85493 8.56874C8.91873 8.65482 8.96458 8.75284 8.98977 8.85698L10.2648 13.486L11.4968 9.00798C11.5539 8.79482 11.6801 8.60663 11.8556 8.4729C12.0312 8.33916 12.2461 8.26744 12.4668 8.26898C12.9248 8.26898 13.3148 8.56598 13.4368 9.00798L14.6688 13.486L15.9438 8.85698C16 8.65237 16.1352 8.47847 16.3196 8.37354C16.411 8.32159 16.5116 8.28813 16.6159 8.27508C16.7202 8.26203 16.826 8.26964 16.9273 8.29748C17.0286 8.32532 17.1234 8.37285 17.2064 8.43734C17.2893 8.50183 17.3588 8.58203 17.4107 8.67336C17.4627 8.76468 17.4961 8.86535 17.5092 8.96961C17.5222 9.07386 17.5146 9.17967 17.4868 9.28098L16.8208 11.7H18.4668C18.5718 11.7 18.6759 11.7207 18.7729 11.7609C18.87 11.8011 18.9582 11.86 19.0325 11.9343C19.1067 12.0086 19.1657 12.0968 19.2059 12.1938C19.2461 12.2909 19.2668 12.3949 19.2668 12.5C19.2668 12.605 19.2461 12.7091 19.2059 12.8061C19.1657 12.9032 19.1067 12.9914 19.0325 13.0657C18.9582 13.14 18.87 13.1989 18.7729 13.2391C18.6759 13.2793 18.5718 13.3 18.4668 13.3ZM21.4668 1.94598H3.46677C3.22808 1.94598 2.99916 2.0408 2.83038 2.20959C2.66159 2.37837 2.56677 2.60729 2.56677 2.84598C2.56677 3.08468 2.66159 3.3136 2.83038 3.48238C2.99916 3.65116 3.22808 3.74598 3.46677 3.74598V20.846C3.46677 21.1112 3.57213 21.3656 3.75967 21.5531C3.9472 21.7406 4.20156 21.846 4.46677 21.846H20.4668C20.732 21.846 20.9863 21.7406 21.1739 21.5531C21.3614 21.3656 21.4668 21.1112 21.4668 20.846V3.74598C21.7055 3.74598 21.9344 3.65116 22.1032 3.48238C22.272 3.3136 22.3668 3.08468 22.3668 2.84598C22.3668 2.60729 22.272 2.37837 22.1032 2.20959C21.9344 2.0408 21.7055 1.94598 21.4668 1.94598Z" fill="#8B95A1"/>
</svg>
