<svg width="25" height="24" viewBox="0 0 25 24" fill="none" xmlns="http://www.w3.org/2000/svg">
<path d="M4.76682 12.37V11.36C4.76682 8.56998 7.03682 6.29998 9.82682 6.29998H17.4168L16.8568 6.85998C16.6314 7.08542 16.5047 7.39117 16.5047 7.70998C16.5047 8.0288 16.6314 8.33455 16.8568 8.55998C17.0823 8.78542 17.388 8.91207 17.7068 8.91207C18.0256 8.91207 18.3314 8.78542 18.5568 8.55998L21.1668 5.94998C21.3868 5.71998 21.5168 5.41998 21.5168 5.09998C21.5168 4.77998 21.3868 4.47998 21.1668 4.24998L18.5568 1.63998C18.4452 1.52836 18.3127 1.43982 18.1668 1.37941C18.021 1.319 17.8647 1.2879 17.7068 1.2879C17.549 1.2879 17.3926 1.319 17.2468 1.37941C17.101 1.43982 16.9684 1.52836 16.8568 1.63998C16.6314 1.86542 16.5047 2.17117 16.5047 2.48998C16.5047 2.8088 16.6314 3.11455 16.8568 3.33998L17.4168 3.89998H9.82682C5.71682 3.89998 2.36682 7.24998 2.36682 11.36V12.37C2.36682 13.03 2.90682 13.57 3.56682 13.57C4.22682 13.57 4.76682 13.04 4.76682 12.37ZM21.3668 10.43C20.7068 10.43 20.1668 10.97 20.1668 11.63V12.64C20.1668 15.43 17.8968 17.7 15.1068 17.7H7.51682L8.07682 17.14C8.30226 16.9145 8.4289 16.6088 8.4289 16.29C8.4289 15.9712 8.30226 15.6654 8.07682 15.44C7.85139 15.2146 7.54563 15.0879 7.22682 15.0879C6.90801 15.0879 6.60225 15.2146 6.37682 15.44L3.76682 18.05C3.53682 18.27 3.41682 18.58 3.41682 18.9C3.41682 19.22 3.54682 19.52 3.76682 19.75L6.37682 22.36C6.6025 22.5849 6.90816 22.7113 7.22682 22.7113C7.54548 22.7113 7.85114 22.5849 8.07682 22.36C8.54682 21.89 8.54682 21.13 8.07682 20.66L7.51682 20.1H15.1068C19.2168 20.1 22.5668 16.75 22.5668 12.64V11.63C22.5668 10.96 22.0268 10.43 21.3668 10.43Z" fill="#8B95A1"/>
</svg>
