<svg width="25" height="24" viewBox="0 0 25 24" fill="none" xmlns="http://www.w3.org/2000/svg">
<path fill-rule="evenodd" clip-rule="evenodd" d="M4.41779 7.75801H17.8598L15.3658 10.252C15.1745 10.4613 15.0714 10.7363 15.0778 11.0197C15.0842 11.3031 15.1997 11.5732 15.4002 11.7736C15.6008 11.974 15.8709 12.0893 16.1543 12.0955C16.4377 12.1018 16.7126 11.9984 16.9218 11.807L21.2928 7.43501C21.3958 7.33334 21.4776 7.2122 21.5335 7.07865C21.5893 6.94509 21.6181 6.80177 21.6181 6.65701C21.6181 6.51225 21.5893 6.36894 21.5335 6.23538C21.4776 6.10182 21.3958 5.98069 21.2928 5.87901L16.9218 1.50901C16.8202 1.40463 16.6989 1.32146 16.5648 1.26435C16.4308 1.20723 16.2868 1.1773 16.1411 1.1763C15.9955 1.17529 15.8511 1.20323 15.7163 1.25849C15.5815 1.31375 15.459 1.39523 15.356 1.4982C15.2529 1.60118 15.1714 1.72359 15.116 1.85834C15.0607 1.99309 15.0327 2.13749 15.0336 2.28316C15.0345 2.42883 15.0643 2.57287 15.1214 2.70691C15.1784 2.84096 15.2615 2.96234 15.3658 3.06401L17.8598 5.55801H4.41779C4.12605 5.55801 3.84626 5.67391 3.63997 5.8802C3.43368 6.08649 3.31779 6.36628 3.31779 6.65801C3.31779 6.94975 3.43368 7.22954 3.63997 7.43583C3.84626 7.64212 4.12605 7.75801 4.41779 7.75801ZM20.5158 16.241H7.07379L9.56679 13.747C9.76853 13.5398 9.88053 13.2614 9.87853 12.9722C9.87653 12.6829 9.7607 12.4061 9.55612 12.2017C9.35154 11.9972 9.07467 11.8816 8.78544 11.8798C8.49622 11.878 8.21792 11.9901 8.01079 12.192L3.63879 16.563C3.53611 16.6649 3.45462 16.7861 3.399 16.9196C3.34339 17.0532 3.31476 17.1964 3.31476 17.341C3.31476 17.4857 3.34339 17.6289 3.399 17.7624C3.45462 17.8959 3.53611 18.0171 3.63879 18.119L8.01079 22.491C8.11296 22.5932 8.23425 22.6742 8.36774 22.7295C8.50123 22.7848 8.6443 22.8133 8.78879 22.8133C8.93328 22.8133 9.07635 22.7848 9.20984 22.7295C9.34333 22.6742 9.46462 22.5932 9.56679 22.491C9.66896 22.3888 9.75 22.2676 9.8053 22.1341C9.86059 22.0006 9.88905 21.8575 9.88905 21.713C9.88905 21.5685 9.86059 21.4255 9.8053 21.292C9.75 21.1585 9.66896 21.0372 9.56679 20.935L7.07279 18.441H20.5148C20.8065 18.441 21.0863 18.3251 21.2926 18.1188C21.4989 17.9125 21.6148 17.6328 21.6148 17.341C21.6148 17.0493 21.4989 16.7695 21.2926 16.5632C21.0863 16.3569 20.8065 16.241 20.5148 16.241" fill="#8B95A1"/>
</svg>
