<svg width="25" height="24" viewBox="0 0 25 24" fill="none" xmlns="http://www.w3.org/2000/svg">
<path fill-rule="evenodd" clip-rule="evenodd" d="M21.4668 2.5H3.4668C3.20158 2.5 2.94723 2.60536 2.75969 2.79289C2.57215 2.98043 2.4668 3.23478 2.4668 3.5V5.167H22.4668V3.5C22.4668 3.23478 22.3614 2.98043 22.1739 2.79289C21.9864 2.60536 21.732 2.5 21.4668 2.5ZM3.6428 19.188C3.6428 19.8243 3.89552 20.4346 4.34539 20.8847C4.79526 21.3348 5.40545 21.5877 6.0418 21.588H10.4668V17.834C10.4668 17.5688 10.5722 17.3144 10.7597 17.1269C10.9472 16.9394 11.2016 16.834 11.4668 16.834H13.4668C13.732 16.834 13.9864 16.9394 14.1739 17.1269C14.3614 17.3144 14.4668 17.5688 14.4668 17.834V21.587H18.8918C19.5281 21.5867 20.1383 21.3338 20.5882 20.8837C21.0381 20.4336 21.2908 19.8233 21.2908 19.187V11H3.6428V19.188ZM2.4668 8.5C2.4668 8.76522 2.57215 9.01957 2.75969 9.20711C2.94723 9.39464 3.20158 9.5 3.4668 9.5H21.4668C21.732 9.5 21.9864 9.39464 22.1739 9.20711C22.3614 9.01957 22.4668 8.76522 22.4668 8.5V6.833H2.4668V8.5Z" fill="#8B95A1"/>
</svg>
