<svg width="25" height="24" viewBox="0 0 25 24" fill="none" xmlns="http://www.w3.org/2000/svg">
<path fill-rule="evenodd" clip-rule="evenodd" d="M20.2018 3.81198V1.70798C20.2011 1.61644 20.1759 1.52676 20.1288 1.44825C20.0817 1.36974 20.0145 1.30525 19.9341 1.26148C19.8537 1.21771 19.7631 1.19625 19.6716 1.19933C19.5801 1.2024 19.4911 1.22991 19.4138 1.27898C15.2168 3.90098 14.1368 10.171 13.8668 12.71C13.8525 12.8489 13.8676 12.9893 13.9111 13.122C13.9546 13.2548 14.0255 13.3769 14.1192 13.4804C14.2129 13.584 14.3274 13.6666 14.4552 13.7231C14.5829 13.7795 14.7211 13.8084 14.8608 13.808L17.4408 13.812L17.1628 21.878C17.1554 22.0821 17.1892 22.2856 17.2622 22.4764C17.3352 22.6671 17.4459 22.8412 17.5877 22.9882C17.7295 23.1353 17.8994 23.2522 18.0874 23.3321C18.2754 23.4119 18.4776 23.4531 18.6818 23.4531C18.8861 23.4531 19.0882 23.4119 19.2762 23.3321C19.4642 23.2522 19.6342 23.1353 19.7759 22.9882C19.9177 22.8412 20.0284 22.6671 20.1014 22.4764C20.1744 22.2856 20.2082 22.0821 20.2008 21.878V3.81198H20.2018ZM11.8548 1.01898C11.5896 1.01898 11.3352 1.12434 11.1477 1.31188C10.9602 1.49941 10.8548 1.75377 10.8548 2.01898V6.18198C10.8548 6.24398 10.8418 6.30198 10.8398 6.36298H9.05882V2.01898C9.05882 1.75377 8.95346 1.49941 8.76592 1.31188C8.57839 1.12434 8.32403 1.01898 8.05882 1.01898C7.7936 1.01898 7.53925 1.12434 7.35171 1.31188C7.16417 1.49941 7.05882 1.75377 7.05882 2.01898V6.36298H5.27782C5.27582 6.30198 5.26282 6.24398 5.26282 6.18198V2.01898C5.26282 1.75377 5.15746 1.49941 4.96992 1.31188C4.78239 1.12434 4.52803 1.01898 4.26282 1.01898C3.9976 1.01898 3.74325 1.12434 3.55571 1.31188C3.36817 1.49941 3.26282 1.75377 3.26282 2.01898V6.18198C3.26282 8.75298 4.83982 10.909 6.95182 11.479L6.53982 21.88C6.53461 22.0828 6.57007 22.2846 6.64409 22.4735C6.71811 22.6624 6.82921 22.8346 6.97082 22.9799C7.11243 23.1252 7.2817 23.2407 7.46865 23.3195C7.65559 23.3983 7.85643 23.439 8.05932 23.439C8.26221 23.439 8.46305 23.3983 8.64999 23.3195C8.83693 23.2407 9.0062 23.1252 9.14782 22.9799C9.28943 22.8346 9.40052 22.6624 9.47454 22.4735C9.54857 22.2846 9.58402 22.0828 9.57882 21.88L9.16682 11.479C11.2778 10.909 12.8548 8.75298 12.8548 6.18198V2.01898C12.8548 1.75377 12.7495 1.49941 12.5619 1.31188C12.3744 1.12434 12.12 1.01898 11.8548 1.01898Z" fill="#8B95A1"/>
</svg>
