<svg width="25" height="24" viewBox="0 0 25 24" fill="none" xmlns="http://www.w3.org/2000/svg">
<path fill-rule="evenodd" clip-rule="evenodd" d="M12.8018 5.45402L3.7398 14.516L2.5038 19.126L1.6908 22.163C1.66822 22.2479 1.66833 22.3372 1.69113 22.4219C1.71393 22.5067 1.75861 22.584 1.82069 22.6461C1.88277 22.7082 1.96008 22.7529 2.04487 22.7757C2.12966 22.7985 2.21896 22.7986 2.3038 22.776L5.3388 21.962L9.9498 20.726H9.9508L19.0128 11.664L12.8028 5.45402H12.8018ZM22.7598 6.50402L17.9638 1.70702C17.871 1.61407 17.7608 1.54034 17.6395 1.49003C17.5182 1.43971 17.3881 1.41382 17.2568 1.41382C17.1255 1.41382 16.9954 1.43971 16.8741 1.49003C16.7528 1.54034 16.6426 1.61407 16.5498 1.70702L14.0748 4.18102L20.2858 10.392L22.7598 7.91702C22.8527 7.82423 22.9265 7.71403 22.9768 7.59271C23.0271 7.4714 23.053 7.34135 23.053 7.21002C23.053 7.07869 23.0271 6.94864 22.9768 6.82733C22.9265 6.70601 22.8527 6.59581 22.7598 6.50302" stroke="#8B95A1" stroke-width="2"/>
</svg>
