<svg width="25" height="24" viewBox="0 0 25 24" fill="none" xmlns="http://www.w3.org/2000/svg">
<path d="M11.6768 15.4C11.8868 15.61 12.1768 15.72 12.4568 15.72C12.7368 15.72 13.0168 15.61 13.2368 15.4L18.4668 10.16C18.8968 9.72999 18.8968 9.02999 18.4668 8.59999C18.0368 8.16999 17.3368 8.16999 16.9068 8.59999L13.5568 11.95V2.77999C13.5568 2.16999 13.0668 1.67999 12.4568 1.67999C11.8468 1.67999 11.3568 2.16999 11.3568 2.77999V11.96L7.99676 8.60999C7.56676 8.17999 6.86676 8.17999 6.43676 8.60999C6.00676 9.03999 6.00676 9.73999 6.43676 10.17L11.6768 15.4Z" fill="#8B95A1"/>
<path d="M21.8468 13.09C21.2368 13.09 20.7468 13.58 20.7468 14.19V18.4C20.7468 19.12 20.1668 19.7 19.4468 19.7H5.4668C4.7468 19.7 4.1668 19.12 4.1668 18.4V14.19C4.1668 13.58 3.6768 13.09 3.0668 13.09C2.4568 13.09 1.9668 13.58 1.9668 14.19V18.4C1.9668 20.33 3.5368 21.9 5.4668 21.9H19.4468C21.3768 21.9 22.9468 20.33 22.9468 18.4V14.19C22.9468 13.58 22.4568 13.09 21.8468 13.09Z" fill="#8B95A1"/>
</svg>
