<svg width="25" height="24" viewBox="0 0 25 24" fill="none" xmlns="http://www.w3.org/2000/svg">
<path fill-rule="evenodd" clip-rule="evenodd" d="M18.6278 21.662H6.30481C4.37581 21.662 2.80481 20.092 2.80481 18.162V5.83899C2.80481 3.90899 4.37581 2.33899 6.30481 2.33899H9.34481C9.63655 2.33899 9.91634 2.45488 10.1226 2.66117C10.3289 2.86746 10.4448 3.14725 10.4448 3.43899C10.4448 3.73073 10.3289 4.01052 10.1226 4.21681C9.91634 4.4231 9.63655 4.53899 9.34481 4.53899H6.30481C5.58781 4.53899 5.00481 5.12199 5.00481 5.83899V18.162C5.00481 18.878 5.58781 19.462 6.30481 19.462H18.6278C19.3448 19.462 19.9278 18.878 19.9278 18.162V15.119C19.9278 14.8273 20.0437 14.5475 20.25 14.3412C20.4563 14.1349 20.7361 14.019 21.0278 14.019C21.3195 14.019 21.5993 14.1349 21.8056 14.3412C22.0119 14.5475 22.1278 14.8273 22.1278 15.119V18.162C22.1278 20.092 20.5578 21.662 18.6278 21.662Z" fill="#8B95A1"/>
<path fill-rule="evenodd" clip-rule="evenodd" d="M12.6578 12.909C12.4402 12.909 12.2274 12.8446 12.0465 12.7237C11.8655 12.6028 11.7245 12.431 11.6412 12.23C11.5579 12.0289 11.5361 11.8077 11.5786 11.5943C11.6211 11.3808 11.7259 11.1848 11.8798 11.031L20.2498 2.66097C20.3515 2.55665 20.4729 2.47357 20.6069 2.41654C20.7409 2.35951 20.885 2.32967 21.0307 2.32876C21.1763 2.32784 21.3207 2.35588 21.4555 2.41122C21.5902 2.46657 21.7126 2.54813 21.8156 2.65117C21.9186 2.75421 22.0001 2.87667 22.0553 3.01146C22.1106 3.14624 22.1385 3.29066 22.1375 3.43633C22.1365 3.582 22.1066 3.72602 22.0495 3.86003C21.9924 3.99404 21.9092 4.11537 21.8048 4.21697L13.4358 12.587C13.3339 12.6892 13.2128 12.7703 13.0794 12.8256C12.9461 12.8808 12.8031 12.9092 12.6588 12.909" fill="#8B95A1"/>
<path fill-rule="evenodd" clip-rule="evenodd" d="M21.0278 11.939C20.7361 11.939 20.4563 11.8231 20.25 11.6168C20.0437 11.4105 19.9278 11.1307 19.9278 10.839V4.53899H13.6278C13.3361 4.53899 13.0563 4.4231 12.85 4.21681C12.6437 4.01052 12.5278 3.73073 12.5278 3.43899C12.5278 3.14725 12.6437 2.86746 12.85 2.66117C13.0563 2.45488 13.3361 2.33899 13.6278 2.33899H21.0278C21.3196 2.33899 21.5994 2.45488 21.8056 2.66117C22.0119 2.86746 22.1278 3.14725 22.1278 3.43899V10.839C22.1278 11.1307 22.0119 11.4105 21.8056 11.6168C21.5994 11.8231 21.3196 11.939 21.0278 11.939Z" fill="#8B95A1"/>
</svg>
