<svg width="25" height="24" viewBox="0 0 25 24" fill="none" xmlns="http://www.w3.org/2000/svg">
<path fill-rule="evenodd" clip-rule="evenodd" d="M16.9837 2.15002L6.50174 7.53702H3.38774C2.81774 7.53702 2.35474 8.00002 2.35474 8.57002V15.43C2.35474 16 2.81774 16.463 3.38774 16.463H6.50174L16.9837 21.85C17.1362 21.9284 17.3063 21.9662 17.4776 21.9599C17.6489 21.9536 17.8157 21.9033 17.962 21.8139C18.1083 21.7246 18.2292 21.5991 18.313 21.4496C18.3968 21.3 18.4408 21.1315 18.4407 20.96V3.04002C18.4408 2.86859 18.3968 2.70002 18.313 2.55048C18.2292 2.40094 18.1083 2.27547 17.962 2.18611C17.8157 2.09674 17.6489 2.04649 17.4776 2.04017C17.3063 2.03385 17.1362 2.07168 16.9837 2.15002ZM21.7027 9.16702H19.7467V14.833H21.7017C22.4257 14.833 23.0117 14.246 23.0117 13.522V10.479C23.0117 9.75402 22.4257 9.16702 21.7017 9.16702" fill="#8B95A1"/>
</svg>
