<svg width="25" height="24" viewBox="0 0 25 24" fill="none" xmlns="http://www.w3.org/2000/svg">
<path fill-rule="evenodd" clip-rule="evenodd" d="M21.5358 8.20401L13.0888 1.48701C12.9121 1.34617 12.6928 1.26947 12.4668 1.26947C12.2408 1.26947 12.0215 1.34617 11.8448 1.48701L3.39678 8.20401C3.16134 8.39129 2.97117 8.62927 2.84045 8.90023C2.70973 9.1712 2.64182 9.46816 2.64178 9.76901V19.187C2.64178 19.8235 2.89464 20.434 3.34473 20.8841C3.79482 21.3342 4.40526 21.587 5.04178 21.587H10.4668V16.835C10.4668 16.5698 10.5721 16.3154 10.7597 16.1279C10.9472 15.9404 11.2016 15.835 11.4668 15.835H13.4668C13.732 15.835 13.9864 15.9404 14.1739 16.1279C14.3614 16.3154 14.4668 16.5698 14.4668 16.835V21.587H19.8908C20.5273 21.587 21.1378 21.3342 21.5878 20.8841C22.0379 20.434 22.2908 19.8235 22.2908 19.187V9.77001C22.2907 9.46916 22.2228 9.1722 22.0921 8.90123C21.9614 8.63027 21.7712 8.39229 21.5358 8.20501" fill="#8B95A1"/>
</svg>
