<svg width="25" height="24" viewBox="0 0 25 24" fill="none" xmlns="http://www.w3.org/2000/svg">
<path fill-rule="evenodd" clip-rule="evenodd" d="M22.5508 20.081C22.4538 19.523 21.9688 19.114 21.4008 19.114H20.8188V9.87898L20.8148 9.62798C20.6828 5.13098 16.9958 1.52698 12.4668 1.52698C7.8548 1.52698 4.1138 5.26598 4.1138 9.87998V19.115H3.5318C2.9648 19.115 2.4798 19.523 2.3818 20.082L1.9668 22.473H22.9668L22.5508 20.081ZM11.5668 7.21998C11.5668 6.72398 11.9698 6.31998 12.4668 6.31998C12.9648 6.31998 13.3668 6.72398 13.3668 7.21998V10.936C13.3668 11.434 12.9648 11.838 12.4668 11.838C11.9698 11.838 11.5668 11.434 11.5668 10.936V7.21998ZM12.4678 13.339C13.1198 13.339 13.6508 13.868 13.6508 14.522C13.6508 15.175 13.1208 15.705 12.4678 15.705C11.8128 15.705 11.2828 15.175 11.2828 14.522C11.2828 13.869 11.8128 13.339 12.4678 13.339Z" fill="#8B95A1"/>
</svg>
