<svg width="25" height="24" viewBox="0 0 25 24" fill="none" xmlns="http://www.w3.org/2000/svg">
<g clip-path="url(#clip0_239_434)">
<path fill-rule="evenodd" clip-rule="evenodd" d="M12.4668 0.612C11.2733 0.612 10.1287 1.08611 9.28482 1.93002C8.4409 2.77393 7.9668 3.91853 7.9668 5.112V11.315C7.9668 12.5085 8.4409 13.6531 9.28482 14.497C10.1287 15.3409 11.2733 15.815 12.4668 15.815C13.6603 15.815 14.8049 15.3409 15.6488 14.497C16.4927 13.6531 16.9668 12.5085 16.9668 11.315V5.112C16.9668 3.91853 16.4927 2.77393 15.6488 1.93002C14.8049 1.08611 13.6603 0.612 12.4668 0.612Z" fill="#8B95A1"/>
<path fill-rule="evenodd" clip-rule="evenodd" d="M21.0678 11.315C21.0678 11.0498 20.9625 10.7954 20.7749 10.6079C20.5874 10.4204 20.333 10.315 20.0678 10.315C19.8026 10.315 19.5483 10.4204 19.3607 10.6079C19.1732 10.7954 19.0678 11.0498 19.0678 11.315C19.066 13.0651 18.3699 14.743 17.1324 15.9806C15.8949 17.2181 14.2169 17.9142 12.4668 17.916C10.717 17.9139 9.03954 17.2179 7.80225 15.9806C6.56497 14.7433 5.86894 13.0658 5.86682 11.316C5.86682 11.0508 5.76146 10.7964 5.57393 10.6089C5.38639 10.4214 5.13204 10.316 4.86682 10.316C4.6016 10.316 4.34725 10.4214 4.15971 10.6089C3.97218 10.7964 3.86682 11.0508 3.86682 11.316C3.86682 15.719 7.19482 19.356 11.4668 19.853V23C11.4668 23.2652 11.5722 23.5196 11.7597 23.7071C11.9473 23.8946 12.2016 24 12.4668 24C12.732 24 12.9864 23.8946 13.1739 23.7071C13.3615 23.5196 13.4668 23.2652 13.4668 23V19.853C17.7398 19.355 21.0678 15.719 21.0678 11.315Z" fill="#8B95A1"/>
</g>
<defs>
<clipPath id="clip0_239_434">
<rect width="24" height="24" fill="white" transform="translate(0.466797)"/>
</clipPath>
</defs>
</svg>
