<svg width="25" height="24" viewBox="0 0 25 24" fill="none" xmlns="http://www.w3.org/2000/svg">
<path fill-rule="evenodd" clip-rule="evenodd" d="M17.6668 10.2L12.0668 15.8C11.8668 16 11.6668 16.1 11.3668 16.1C11.0668 16.1 10.8668 16 10.6668 15.8L7.2668 12.4C6.8668 12 6.8668 11.4 7.2668 11C7.6668 10.6 8.2668 10.6 8.6668 11L11.3668 13.7L16.2668 8.8C16.6668 8.4 17.2668 8.4 17.6668 8.8C18.0668 9.2 18.0668 9.8 17.6668 10.2Z" fill="#8B95A1"/>
<path d="M12.4668 3C17.4668 3 21.4668 7 21.4668 12C21.4668 17 17.4668 21 12.4668 21C7.4668 21 3.4668 17 3.4668 12C3.4668 7 7.4668 3 12.4668 3ZM12.4668 1C6.3668 1 1.4668 5.9 1.4668 12C1.4668 18.1 6.3668 23 12.4668 23C18.5668 23 23.4668 18.1 23.4668 12C23.4668 5.9 18.5668 1 12.4668 1Z" fill="#8B95A1"/>
</svg>
