<svg width="25" height="24" viewBox="0 0 25 24" fill="none" xmlns="http://www.w3.org/2000/svg">
<path fill-rule="evenodd" clip-rule="evenodd" d="M16.4698 10.668C16.2315 10.6736 15.9945 10.6314 15.7727 10.5441C15.5509 10.4567 15.3489 10.3259 15.1784 10.1593C15.0079 9.99272 14.8725 9.79372 14.78 9.57402C14.6875 9.35432 14.64 9.11835 14.64 8.87999C14.6401 8.64163 14.6878 8.40568 14.7804 8.18604C14.873 7.96639 15.0085 7.76747 15.1791 7.60097C15.3497 7.43448 15.5518 7.30377 15.7737 7.21653C15.9955 7.1293 16.2325 7.0873 16.4708 7.093C16.9375 7.10417 17.3814 7.29747 17.7075 7.63158C18.0337 7.96569 18.2161 8.4141 18.216 8.88099C18.2159 9.34787 18.0331 9.79619 17.7068 10.1301C17.3805 10.464 16.9366 10.6571 16.4698 10.668ZM14.7458 16.78H8.7218C8.50941 16.7803 8.30086 16.7233 8.11809 16.6152C7.93532 16.507 7.78508 16.3515 7.68316 16.1652C7.58124 15.9789 7.53142 15.7685 7.53892 15.5562C7.54642 15.344 7.61098 15.1377 7.7258 14.959L10.7388 10.264C10.8457 10.097 10.9929 9.95955 11.1669 9.86435C11.3409 9.76916 11.536 9.71926 11.7343 9.71926C11.9326 9.71926 12.1277 9.76916 12.3017 9.86435C12.4757 9.95955 12.6229 10.097 12.7298 10.264L15.7408 14.959C15.8556 15.1376 15.9201 15.3438 15.9277 15.556C15.9352 15.7682 15.8855 15.9785 15.7837 16.1648C15.6819 16.3511 15.5318 16.5065 15.3491 16.6148C15.1665 16.723 14.9581 16.7801 14.7458 16.78ZM19.7538 2.25H5.1798C4.52657 2.25 3.90009 2.50949 3.43819 2.9714C2.97629 3.4333 2.7168 4.05977 2.7168 4.713V19.287C2.7168 19.9402 2.97629 20.5667 3.43819 21.0286C3.90009 21.4905 4.52657 21.75 5.1798 21.75H19.7538C20.407 21.75 21.0335 21.4905 21.4954 21.0286C21.9573 20.5667 22.2168 19.9402 22.2168 19.287V4.713C22.2168 4.05977 21.9573 3.4333 21.4954 2.9714C21.0335 2.50949 20.407 2.25 19.7538 2.25Z" fill="#8B95A1"/>
</svg>
