<svg width="25" height="24" viewBox="0 0 25 24" fill="none" xmlns="http://www.w3.org/2000/svg">
<path fill-rule="evenodd" clip-rule="evenodd" d="M9.90183 4.482C9.90262 3.80197 10.1731 3.15001 10.654 2.66915C11.1348 2.18829 11.7868 1.9178 12.4668 1.917C13.147 1.9178 13.799 2.18826 14.28 2.66909C14.7611 3.14992 15.0318 3.80188 15.0328 4.482H9.90282H9.90183ZM21.9328 18.024L19.9728 5.33C19.9365 5.09397 19.817 4.87872 19.6357 4.72318C19.4545 4.56765 19.2236 4.4821 18.9848 4.482H16.8328C16.8315 3.32457 16.3711 2.21493 15.5525 1.39659C14.734 0.578254 13.6243 0.118063 12.4668 0.117004C11.3096 0.118328 10.2001 0.578635 9.38177 1.39694C8.56346 2.21525 8.10315 3.32474 8.10183 4.482H5.94983C5.71102 4.4821 5.48012 4.56765 5.29891 4.72318C5.11769 4.87872 4.99812 5.09397 4.96183 5.33L3.00183 18.024C2.93559 18.4517 2.9627 18.8886 3.08128 19.3048C3.19986 19.721 3.40712 20.1066 3.68881 20.4351C3.9705 20.7636 4.31995 21.0273 4.71317 21.208C5.10639 21.3887 5.53407 21.4822 5.96683 21.482H18.9688C19.4015 21.482 19.8291 21.3884 20.2223 21.2077C20.6154 21.0269 20.9648 20.7632 21.2464 20.4348C21.5281 20.1063 21.7354 19.7207 21.854 19.3046C21.9727 18.8885 21.9999 18.4516 21.9338 18.024H21.9328Z" fill="#8B95A1"/>
</svg>
