<svg width="25" height="24" viewBox="0 0 25 24" fill="none" xmlns="http://www.w3.org/2000/svg">
<path fill-rule="evenodd" clip-rule="evenodd" d="M21.7828 2.68402C20.6396 1.54344 19.0906 0.902893 17.4758 0.902893C15.8609 0.902893 14.312 1.54344 13.1688 2.68402L11.1158 4.73602C10.9218 4.94482 10.8163 5.2207 10.8215 5.50566C10.8268 5.79062 10.9423 6.06244 11.1438 6.26397C11.3454 6.4655 11.6172 6.58103 11.9021 6.58626C12.1871 6.5915 12.463 6.48602 12.6718 6.29202L14.7248 4.24002C15.455 3.51151 16.4443 3.10238 17.4758 3.10238C18.5072 3.10238 19.4966 3.51151 20.2268 4.24002C20.5893 4.60041 20.8767 5.02911 21.0724 5.50133C21.268 5.97354 21.3681 6.47988 21.3668 6.99102C21.3682 7.50218 21.2681 8.00853 21.0724 8.48075C20.8767 8.95297 20.5893 9.38167 20.2268 9.74202L16.6258 13.343C15.1568 14.813 12.5938 14.813 11.1238 13.343C10.8804 13.1005 10.6703 12.8267 10.4988 12.529C10.3534 12.276 10.1135 12.0911 9.83186 12.015C9.55018 11.9388 9.24979 11.9777 8.99677 12.123C8.74376 12.2684 8.55884 12.5083 8.4827 12.7899C8.40656 13.0716 8.44543 13.372 8.59077 13.625C8.85777 14.088 9.18577 14.517 9.56777 14.899C10.1322 15.4663 10.8034 15.916 11.5427 16.2222C12.2819 16.5284 13.0746 16.6851 13.8748 16.683C14.675 16.6852 15.4677 16.5286 16.2069 16.2224C16.9462 15.9162 17.6175 15.4664 18.1818 14.899L21.7828 11.299C22.3503 10.7344 22.8001 10.0628 23.1064 9.32321C23.4126 8.58357 23.5691 7.79054 23.5668 6.99002C23.5689 6.18983 23.4123 5.39715 23.1061 4.65786C22.7999 3.91856 22.3501 3.24734 21.7828 2.68302" fill="#8B95A1"/>
<path fill-rule="evenodd" clip-rule="evenodd" d="M12.2618 17.708L10.2088 19.761C9.47833 20.4891 8.48908 20.8979 7.45778 20.8979C6.42648 20.8979 5.43723 20.4891 4.70678 19.761C4.34451 19.4005 4.05725 18.9718 3.86159 18.4996C3.66592 18.0274 3.56572 17.5212 3.56678 17.01C3.56678 15.9711 3.97178 14.9941 4.70678 14.2601L8.30778 10.6581C8.73074 10.236 9.24514 9.91688 9.81117 9.72544C10.3772 9.534 10.9797 9.47536 11.572 9.55405C12.1643 9.63275 12.7306 9.84666 13.227 10.1793C13.7235 10.5118 14.1367 10.9542 14.4348 11.4721C14.5067 11.5973 14.6027 11.7072 14.7171 11.7954C14.8315 11.8836 14.9622 11.9484 15.1017 11.9861C15.2412 12.0238 15.3867 12.0337 15.53 12.0151C15.6733 11.9966 15.8115 11.95 15.9368 11.8781C16.0621 11.8061 16.1719 11.7102 16.2601 11.5957C16.3484 11.4813 16.4132 11.3506 16.4509 11.2111C16.4886 11.0717 16.4984 10.9261 16.4799 10.7828C16.4613 10.6396 16.4147 10.5013 16.3428 10.3761C15.8759 9.56571 15.2289 8.8736 14.4518 8.35323C13.6747 7.83285 12.7884 7.49815 11.8613 7.37501C10.9342 7.25186 9.99124 7.34356 9.10526 7.64303C8.21928 7.9425 7.41403 8.4417 6.75178 9.10205L3.15078 12.7031C2.58353 13.2674 2.1338 13.9387 1.82759 14.6779C1.52137 15.4172 1.36475 16.2099 1.36678 17.01C1.36678 18.637 2.00078 20.167 3.15078 21.317C3.71581 21.8832 4.38723 22.332 5.1264 22.6377C5.86558 22.9434 6.6579 23.0998 7.45778 23.098C9.01778 23.098 10.5768 22.5041 11.7648 21.3181L13.8178 19.265C14.0118 19.0563 14.1173 18.7804 14.112 18.4954C14.1068 18.2105 13.9913 17.9386 13.7897 17.7371C13.5882 17.5356 13.3164 17.42 13.0314 17.4148C12.7465 17.4096 12.4706 17.5151 12.2618 17.709" fill="#8B95A1"/>
</svg>
