<svg width="25" height="24" viewBox="0 0 25 24" fill="none" xmlns="http://www.w3.org/2000/svg">
<path fill-rule="evenodd" clip-rule="evenodd" d="M12.4588 17.892C10.2368 17.892 6.9588 17.58 6.9588 16.408C6.9588 15.236 8.4988 12.716 12.4588 12.716C16.4188 12.716 17.9588 15.236 17.9588 16.408C17.9588 17.58 14.6808 17.892 12.4588 17.892ZM12.4588 6.116C13.1881 6.116 13.8876 6.40573 14.4033 6.92146C14.9191 7.43718 15.2088 8.13665 15.2088 8.866C15.2088 9.59535 14.9191 10.2948 14.4033 10.8105C13.8876 11.3263 13.1881 11.616 12.4588 11.616C11.7295 11.616 11.03 11.3263 10.5143 10.8105C9.99853 10.2948 9.7088 9.59535 9.7088 8.866C9.7088 8.13665 9.99853 7.43718 10.5143 6.92146C11.03 6.40573 11.7295 6.116 12.4588 6.116ZM19.9668 2.5H4.9668C4.43636 2.5 3.92766 2.71071 3.55258 3.08579C3.17751 3.46086 2.9668 3.96957 2.9668 4.5V19.5C2.9668 20.0304 3.17751 20.5391 3.55258 20.9142C3.92766 21.2893 4.43636 21.5 4.9668 21.5H19.9668C20.4972 21.5 21.0059 21.2893 21.381 20.9142C21.7561 20.5391 21.9668 20.0304 21.9668 19.5V4.5C21.9668 3.96957 21.7561 3.46086 21.381 3.08579C21.0059 2.71071 20.4972 2.5 19.9668 2.5Z" fill="#8B95A1"/>
</svg>
