<svg width="25" height="24" viewBox="0 0 25 24" fill="none" xmlns="http://www.w3.org/2000/svg">
<path fill-rule="evenodd" clip-rule="evenodd" d="M12.4668 17.439C9.8028 17.439 7.5798 15.878 7.0718 13.804C6.9578 13.336 7.4088 12.902 7.9888 12.902H16.9448C17.5248 12.902 17.9758 13.336 17.8618 13.804C17.3538 15.878 15.1308 17.439 12.4668 17.439ZM9.7528 7.57498C10.1453 7.57472 10.5219 7.73039 10.7996 8.00776C11.0773 8.28512 11.2335 8.66146 11.2338 9.05398C11.2341 9.4465 11.0784 9.82305 10.801 10.1008C10.5237 10.3785 10.1473 10.5347 9.7548 10.535C9.56044 10.5351 9.36796 10.497 9.18835 10.4227C9.00874 10.3484 8.84551 10.2395 8.70799 10.1022C8.43024 9.82484 8.27406 9.4485 8.2738 9.05598C8.27353 8.66346 8.42921 8.28691 8.70657 8.00917C8.98394 7.73143 9.36028 7.57525 9.7528 7.57498ZM15.3878 7.57498C15.5866 7.56754 15.7848 7.60024 15.9707 7.67115C16.1566 7.74206 16.3262 7.84971 16.4696 7.98768C16.6129 8.12564 16.7269 8.29108 16.8049 8.47411C16.8828 8.65714 16.923 8.85401 16.9232 9.05294C16.9233 9.25188 16.8833 9.4488 16.8057 9.63194C16.728 9.81507 16.6142 9.98067 16.471 10.1188C16.3279 10.257 16.1584 10.3649 15.9726 10.436C15.7868 10.5072 15.5886 10.5402 15.3898 10.533C15.0069 10.5192 14.6444 10.3574 14.3783 10.0818C14.1122 9.80613 13.9634 9.43805 13.9632 9.05494C13.9629 8.67184 14.1112 8.30356 14.3769 8.02755C14.6426 7.75155 15.005 7.58932 15.3878 7.57498ZM12.4668 0.97998C6.3918 0.97998 1.4668 5.90398 1.4668 11.98C1.4668 18.055 6.3918 22.98 12.4668 22.98C18.5418 22.98 23.4668 18.055 23.4668 11.98C23.4668 5.90398 18.5418 0.97998 12.4668 0.97998Z" fill="#8B95A1"/>
</svg>
