<svg width="25" height="24" viewBox="0 0 25 24" fill="none" xmlns="http://www.w3.org/2000/svg">
<path fill-rule="evenodd" clip-rule="evenodd" d="M22.8268 20.84L19.3898 16.03C19.1059 15.6358 18.6942 15.3521 18.2248 15.227L18.1708 15.292C17.2758 16.352 16.1378 17.542 14.5878 19.04C14.0193 19.59 13.2588 19.8967 12.4678 19.895C11.6772 19.8972 10.9169 19.5908 10.3488 19.041C8.76679 17.511 7.61079 16.298 6.70879 15.224C6.23517 15.347 5.81949 15.6317 5.53379 16.029L2.09679 20.84C1.98471 20.997 1.91806 21.1819 1.90416 21.3743C1.89025 21.5667 1.92963 21.7593 2.01797 21.9308C2.10631 22.1023 2.24019 22.2462 2.40493 22.3466C2.56966 22.447 2.75887 22.5001 2.95179 22.5H21.9718C22.8258 22.5 23.3218 21.535 22.8258 20.84" fill="#8B95A1"/>
<path fill-rule="evenodd" clip-rule="evenodd" d="M12.4668 6.30201C12.7331 6.29592 12.998 6.34311 13.2459 6.44079C13.4937 6.53848 13.7196 6.68469 13.9101 6.87086C14.1007 7.05702 14.2521 7.27938 14.3556 7.52489C14.459 7.77039 14.5124 8.03408 14.5125 8.30049C14.5126 8.56689 14.4596 8.83064 14.3564 9.07625C14.2532 9.32185 14.1019 9.54437 13.9115 9.73072C13.7212 9.91708 13.4955 10.0635 13.2477 10.1615C13 10.2594 12.7352 10.3068 12.4688 10.301C11.9384 10.3011 11.4296 10.0906 11.0544 9.71558C10.6793 9.3406 10.4684 8.83194 10.4683 8.30151C10.4682 7.77108 10.6788 7.26232 11.0537 6.88715C11.4287 6.51198 11.9374 6.30114 12.4678 6.30101M11.7398 17.603C11.9361 17.7908 12.1974 17.8955 12.469 17.8953C12.7407 17.8951 13.0017 17.79 13.1978 17.602C17.8158 13.14 19.2698 10.902 19.2698 8.30201C19.2698 3.89801 15.0828 0.471012 10.4728 1.78401C7.56281 2.61401 5.66681 5.27601 5.66681 8.30201C5.66681 10.904 7.12181 13.141 11.7398 17.602" fill="#8B95A1"/>
</svg>
