<svg width="25" height="24" viewBox="0 0 25 24" fill="none" xmlns="http://www.w3.org/2000/svg">
<path fill-rule="evenodd" clip-rule="evenodd" d="M12.4668 18.5C8.3458 18.5 4.8638 17.395 2.8438 15.654C2.6048 16.083 2.4668 16.533 2.4668 17C2.4668 19.762 6.9448 22 12.4668 22C17.9888 22 22.4668 19.762 22.4668 17C22.4668 16.533 22.3288 16.083 22.0898 15.654C20.0708 17.395 16.5878 18.5 12.4668 18.5Z" fill="#8B95A1"/>
<path fill-rule="evenodd" clip-rule="evenodd" d="M12.4668 13.5C8.3458 13.5 4.8638 12.395 2.8438 10.654C2.6048 11.083 2.4668 11.533 2.4668 12C2.4668 14.762 6.9448 17 12.4668 17C17.9888 17 22.4668 14.762 22.4668 12C22.4668 11.533 22.3288 11.083 22.0898 10.654C20.0708 12.395 16.5878 13.5 12.4668 13.5Z" fill="#8B95A1"/>
<path fill-rule="evenodd" clip-rule="evenodd" d="M12.4668 12C17.9888 12 22.4668 9.762 22.4668 7C22.4668 4.239 17.9888 2 12.4668 2C6.9448 2 2.4668 4.239 2.4668 7C2.4668 9.762 6.9448 12 12.4668 12Z" fill="#8B95A1"/>
</svg>
