<svg width="25" height="24" viewBox="0 0 25 24" fill="none" xmlns="http://www.w3.org/2000/svg">
<path fill-rule="evenodd" clip-rule="evenodd" d="M5.79182 7.32501C6.26921 7.32501 6.72705 7.51465 7.06461 7.85222C7.40218 8.18979 7.59182 8.64762 7.59182 9.12501C7.59182 9.6024 7.40218 10.0602 7.06461 10.3978C6.72705 10.7354 6.26921 10.925 5.79182 10.925C5.31443 10.925 4.85659 10.7354 4.51903 10.3978C4.18146 10.0602 3.99182 9.6024 3.99182 9.12501C3.99182 8.64762 4.18146 8.18979 4.51903 7.85222C4.85659 7.51465 5.31443 7.32501 5.79182 7.32501ZM12.5918 10.925C11.5918 10.925 10.7918 10.125 10.7918 9.12501C10.7918 8.12501 11.5918 7.32501 12.5918 7.32501C13.5918 7.32501 14.3918 8.12501 14.3918 9.12501C14.3918 10.125 13.5918 10.925 12.5918 10.925ZM19.3918 10.925C18.3918 10.925 17.5918 10.125 17.5918 9.12501C17.5918 8.12501 18.3918 7.32501 19.3918 7.32501C20.3918 7.32501 21.1918 8.12501 21.1918 9.12501C21.1918 10.125 20.3918 10.925 19.3918 10.925ZM5.79182 13.325C6.26921 13.325 6.72705 13.5147 7.06461 13.8522C7.40218 14.1898 7.59182 14.6476 7.59182 15.125C7.59182 15.6024 7.40218 16.0602 7.06461 16.3978C6.72705 16.7354 6.26921 16.925 5.79182 16.925C5.31443 16.925 4.85659 16.7354 4.51903 16.3978C4.18146 16.0602 3.99182 15.6024 3.99182 15.125C3.99182 14.6476 4.18146 14.1898 4.51903 13.8522C4.85659 13.5147 5.31443 13.325 5.79182 13.325ZM12.5918 16.925C11.5918 16.925 10.7918 16.125 10.7918 15.125C10.7918 14.125 11.5918 13.325 12.5918 13.325C13.5918 13.325 14.3918 14.125 14.3918 15.125C14.3918 16.125 13.5918 16.925 12.5918 16.925ZM19.3918 16.925C18.3918 16.925 17.5918 16.125 17.5918 15.125C17.5918 14.125 18.3918 13.325 19.3918 13.325C20.3918 13.325 21.1918 14.125 21.1918 15.125C21.1918 16.125 20.3918 16.925 19.3918 16.925Z" fill="#8B95A1"/>
</svg>
