<svg width="25" height="24" viewBox="0 0 25 24" fill="none" xmlns="http://www.w3.org/2000/svg">
<path fill-rule="evenodd" clip-rule="evenodd" d="M23.7218 14.251C23.7218 11.99 22.1618 10.102 20.0668 9.56399V8.89999C20.0668 4.70899 16.6578 1.29999 12.4668 1.29999C8.27679 1.29999 4.86779 4.70899 4.86779 8.89999V9.56399C2.77179 10.102 1.21179 11.99 1.21179 14.251C1.21312 15.5384 1.72519 16.7727 2.6356 17.6829C3.54602 18.5931 4.7804 19.1049 6.06779 19.106C6.38605 19.106 6.69128 18.9796 6.91632 18.7545C7.14136 18.5295 7.26779 18.2242 7.26779 17.906V8.89999C7.26779 6.03299 9.59979 3.69999 12.4668 3.69999C15.3338 3.69999 17.6668 6.03299 17.6668 8.89999V17.409L15.1268 19.949C15.0156 20.0606 14.8834 20.1491 14.7379 20.2093C14.5923 20.2695 14.4363 20.3004 14.2788 20.3H12.3558C12.0375 20.3 11.7323 20.4264 11.5073 20.6515C11.2822 20.8765 11.1558 21.1817 11.1558 21.5C11.1558 21.8182 11.2822 22.1235 11.5073 22.3485C11.7323 22.5736 12.0375 22.7 12.3558 22.7H14.2788C15.2408 22.7 16.1448 22.326 16.8248 21.646L19.4198 19.05C21.8338 18.772 23.7218 16.739 23.7218 14.251Z" fill="#8B95A1"/>
</svg>
