<svg width="25" height="24" viewBox="0 0 25 24" fill="none" xmlns="http://www.w3.org/2000/svg">
<path fill-rule="evenodd" clip-rule="evenodd" d="M20.4495 4.61188C20.3385 4.34288 20.1235 4.12888 19.8545 4.01688C19.7205 3.96188 19.5775 3.93188 19.4345 3.93188H11.3635C10.7565 3.93188 10.2635 4.42488 10.2635 5.03288C10.2635 5.63988 10.7565 6.13288 11.3635 6.13288H16.7785L6.59948 16.3119V10.8969C6.59948 10.2889 6.10648 9.79688 5.49948 9.79688C4.89148 9.79688 4.39948 10.2889 4.39948 10.8969V18.9679C4.39948 19.1109 4.42848 19.2539 4.48448 19.3879C4.59548 19.6569 4.80948 19.8709 5.07848 19.9829C5.21348 20.0379 5.35548 20.0679 5.49948 20.0679H13.5705C14.1775 20.0679 14.6705 19.5749 14.6705 18.9679C14.6705 18.3599 14.1775 17.8669 13.5705 17.8669H8.15548L18.3345 7.68788V13.1029C18.3345 13.7109 18.8265 14.2029 19.4345 14.2029C20.0415 14.2029 20.5345 13.7109 20.5345 13.1029V5.03288C20.5345 4.88888 20.5055 4.74688 20.4495 4.61188Z" fill="#8B95A1"/>
</svg>
