<svg width="25" height="24" viewBox="0 0 25 24" fill="none" xmlns="http://www.w3.org/2000/svg">
<path d="M12.4668 1C6.3668 1 1.4668 5.9 1.4668 12C1.4668 18.1 6.3668 23 12.4668 23C18.5668 23 23.4668 18.1 23.4668 12C23.4668 5.9 18.5668 1 12.4668 1ZM16.9668 13H10.3668L12.6668 15.3C13.0668 15.7 13.0668 16.3 12.6668 16.7C12.4668 16.9 12.1668 17 11.9668 17C11.7668 17 11.4668 16.9 11.2668 16.7L7.2668 12.7C6.8668 12.3 6.8668 11.7 7.2668 11.3L11.2668 7.3C11.6668 6.9 12.2668 6.9 12.6668 7.3C13.0668 7.7 13.0668 8.3 12.6668 8.7L10.3668 11H16.9668C17.5668 11 17.9668 11.4 17.9668 12C17.9668 12.6 17.4668 13 16.9668 13Z" fill="#8B95A1"/>
</svg>
