<svg width="25" height="24" viewBox="0 0 25 24" fill="none" xmlns="http://www.w3.org/2000/svg">
<g clip-path="url(#clip0_239_454)">
<path fill-rule="evenodd" clip-rule="evenodd" d="M4.65877 20.792C4.65877 21.0572 4.76413 21.3115 4.95167 21.4991C5.1392 21.6866 5.39356 21.792 5.65877 21.792H19.2758C19.541 21.792 19.7953 21.6866 19.9829 21.4991C20.1704 21.3115 20.2758 21.0572 20.2758 20.792V19.542H4.65877V20.792ZM20.4288 9.44598L16.5788 11.436L13.3448 6.46098C13.2497 6.31467 13.1196 6.19443 12.9663 6.11119C12.813 6.02795 12.6412 5.98435 12.4668 5.98435C12.2923 5.98435 12.1206 6.02795 11.9673 6.11119C11.8139 6.19443 11.6838 6.31467 11.5888 6.46098L8.35477 11.436L4.50477 9.44598C4.32933 9.35544 4.13189 9.31631 3.93518 9.33308C3.73847 9.34984 3.55049 9.42183 3.39291 9.54076C3.23532 9.65968 3.11453 9.82069 3.04445 10.0053C2.97436 10.1898 2.95784 10.3904 2.99677 10.584L4.50677 18.042H20.4268L21.9368 10.584C22.1118 9.72198 21.2098 9.04198 20.4288 9.44598ZM12.4668 5.14098C12.8832 5.14098 13.2825 4.97557 13.5769 4.68113C13.8714 4.3867 14.0368 3.98737 14.0368 3.57098C14.0368 3.15459 13.8714 2.75525 13.5769 2.46082C13.2825 2.16639 12.8832 2.00098 12.4668 2.00098C12.0504 2.00098 11.651 2.16639 11.3566 2.46082C11.0622 2.75525 10.8968 3.15459 10.8968 3.57098C10.8968 3.98737 11.0622 4.3867 11.3566 4.68113C11.651 4.97557 12.0504 5.14098 12.4668 5.14098ZM22.8968 5.98498C22.4804 5.98498 22.081 6.15039 21.7866 6.44482C21.4922 6.73925 21.3268 7.13859 21.3268 7.55498C21.3268 7.97137 21.4922 8.3707 21.7866 8.66513C22.081 8.95957 22.4804 9.12498 22.8968 9.12498C23.3132 9.12498 23.7125 8.95957 24.0069 8.66513C24.3014 8.3707 24.4668 7.97137 24.4668 7.55498C24.4668 7.13859 24.3014 6.73925 24.0069 6.44482C23.7125 6.15039 23.3132 5.98498 22.8968 5.98498ZM3.60777 7.55498C3.60777 7.13859 3.44236 6.73925 3.14793 6.44482C2.8535 6.15039 2.45416 5.98498 2.03777 5.98498C1.62138 5.98498 1.22205 6.15039 0.927616 6.44482C0.633184 6.73925 0.467773 7.13859 0.467773 7.55498C0.467773 7.97137 0.633184 8.3707 0.927616 8.66513C1.22205 8.95957 1.62138 9.12498 2.03777 9.12498C2.45416 9.12498 2.8535 8.95957 3.14793 8.66513C3.44236 8.3707 3.60777 7.97137 3.60777 7.55498Z" fill="#8B95A1"/>
</g>
<defs>
<clipPath id="clip0_239_454">
<rect width="24" height="24" fill="white" transform="translate(0.466797)"/>
</clipPath>
</defs>
</svg>
