<svg width="25" height="24" viewBox="0 0 25 24" fill="none" xmlns="http://www.w3.org/2000/svg">
<path fill-rule="evenodd" clip-rule="evenodd" d="M7.99978 9.21103L11.3538 5.85603V15.037C11.3538 15.3289 11.4697 15.6088 11.6761 15.8152C11.8825 16.0216 12.1624 16.1375 12.4543 16.1375C12.7461 16.1375 13.0261 16.0216 13.2324 15.8152C13.4388 15.6088 13.5548 15.3289 13.5548 15.037V5.85703L16.9098 9.21103C17.0116 9.31368 17.1327 9.39515 17.2661 9.45075C17.3996 9.50635 17.5427 9.53498 17.6873 9.53498C17.8318 9.53498 17.975 9.50635 18.1084 9.45075C18.2419 9.39515 18.363 9.31368 18.4648 9.21103C18.567 9.10888 18.6481 8.98759 18.7034 8.8541C18.7587 8.72061 18.7871 8.57752 18.7871 8.43303C18.7871 8.28853 18.7587 8.14545 18.7034 8.01196C18.6481 7.87846 18.567 7.75718 18.4648 7.65503L13.2318 2.42203C13.025 2.2169 12.7455 2.10181 12.4543 2.10181C12.163 2.10181 11.8836 2.2169 11.6768 2.42203L6.44378 7.65503C6.24978 7.86382 6.14431 8.1397 6.14954 8.42466C6.15477 8.70962 6.2703 8.98145 6.47183 9.18298C6.67336 9.38451 6.94519 9.50004 7.23014 9.50527C7.5151 9.5105 7.79099 9.40503 7.99978 9.21103Z" fill="#8B95A1"/>
<path fill-rule="evenodd" clip-rule="evenodd" d="M20.8478 13.093C20.2408 13.093 19.7468 13.586 19.7468 14.193V18.4C19.7468 19.117 19.1638 19.7 18.4478 19.7H6.46277C5.74577 19.7 5.16277 19.117 5.16277 18.4V14.192C5.16277 13.9003 5.04688 13.6205 4.84059 13.4142C4.6343 13.2079 4.35451 13.092 4.06277 13.092C3.77103 13.092 3.49124 13.2079 3.28495 13.4142C3.07866 13.6205 2.96277 13.9003 2.96277 14.192V18.4C2.96277 20.33 4.53277 21.9 6.46277 21.9H18.4478C20.3768 21.9 21.9478 20.33 21.9478 18.4V14.192C21.9478 13.9003 21.8319 13.6205 21.6256 13.4142C21.4193 13.2079 21.1395 13.092 20.8478 13.092" fill="#8B95A1"/>
</svg>
