<svg width="25" height="24" viewBox="0 0 25 24" fill="none" xmlns="http://www.w3.org/2000/svg">
<path fill-rule="evenodd" clip-rule="evenodd" d="M13.1928 0.76598L20.6678 8.65598C20.7351 8.72693 20.7801 8.81605 20.7972 8.9123C20.8143 9.00855 20.8029 9.10772 20.7643 9.19753C20.7256 9.28734 20.6615 9.36386 20.5799 9.41762C20.4982 9.47137 20.4026 9.50001 20.3048 9.49998H4.62881C4.53104 9.50001 4.43541 9.47137 4.35375 9.41762C4.27208 9.36386 4.20797 9.28734 4.16934 9.19753C4.13072 9.10772 4.11927 9.00855 4.13641 8.9123C4.15356 8.81605 4.19854 8.72693 4.26581 8.65598L11.7408 0.76598C11.8343 0.667329 11.9468 0.588758 12.0716 0.535063C12.1965 0.481367 12.3309 0.453674 12.4668 0.453674C12.6027 0.453674 12.7371 0.481367 12.862 0.535063C12.9868 0.588758 13.0994 0.667329 13.1928 0.76598ZM13.1928 23.234L20.6678 15.344C20.7351 15.273 20.7801 15.1839 20.7972 15.0877C20.8143 14.9914 20.8029 14.8922 20.7643 14.8024C20.7256 14.7126 20.6615 14.6361 20.5799 14.5823C20.4982 14.5286 20.4026 14.5 20.3048 14.5H4.62881C4.53104 14.5 4.43541 14.5286 4.35375 14.5823C4.27208 14.6361 4.20797 14.7126 4.16934 14.8024C4.13072 14.8922 4.11927 14.9914 4.13641 15.0877C4.15356 15.1839 4.19854 15.273 4.26581 15.344L11.7408 23.234C11.8343 23.3326 11.9468 23.4112 12.0716 23.4649C12.1965 23.5186 12.3309 23.5463 12.4668 23.5463C12.6027 23.5463 12.7371 23.5186 12.862 23.4649C12.9868 23.4112 13.0994 23.3326 13.1928 23.234Z" fill="#8B95A1"/>
</svg>
