<svg width="25" height="24" viewBox="0 0 25 24" fill="none" xmlns="http://www.w3.org/2000/svg">
<path fill-rule="evenodd" clip-rule="evenodd" d="M13.6208 1.92702L15.9478 6.64202C16.1348 7.02102 16.4968 7.28402 16.9158 7.34502L22.1188 8.10102C23.1728 8.25402 23.5948 9.55102 22.8308 10.294L19.0658 13.964C18.9166 14.1096 18.8049 14.2892 18.7405 14.4874C18.676 14.6856 18.6607 14.8966 18.6958 15.102L19.5848 20.284C19.7648 21.335 18.6628 22.135 17.7198 21.64L13.0658 19.193C12.8814 19.096 12.6762 19.0453 12.4678 19.0453C12.2594 19.0453 12.0542 19.096 11.8698 19.193L7.21579 21.64C6.27179 22.135 5.16979 21.335 5.34979 20.284L6.23879 15.102C6.27379 14.8966 6.25841 14.6857 6.19397 14.4874C6.12952 14.2892 6.01793 14.1096 5.86879 13.964L2.10379 10.294C1.34079 9.55102 1.76179 8.25402 2.81679 8.10102L8.01879 7.34502C8.43779 7.28402 8.80079 7.02102 8.98779 6.64202L11.3138 1.92702C11.7858 0.971022 13.1488 0.971022 13.6208 1.92702Z" fill="#8B95A1"/>
</svg>
