<svg width="25" height="24" viewBox="0 0 25 24" fill="none" xmlns="http://www.w3.org/2000/svg">
<path d="M22.3158 20.151L17.7088 15.544C18.7938 14.106 19.4448 12.324 19.4448 10.388C19.4448 5.65201 15.5908 1.79901 10.8558 1.79901C6.11978 1.80001 2.26678 5.65301 2.26678 10.389C2.26678 15.124 6.11978 18.978 10.8558 18.978C12.7908 18.978 14.5738 18.327 16.0118 17.242L20.6188 21.849C20.8528 22.083 21.1598 22.2 21.4668 22.2C21.7738 22.2 22.0808 22.083 22.3158 21.848C22.7838 21.38 22.7838 20.62 22.3158 20.151ZM4.66678 10.389C4.66678 6.97601 7.44278 4.20001 10.8558 4.20001C14.2678 4.20001 17.0438 6.97601 17.0438 10.388C17.0438 13.8 14.2678 16.576 10.8558 16.576C7.44278 16.577 4.66678 13.801 4.66678 10.389Z" fill="#8B95A1"/>
</svg>
