<svg width="25" height="24" viewBox="0 0 25 24" fill="none" xmlns="http://www.w3.org/2000/svg">
<path fill-rule="evenodd" clip-rule="evenodd" d="M7.56577 14.401H9.36577V12.601H7.56577V14.401ZM7.56577 10.65H9.36577V8.85H7.56577V10.65ZM7.56577 6.9H9.36577V5.1H7.56577V6.9ZM11.5668 14.401H13.3668V12.601H11.5668V14.401ZM11.5668 10.65H13.3668V8.85H11.5668V10.65ZM11.5668 6.9H13.3668V5.1H11.5668V6.9ZM15.5688 14.401H17.3688V12.601H15.5688V14.401ZM15.5688 10.65H17.3688V8.85H15.5688V10.65ZM15.5688 6.9H17.3688V5.1H15.5688V6.9ZM19.9698 1.5H4.96377C4.83236 1.49987 4.70222 1.52564 4.58078 1.57583C4.45934 1.62603 4.34898 1.69967 4.25602 1.79254C4.16305 1.88541 4.0893 1.9957 4.03898 2.11709C3.98867 2.23848 3.96277 2.36859 3.96277 2.5V21.388C3.96277 21.7063 4.0892 22.0115 4.31424 22.2365C4.53928 22.4616 4.84451 22.588 5.16277 22.588H10.4668V18.835C10.4668 18.5698 10.5721 18.3154 10.7597 18.1279C10.9472 17.9404 11.2016 17.835 11.4668 17.835H13.4668C13.732 17.835 13.9863 17.9404 14.1739 18.1279C14.3614 18.3154 14.4668 18.5698 14.4668 18.835V22.588H19.7698C20.088 22.588 20.3933 22.4616 20.6183 22.2365C20.8433 22.0115 20.9698 21.7063 20.9698 21.388V2.5C20.9698 2.23478 20.8644 1.98043 20.6769 1.79289C20.4893 1.60536 20.235 1.5 19.9698 1.5Z" fill="#8B95A1"/>
</svg>
