<svg width="25" height="24" viewBox="0 0 25 24" fill="none" xmlns="http://www.w3.org/2000/svg">
<path fill-rule="evenodd" clip-rule="evenodd" d="M17.6738 10.415L12.0898 15.999C11.9023 16.1865 11.6479 16.2918 11.3828 16.2918C11.1176 16.2918 10.8633 16.1865 10.6758 15.999L7.25978 12.582C7.16694 12.4891 7.09329 12.3789 7.04305 12.2576C6.9928 12.1363 6.96694 12.0063 6.96694 11.875C6.96694 11.7437 6.9928 11.6137 7.04305 11.4924C7.09329 11.3711 7.16694 11.2608 7.25978 11.168C7.35263 11.0751 7.46285 11.0015 7.58416 10.9512C7.70547 10.901 7.83548 10.8751 7.96678 10.8751C8.09809 10.8751 8.2281 10.901 8.34941 10.9512C8.47072 11.0015 8.58094 11.0751 8.67378 11.168L11.3828 13.877L16.2598 9.00099C16.3526 8.90814 16.4629 8.83449 16.5842 8.78425C16.7055 8.734 16.8355 8.70814 16.9668 8.70814C17.0981 8.70814 17.2281 8.734 17.3494 8.78425C17.4707 8.83449 17.5809 8.90814 17.6738 9.00099C17.7666 9.09383 17.8403 9.20405 17.8905 9.32536C17.9408 9.44667 17.9666 9.57669 17.9666 9.70799C17.9666 9.83929 17.9408 9.96931 17.8905 10.0906C17.8403 10.2119 17.7666 10.3221 17.6738 10.415ZM20.1668 2.79999H18.5368V1.79999C18.5368 1.53477 18.4314 1.28042 18.2439 1.09288C18.0564 0.905345 17.802 0.799988 17.5368 0.799988C17.2716 0.799988 17.0172 0.905345 16.8297 1.09288C16.6421 1.28042 16.5368 1.53477 16.5368 1.79999V2.79999H8.39678V1.79999C8.39678 1.53477 8.29143 1.28042 8.10389 1.09288C7.91636 0.905345 7.662 0.799988 7.39678 0.799988C7.13157 0.799988 6.87721 0.905345 6.68968 1.09288C6.50214 1.28042 6.39678 1.53477 6.39678 1.79999V2.79999H4.76678C4.23635 2.79999 3.72764 3.0107 3.35257 3.38577C2.9775 3.76085 2.76678 4.26955 2.76678 4.79999V20.2C2.76678 20.7304 2.9775 21.2391 3.35257 21.6142C3.72764 21.9893 4.23635 22.2 4.76678 22.2H20.1668C20.6972 22.2 21.2059 21.9893 21.581 21.6142C21.9561 21.2391 22.1668 20.7304 22.1668 20.2V4.79999C22.1668 4.26955 21.9561 3.76085 21.581 3.38577C21.2059 3.0107 20.6972 2.79999 20.1668 2.79999Z" fill="#8B95A1"/>
</svg>
