<svg width="25" height="24" viewBox="0 0 25 24" fill="none" xmlns="http://www.w3.org/2000/svg">
<path fill-rule="evenodd" clip-rule="evenodd" d="M13.8238 8.71497H11.4488V12.109H13.8238C14.7598 12.109 15.5208 11.349 15.5208 10.412C15.5208 9.47597 14.7608 8.71497 13.8238 8.71497Z" fill="#8B95A1"/>
<path fill-rule="evenodd" clip-rule="evenodd" d="M13.8238 14.146H11.4488V16.861C11.4346 17.1216 11.3212 17.3668 11.1317 17.5462C10.9423 17.7257 10.6912 17.8257 10.4303 17.8257C10.1693 17.8257 9.91831 17.7257 9.72886 17.5462C9.5394 17.3668 9.42593 17.1216 9.41178 16.861V6.67799H13.8238C14.8139 6.67905 15.763 7.07296 16.463 7.77324C17.1629 8.47351 17.5563 9.42291 17.5568 10.413C17.5557 11.4027 17.1621 12.3516 16.4622 13.0514C15.7624 13.7513 14.8135 14.1449 13.8238 14.146ZM12.4668 0.799988C6.28078 0.799988 1.26678 5.81499 1.26678 12C1.26678 18.186 6.28078 23.2 12.4668 23.2C18.6518 23.2 23.6668 18.186 23.6668 12C23.6668 5.81499 18.6518 0.799988 12.4668 0.799988Z" fill="#8B95A1"/>
</svg>
