<svg width="25" height="24" viewBox="0 0 25 24" fill="none" xmlns="http://www.w3.org/2000/svg">
<path fill-rule="evenodd" clip-rule="evenodd" d="M19.5668 8.29999H17.9668V10.7H19.5668C20.2668 10.7 20.7668 11.2 20.7668 11.9V19.1C20.7668 19.8 20.2668 20.3 19.5668 20.3H12.3668C11.6668 20.3 11.1668 19.8 11.1668 19.1V17.7H8.76685V19.1C8.76685 21.1 10.3668 22.7 12.3668 22.7H19.5668C21.5668 22.7 23.1668 21.1 23.1668 19.1V11.9C23.1668 9.89999 21.5668 8.29999 19.5668 8.29999Z" fill="#8B95A1"/>
<path fill-rule="evenodd" clip-rule="evenodd" d="M5.36685 3.69999C4.66685 3.69999 4.16685 4.19999 4.16685 4.89999V12.1C4.16685 12.8 4.66685 13.3 5.36685 13.3H12.5668C13.2668 13.3 13.7668 12.8 13.7668 12.1V4.89999C13.7668 4.19999 13.2668 3.69999 12.5668 3.69999H5.36685ZM12.5668 15.7H5.36685C3.36685 15.7 1.76685 14.1 1.76685 12.1V4.89999C1.76685 2.89999 3.36685 1.29999 5.36685 1.29999H12.5668C14.5668 1.29999 16.1668 2.89999 16.1668 4.89999V12.1C16.1668 14.1 14.5668 15.7 12.5668 15.7Z" fill="#8B95A1"/>
</svg>
