<svg width="25" height="24" viewBox="0 0 25 24" fill="none" xmlns="http://www.w3.org/2000/svg">
<path fill-rule="evenodd" clip-rule="evenodd" d="M5.42078 9.20403C4.91581 9.20403 4.43152 9.40463 4.07445 9.7617C3.71738 10.1188 3.51678 10.6031 3.51678 11.108V19.095C3.51678 20.147 4.36878 21 5.42078 21H7.35078V9.20403H5.42078ZM20.8798 6.99703H16.3378V2.73603C16.338 2.35369 16.212 1.98197 15.9793 1.67858C15.7467 1.37519 15.4203 1.1571 15.051 1.05816C14.6817 0.959217 14.2901 0.984966 13.9369 1.13141C13.5837 1.27785 13.2887 1.53679 13.0978 1.86803L8.86178 9.20403H8.85078V21H18.0848C18.9362 21 19.763 20.7148 20.4333 20.1899C21.1036 19.665 21.5787 18.9306 21.7828 18.104L23.6528 10.54C23.7569 10.1192 23.7638 9.68016 23.6731 9.25622C23.5824 8.83228 23.3964 8.43455 23.1292 8.09315C22.862 7.75175 22.5206 7.47564 22.1309 7.28573C21.7412 7.09582 21.3133 6.99709 20.8798 6.99703Z" fill="#8B95A1"/>
</svg>
