<svg width="25" height="24" viewBox="0 0 25 24" fill="none" xmlns="http://www.w3.org/2000/svg">
<path fill-rule="evenodd" clip-rule="evenodd" d="M12.4668 0.921997C18.5318 0.921997 23.4668 5.407 23.4668 10.922C23.4668 16.436 18.5318 20.922 12.4668 20.922C11.2618 20.922 9.9578 20.801 9.5138 20.756L5.9458 22.674C5.83419 22.7339 5.70842 22.7624 5.58188 22.7565C5.45534 22.7506 5.33279 22.7104 5.22728 22.6403C5.12177 22.5702 5.03726 22.4728 4.98275 22.3585C4.92825 22.2441 4.9058 22.1171 4.9178 21.991L5.2448 18.568C2.4658 16.494 1.4668 13.28 1.4668 10.922C1.4668 5.407 6.4018 0.921997 12.4668 0.921997ZM12.5388 13.972C12.2209 13.9723 11.9161 14.0987 11.6913 14.3235C11.4665 14.5483 11.3401 14.8531 11.3398 15.171C11.3394 15.4085 11.4095 15.6407 11.5411 15.8383C11.6728 16.036 11.8601 16.1901 12.0794 16.2812C12.2987 16.3723 12.5401 16.3963 12.773 16.3501C13.006 16.304 13.22 16.1897 13.388 16.0219C13.556 15.854 13.6704 15.6401 13.7167 15.4072C13.7631 15.1743 13.7393 14.9329 13.6484 14.7135C13.5574 14.4942 13.4035 14.3067 13.206 14.1749C13.0084 14.0431 12.7763 13.9728 12.5388 13.973V13.972ZM12.5238 5.5C11.6664 5.50106 10.8444 5.84212 10.2382 6.44838C9.63192 7.05465 9.29086 7.87661 9.2898 8.734C9.30217 8.93419 9.39041 9.12214 9.53655 9.25952C9.68269 9.39691 9.87572 9.4734 10.0763 9.4734C10.2769 9.4734 10.4699 9.39691 10.616 9.25952C10.7622 9.12214 10.8504 8.93419 10.8628 8.734C10.8628 7.818 11.6078 7.073 12.5238 7.073C13.0878 7.073 13.6598 7.333 13.9808 7.735C14.2258 8.043 14.3018 8.41 14.2048 8.826C14.0958 9.306 13.8148 9.505 13.2808 9.846C12.6308 10.263 11.7378 10.834 11.7378 12.281C11.7451 12.4847 11.8311 12.6777 11.9778 12.8193C12.1245 12.9608 12.3204 13.0399 12.5243 13.0399C12.7282 13.0399 12.9241 12.9608 13.0708 12.8193C13.2175 12.6777 13.3035 12.4847 13.3108 12.281C13.3108 11.716 13.5478 11.542 14.1308 11.17C14.7008 10.805 15.4808 10.306 15.7378 9.178C15.9408 8.298 15.7538 7.438 15.2098 6.754C14.5938 5.981 13.5648 5.5 12.5238 5.5Z" fill="#8B95A1"/>
</svg>
