<svg width="25" height="24" viewBox="0 0 25 24" fill="none" xmlns="http://www.w3.org/2000/svg">
<path fill-rule="evenodd" clip-rule="evenodd" d="M5.69678 14C5.43407 14 5.17394 13.9481 4.93126 13.8476C4.68857 13.747 4.46807 13.5995 4.28236 13.4137C4.09664 13.2279 3.94934 13.0074 3.84887 12.7646C3.74839 12.5219 3.69671 12.2617 3.69678 11.999C3.69684 11.7363 3.74865 11.4762 3.84925 11.2335C3.94984 10.9908 4.09725 10.7703 4.28306 10.5846C4.46887 10.3989 4.68944 10.2516 4.93218 10.1511C5.17492 10.0506 5.43507 9.99896 5.69778 9.99902C6.22834 9.99916 6.73713 10.21 7.1122 10.5853C7.48727 10.9606 7.69791 11.4695 7.69778 12C7.69764 12.5306 7.48675 13.0394 7.11149 13.4144C6.73623 13.7895 6.22734 14.0002 5.69678 14ZM12.4678 14C11.9373 14 11.4286 13.7893 11.0536 13.4142C10.6785 13.0392 10.4678 12.5305 10.4678 12C10.4678 11.4696 10.6785 10.9609 11.0536 10.5858C11.4286 10.2107 11.9373 10 12.4678 10C12.9982 10 13.5069 10.2107 13.882 10.5858C14.2571 10.9609 14.4678 11.4696 14.4678 12C14.4678 12.5305 14.2571 13.0392 13.882 13.4142C13.5069 13.7893 12.9982 14 12.4678 14ZM19.2378 14C18.9751 14 18.7149 13.9481 18.4723 13.8476C18.2296 13.747 18.0091 13.5995 17.8234 13.4137C17.6376 13.2279 17.4903 13.0074 17.3899 12.7646C17.2894 12.5219 17.2377 12.2617 17.2378 11.999C17.2378 11.7363 17.2897 11.4762 17.3902 11.2335C17.4908 10.9908 17.6383 10.7703 17.8241 10.5846C18.0099 10.3989 18.2304 10.2516 18.4732 10.1511C18.7159 10.0506 18.9761 9.99896 19.2388 9.99902C19.7693 9.99916 20.2781 10.21 20.6532 10.5853C21.0283 10.9606 21.2389 11.4695 21.2388 12C21.2386 12.5306 21.0278 13.0394 20.6525 13.4144C20.2772 13.7895 19.7683 14.0002 19.2378 14Z" fill="#8B95A1"/>
</svg>
