<svg width="25" height="24" viewBox="0 0 25 24" fill="none" xmlns="http://www.w3.org/2000/svg">
<path fill-rule="evenodd" clip-rule="evenodd" d="M8.92678 11.231C8.7004 10.9261 8.48688 10.6118 8.28678 10.289C8.17025 10.0981 8.12165 9.87341 8.14888 9.65141C8.17611 9.4294 8.27756 9.22311 8.43678 9.06602L10.5488 6.95402C10.7209 6.78245 10.8244 6.55393 10.8399 6.31141C10.8553 6.06888 10.7817 5.82906 10.6328 5.63702L7.55278 1.66002C6.85278 0.755018 5.53178 0.613018 4.67278 1.36702C3.54078 2.36102 2.17978 3.85102 1.78178 5.52202C1.17878 8.06002 1.89978 11.146 5.12178 15.036L8.92778 11.232L8.92678 11.231ZM22.8068 16.913L18.8288 13.833C18.6366 13.6847 18.397 13.6115 18.1547 13.6272C17.9125 13.6428 17.6843 13.7462 17.5128 13.918L15.4008 16.031C15.2435 16.1899 15.0371 16.2911 14.8152 16.3181C14.5932 16.3452 14.3686 16.2965 14.1778 16.18C13.6438 15.852 12.8238 15.278 11.8068 14.358L21.3158 4.84802C21.5378 4.62236 21.6617 4.31811 21.6604 4.00154C21.6591 3.68498 21.5327 3.38175 21.3089 3.1579C21.0851 2.93405 20.7818 2.80773 20.4653 2.80644C20.1487 2.80515 19.8444 2.929 19.6188 3.15102L1.61878 21.151C1.39361 21.3761 1.26706 21.6813 1.26697 21.9997C1.26687 22.318 1.39325 22.6234 1.61828 22.8485C1.84332 23.0737 2.14858 23.2002 2.46693 23.2003C2.78527 23.2004 3.09061 23.0741 3.31578 22.849L8.04178 18.122C12.5988 22.392 16.1118 23.359 18.9458 22.685C20.6158 22.287 22.1058 20.925 23.1008 19.793C23.8548 18.933 23.7108 17.613 22.8078 16.913" fill="#8B95A1"/>
</svg>
