<svg width="23" height="23" viewBox="0 0 23 23" fill="none" xmlns="http://www.w3.org/2000/svg">
<path fill-rule="evenodd" clip-rule="evenodd" d="M0.956435 7.68434C0.687662 8.1339 0.533203 8.65969 0.533203 9.22155V19.4855C0.533203 21.1423 1.87635 22.4855 3.5332 22.4855H19.0399C20.6968 22.4855 22.0399 21.1423 22.0399 19.4855V9.22155C22.0399 8.65734 21.8842 8.12951 21.6133 7.67871L13.1331 13.5791L13.1241 13.5661L11.2866 14.8641L9.44136 13.5607L9.42856 13.5791L0.956435 7.68434ZM11.2866 17.3128L20.0399 11.1294V19.4855C20.0399 20.0378 19.5922 20.4855 19.0399 20.4855H3.5332C2.98092 20.4855 2.5332 20.0378 2.5332 19.4855V11.1294L11.2866 17.3128Z" fill="#8B95A1"/>
<line y1="-1" x2="12.6953" y2="-1" transform="matrix(0.816768 -0.576967 -0.576967 -0.816768 0.91748 7.67871)" stroke="#8B95A1" stroke-width="2"/>
<line x1="21.0287" y1="8.49421" x2="10.7078" y2="1.16942" stroke="#8B95A1" stroke-width="2"/>
</svg>
