<svg width="25" height="24" viewBox="0 0 25 24" fill="none" xmlns="http://www.w3.org/2000/svg">
<path d="M21.5778 4.259L12.8468 0.673999C12.6038 0.573999 12.3308 0.573999 12.0868 0.673999L3.35578 4.259C2.98078 4.413 2.73578 4.778 2.73578 5.184V13.519C2.73578 17.316 7.53878 21.009 12.0188 23.293C12.3008 23.437 12.6328 23.437 12.9138 23.293C17.3938 21.009 22.1968 17.316 22.1968 13.519V5.184C22.1978 4.779 21.9528 4.413 21.5778 4.259ZM12.4668 6.497C13.6838 6.497 14.6698 7.483 14.6698 8.7C14.6698 9.917 13.6838 10.902 12.4668 10.902C11.2498 10.902 10.2638 9.916 10.2638 8.699C10.2638 7.482 11.2498 6.497 12.4668 6.497ZM12.4668 16.503C10.4898 16.503 7.57178 16.225 7.57178 15.182C7.57178 14.139 8.94278 11.896 12.4668 11.896C15.9908 11.896 17.3618 14.139 17.3618 15.182C17.3618 16.225 14.4438 16.503 12.4668 16.503Z" fill="#8B95A1"/>
</svg>
