<svg width="25" height="24" viewBox="0 0 25 24" fill="none" xmlns="http://www.w3.org/2000/svg">
<path fill-rule="evenodd" clip-rule="evenodd" d="M17.6738 10.215L12.0908 15.799C11.9027 15.9858 11.6484 16.0906 11.3833 16.0906C11.1182 16.0906 10.8639 15.9858 10.6758 15.799L7.2598 12.383C7.16695 12.2902 7.0933 12.1799 7.04306 12.0586C6.99281 11.9373 6.96695 11.8073 6.96695 11.676C6.96695 11.4108 7.07229 11.1565 7.2598 10.969C7.44731 10.7815 7.70162 10.6762 7.9668 10.6762C8.23197 10.6762 8.48629 10.7815 8.6738 10.969L11.3828 13.678L16.2598 8.801C16.3526 8.70816 16.4629 8.63451 16.5842 8.58426C16.7055 8.53401 16.8355 8.50815 16.9668 8.50815C17.0981 8.50815 17.2281 8.53401 17.3494 8.58426C17.4707 8.63451 17.581 8.70816 17.6738 8.801C17.7666 8.89384 17.8403 9.00407 17.8905 9.12537C17.9408 9.24668 17.9666 9.3767 17.9666 9.508C17.9666 9.6393 17.9408 9.76932 17.8905 9.89063C17.8403 10.0119 17.7666 10.1222 17.6738 10.215ZM12.4668 1C6.3918 1 1.4668 5.925 1.4668 12C1.4668 18.075 6.3918 23 12.4668 23C18.5418 23 23.4668 18.075 23.4668 12C23.4668 5.925 18.5418 1 12.4668 1Z" fill="#8B95A1"/>
</svg>
