<svg width="25" height="24" viewBox="0 0 25 24" fill="none" xmlns="http://www.w3.org/2000/svg">
<path fill-rule="evenodd" clip-rule="evenodd" d="M9.59175 17.125C10.0691 17.125 10.527 17.3147 10.8645 17.6522C11.2021 17.9898 11.3917 18.4476 11.3917 18.925C11.3917 19.4024 11.2021 19.8603 10.8645 20.1978C10.527 20.5354 10.0691 20.725 9.59175 20.725C9.11436 20.725 8.65652 20.5354 8.31896 20.1978C7.98139 19.8603 7.79175 19.4024 7.79175 18.925C7.79175 18.4476 7.98139 17.9898 8.31896 17.6522C8.65652 17.3147 9.11436 17.125 9.59175 17.125ZM11.3917 12.125C11.3917 13.125 10.5917 13.925 9.59175 13.925C8.59175 13.925 7.79175 13.125 7.79175 12.125C7.79175 11.125 8.59175 10.325 9.59175 10.325C10.5917 10.325 11.3917 11.125 11.3917 12.125ZM11.3917 5.32502C11.3917 6.32502 10.5917 7.12502 9.59175 7.12502C8.59175 7.12502 7.79175 6.32502 7.79175 5.32502C7.79175 4.32502 8.59175 3.52502 9.59175 3.52502C10.5917 3.52502 11.3917 4.32502 11.3917 5.32502ZM15.5917 17.125C16.0691 17.125 16.527 17.3147 16.8645 17.6522C17.2021 17.9898 17.3917 18.4476 17.3917 18.925C17.3917 19.4024 17.2021 19.8603 16.8645 20.1978C16.527 20.5354 16.0691 20.725 15.5917 20.725C15.1144 20.725 14.6565 20.5354 14.319 20.1978C13.9814 19.8603 13.7917 19.4024 13.7917 18.925C13.7917 18.4476 13.9814 17.9898 14.319 17.6522C14.6565 17.3147 15.1144 17.125 15.5917 17.125ZM17.3917 12.125C17.3917 13.125 16.5917 13.925 15.5917 13.925C14.5917 13.925 13.7917 13.125 13.7917 12.125C13.7917 11.125 14.5917 10.325 15.5917 10.325C16.5917 10.325 17.3917 11.125 17.3917 12.125ZM17.3917 5.32502C17.3917 6.32502 16.5917 7.12502 15.5917 7.12502C14.5917 7.12502 13.7917 6.32502 13.7917 5.32502C13.7917 4.32502 14.5917 3.52502 15.5917 3.52502C16.5917 3.52502 17.3917 4.32502 17.3917 5.32502Z" fill="#8B95A1"/>
</svg>
