<svg width="25" height="24" viewBox="0 0 25 24" fill="none" xmlns="http://www.w3.org/2000/svg">
<path fill-rule="evenodd" clip-rule="evenodd" d="M12.4668 18.267C11.076 18.2654 9.74257 17.7122 8.7591 16.7288C7.77562 15.7453 7.22241 14.4119 7.22082 13.021C7.22215 11.63 7.77524 10.2963 8.75874 9.31265C9.74224 8.32896 11.0758 7.77561 12.4668 7.77403C13.8578 7.77561 15.1914 8.32896 16.1749 9.31265C17.1584 10.2963 17.7115 11.63 17.7128 13.021C17.7112 14.4119 17.158 15.7453 16.1746 16.7288C15.1911 17.7122 13.8577 18.2654 12.4668 18.267ZM20.5798 5.13603H17.6258L16.5128 2.96703C16.3363 2.62366 16.0686 2.33559 15.7391 2.13447C15.4095 1.93335 15.0309 1.82698 14.6448 1.82703H10.2318C9.83816 1.82698 9.45241 1.93759 9.11858 2.14623C8.78475 2.35487 8.51629 2.65315 8.34382 3.00703L7.30782 5.13603H4.35382C4.02281 5.1359 3.69501 5.20098 3.38916 5.32756C3.0833 5.45415 2.80538 5.63975 2.57127 5.87376C2.33716 6.10778 2.15145 6.38563 2.02474 6.69143C1.89804 6.99724 1.83282 7.32501 1.83282 7.65603V19.257C1.83282 19.588 1.89804 19.9158 2.02474 20.2216C2.15145 20.5274 2.33716 20.8053 2.57127 21.0393C2.80538 21.2733 3.0833 21.4589 3.38916 21.5855C3.69501 21.7121 4.02281 21.7772 4.35382 21.777H20.5798C20.9108 21.7772 21.2386 21.7121 21.5445 21.5855C21.8504 21.4589 22.1283 21.2733 22.3624 21.0393C22.5965 20.8053 22.7822 20.5274 22.9089 20.2216C23.0356 19.9158 23.1008 19.588 23.1008 19.257V7.65603C23.1008 7.32501 23.0356 6.99724 22.9089 6.69143C22.7822 6.38563 22.5965 6.10778 22.3624 5.87376C22.1283 5.63975 21.8504 5.45415 21.5445 5.32756C21.2386 5.20098 20.9108 5.1359 20.5798 5.13603Z" fill="#8B95A1"/>
<path fill-rule="evenodd" clip-rule="evenodd" d="M12.4668 9.664C11.5772 9.66506 10.7243 10.019 10.0953 10.6482C9.46631 11.2774 9.11261 12.1304 9.11182 13.02C9.11235 13.9097 9.46596 14.7629 10.095 15.3921C10.724 16.0213 11.5771 16.3752 12.4668 16.376C13.3565 16.3752 14.2096 16.0213 14.8386 15.3921C15.4677 14.7629 15.8213 13.9097 15.8218 13.02C15.821 12.1304 15.4673 11.2774 14.8383 10.6482C14.2094 10.019 13.3565 9.66506 12.4668 9.664Z" fill="#8B95A1"/>
</svg>
