<svg width="25" height="24" viewBox="0 0 25 24" fill="none" xmlns="http://www.w3.org/2000/svg">
<path fill-rule="evenodd" clip-rule="evenodd" d="M7.2038 21.25H4.4668C4.20158 21.25 3.94723 21.1446 3.75969 20.9571C3.57215 20.7696 3.4668 20.5152 3.4668 20.25V13.724C3.4668 13.4588 3.57215 13.2044 3.75969 13.0169C3.94723 12.8294 4.20158 12.724 4.4668 12.724H7.2038C7.46901 12.724 7.72337 12.8294 7.9109 13.0169C8.09844 13.2044 8.2038 13.4588 8.2038 13.724V20.25C8.2038 20.5152 8.09844 20.7696 7.9109 20.9571C7.72337 21.1446 7.46901 21.25 7.2038 21.25ZM13.8358 21.25H11.0988C10.8336 21.25 10.5792 21.1446 10.3917 20.9571C10.2042 20.7696 10.0988 20.5152 10.0988 20.25V8.987C10.0988 8.72178 10.2042 8.46743 10.3917 8.27989C10.5792 8.09236 10.8336 7.987 11.0988 7.987H13.8358C14.101 7.987 14.3554 8.09236 14.5429 8.27989C14.7304 8.46743 14.8358 8.72178 14.8358 8.987V20.25C14.8358 20.5152 14.7304 20.7696 14.5429 20.9571C14.3554 21.1446 14.101 21.25 13.8358 21.25ZM20.4668 21.25H17.7298C17.4646 21.25 17.2102 21.1446 17.0227 20.9571C16.8352 20.7696 16.7298 20.5152 16.7298 20.25V4.25C16.7298 3.98478 16.8352 3.73043 17.0227 3.54289C17.2102 3.35536 17.4646 3.25 17.7298 3.25H20.4668C20.732 3.25 20.9864 3.35536 21.1739 3.54289C21.3614 3.73043 21.4668 3.98478 21.4668 4.25V20.25C21.4668 20.5152 21.3614 20.7696 21.1739 20.9571C20.9864 21.1446 20.732 21.25 20.4668 21.25Z" fill="#8B95A1"/>
</svg>
