<svg width="25" height="24" viewBox="0 0 25 24" fill="none" xmlns="http://www.w3.org/2000/svg">
<path fill-rule="evenodd" clip-rule="evenodd" d="M18.1028 3.686C17.9455 3.33305 17.6894 3.03321 17.3653 2.82273C17.0413 2.61226 16.6632 2.50017 16.2768 2.5H8.65676C8.27036 2.50017 7.89228 2.61226 7.56823 2.82273C7.24417 3.03321 6.98803 3.33305 6.83076 3.686L5.15076 7.453H19.7828L18.1028 3.686ZM18.0468 15.47C17.8596 15.47 17.6743 15.4331 17.5014 15.3615C17.3286 15.2899 17.1715 15.185 17.0391 15.0526C16.9068 14.9203 16.8018 14.7632 16.7302 14.5903C16.6586 14.4174 16.6218 14.2321 16.6218 14.045C16.6218 13.8579 16.6586 13.6726 16.7302 13.4997C16.8018 13.3268 16.9068 13.1697 17.0391 13.0374C17.1715 12.905 17.3286 12.8001 17.5014 12.7285C17.6743 12.6569 17.8596 12.62 18.0468 12.62C18.4247 12.62 18.7872 12.7701 19.0544 13.0374C19.3216 13.3046 19.4718 13.6671 19.4718 14.045C19.4718 14.4229 19.3216 14.7854 19.0544 15.0526C18.7872 15.3199 18.4247 15.47 18.0468 15.47ZM6.88476 15.47C6.69763 15.47 6.51233 15.4331 6.33944 15.3615C6.16655 15.2899 6.00946 15.185 5.87714 15.0526C5.74481 14.9203 5.63985 14.7632 5.56824 14.5903C5.49662 14.4174 5.45976 14.2321 5.45976 14.045C5.45976 13.8579 5.49662 13.6726 5.56824 13.4997C5.63985 13.3268 5.74481 13.1697 5.87714 13.0374C6.00946 12.905 6.16655 12.8001 6.33944 12.7285C6.51233 12.6569 6.69763 12.62 6.88476 12.62C7.2627 12.62 7.62515 12.7701 7.89239 13.0374C8.15963 13.3046 8.30976 13.6671 8.30976 14.045C8.30976 14.4229 8.15963 14.7854 7.89239 15.0526C7.62515 15.3199 7.2627 15.47 6.88476 15.47ZM20.4488 8.953H4.48376C3.95333 8.953 3.44462 9.16371 3.06955 9.53879C2.69448 9.91386 2.48376 10.4226 2.48376 10.953V20.5C2.48376 20.7652 2.58912 21.0196 2.77666 21.2071C2.96419 21.3946 3.21855 21.5 3.48376 21.5H5.92776C6.19298 21.5 6.44734 21.3946 6.63487 21.2071C6.82241 21.0196 6.92776 20.7652 6.92776 20.5V19.136H18.0058V20.5C18.0058 20.7652 18.1111 21.0196 18.2987 21.2071C18.4862 21.3946 18.7405 21.5 19.0058 21.5H21.4498C21.715 21.5 21.9693 21.3946 22.1569 21.2071C22.3444 21.0196 22.4498 20.7652 22.4498 20.5V10.952C22.4498 9.847 21.5558 8.952 20.4498 8.952" fill="#8B95A1"/>
</svg>
