<svg width="25" height="24" viewBox="0 0 25 24" fill="none" xmlns="http://www.w3.org/2000/svg">
<path fill-rule="evenodd" clip-rule="evenodd" d="M21.4328 10.8H7.3968L12.8478 5.34899C12.9607 5.23789 13.0505 5.10554 13.112 4.95956C13.1736 4.81358 13.2056 4.65687 13.2062 4.49847C13.2068 4.34006 13.1761 4.18309 13.1158 4.03662C13.0555 3.89014 12.9668 3.75706 12.8547 3.64505C12.7427 3.53304 12.6096 3.44431 12.4632 3.38399C12.3167 3.32367 12.1597 3.29294 12.0013 3.29359C11.8429 3.29423 11.6862 3.32624 11.5402 3.38775C11.3942 3.44926 11.2619 3.53907 11.1508 3.65199L3.6508 11.152C3.6478 11.154 3.6468 11.158 3.6438 11.161C3.47928 11.3289 3.3677 11.5414 3.3229 11.7722C3.2781 12.0029 3.30206 12.2417 3.3918 12.459C3.4518 12.602 3.5368 12.729 3.6438 12.839L3.6508 12.849L11.1508 20.349C11.3858 20.583 11.6928 20.699 11.9988 20.699C12.2361 20.699 12.468 20.6286 12.6653 20.4968C12.8626 20.365 13.0164 20.1777 13.1073 19.9585C13.1981 19.7393 13.222 19.4981 13.1758 19.2654C13.1296 19.0327 13.0155 18.8189 12.8478 18.651L7.3978 13.2H21.4338C21.7521 13.2 22.0573 13.0736 22.2823 12.8485C22.5074 12.6235 22.6338 12.3182 22.6338 12C22.6338 11.6817 22.5074 11.3765 22.2823 11.1515C22.0573 10.9264 21.7521 10.8 21.4338 10.8" fill="#8B95A1"/>
</svg>
