<svg width="25" height="24" viewBox="0 0 25 24" fill="none" xmlns="http://www.w3.org/2000/svg">
<path fill-rule="evenodd" clip-rule="evenodd" d="M6.09382 22.087C6.11558 22.3362 6.22993 22.5681 6.4143 22.7372C6.59868 22.9062 6.8397 22.9999 7.08982 23H18.0528C18.3029 22.9999 18.544 22.9062 18.7283 22.7372C18.9127 22.5681 19.0271 22.3362 19.0488 22.087L19.3008 19.193L20.0178 10.969L20.1338 9.631H5.00882L6.09382 22.087ZM21.2708 4.53H19.6738L18.5848 1.666C18.5102 1.47019 18.3779 1.30165 18.2054 1.18271C18.0329 1.06378 17.8284 1.00006 17.6188 1H7.52482C7.09482 1 6.71082 1.265 6.55782 1.666L5.46882 4.53H3.66382C3.53121 4.53 3.40403 4.58268 3.31026 4.67645C3.2165 4.77021 3.16382 4.89739 3.16382 5.03V7.131C3.16382 7.26361 3.2165 7.39079 3.31026 7.48455C3.40403 7.57832 3.53121 7.631 3.66382 7.631H21.2708C21.4034 7.631 21.5306 7.57832 21.6244 7.48455C21.7181 7.39079 21.7708 7.26361 21.7708 7.131V5.03C21.7708 4.89739 21.7181 4.77021 21.6244 4.67645C21.5306 4.58268 21.4034 4.53 21.2708 4.53Z" fill="#8B95A1"/>
</svg>
