<svg width="25" height="24" viewBox="0 0 25 24" fill="none" xmlns="http://www.w3.org/2000/svg">
<path fill-rule="evenodd" clip-rule="evenodd" d="M16.9588 13H13.4588V16.5C13.4588 16.7652 13.3534 17.0196 13.1659 17.2071C12.9784 17.3946 12.724 17.5 12.4588 17.5C12.1936 17.5 11.9392 17.3946 11.7517 17.2071C11.5642 17.0196 11.4588 16.7652 11.4588 16.5V13H7.9588C7.69358 13 7.43923 12.8946 7.25169 12.7071C7.06415 12.5196 6.9588 12.2652 6.9588 12C6.9588 11.7348 7.06415 11.4804 7.25169 11.2929C7.43923 11.1054 7.69358 11 7.9588 11H11.4588V7.5C11.4588 7.23478 11.5642 6.98043 11.7517 6.79289C11.9392 6.60536 12.1936 6.5 12.4588 6.5C12.724 6.5 12.9784 6.60536 13.1659 6.79289C13.3534 6.98043 13.4588 7.23478 13.4588 7.5V11H16.9588C17.224 11 17.4784 11.1054 17.6659 11.2929C17.8534 11.4804 17.9588 11.7348 17.9588 12C17.9588 12.2652 17.8534 12.5196 17.6659 12.7071C17.4784 12.8946 17.224 13 16.9588 13ZM12.4668 1C6.3918 1 1.4668 5.925 1.4668 12C1.4668 18.075 6.3918 23 12.4668 23C18.5418 23 23.4668 18.075 23.4668 12C23.4668 5.925 18.5418 1 12.4668 1Z" fill="#8B95A1"/>
</svg>
