<svg width="25" height="24" viewBox="0 0 25 24" fill="none" xmlns="http://www.w3.org/2000/svg">
<path fill-rule="evenodd" clip-rule="evenodd" d="M7.38181 15.88V8.92096H4.98181V15.881C4.98181 17.865 6.59681 19.481 8.58181 19.481H15.5398V17.081H8.58181C7.91981 17.081 7.38181 16.542 7.38181 15.881" fill="#8B95A1"/>
<path fill-rule="evenodd" clip-rule="evenodd" d="M22.7398 17.08H19.9398V8.12098C19.9387 7.16643 19.5591 6.25127 18.8842 5.57621C18.2094 4.90114 17.2943 4.5213 16.3398 4.51997H7.38175V1.72097C7.37274 1.40858 7.2423 1.112 7.01815 0.894227C6.79399 0.67645 6.49378 0.554626 6.18125 0.554626C5.86873 0.554626 5.56851 0.67645 5.34436 0.894227C5.1202 1.112 4.98977 1.40858 4.98075 1.72097V4.51997H2.18075C1.86836 4.52899 1.57178 4.65943 1.354 4.88358C1.13623 5.10773 1.0144 5.40795 1.0144 5.72047C1.0144 6.033 1.13623 6.33322 1.354 6.55737C1.57178 6.78152 1.86836 6.91196 2.18075 6.92097H16.3398C17.0018 6.92097 17.5398 7.45897 17.5398 8.12098V22.28C17.5398 22.4376 17.5708 22.5936 17.6311 22.7392C17.6914 22.8848 17.7798 23.0171 17.8912 23.1285C18.0027 23.2399 18.1349 23.3283 18.2805 23.3886C18.4261 23.4489 18.5822 23.48 18.7398 23.48C18.8973 23.48 19.0534 23.4489 19.199 23.3886C19.3446 23.3283 19.4769 23.2399 19.5883 23.1285C19.6997 23.0171 19.7881 22.8848 19.8484 22.7392C19.9087 22.5936 19.9398 22.4376 19.9398 22.28V19.48H22.7398C22.8973 19.48 23.0534 19.4489 23.199 19.3886C23.3446 19.3283 23.4769 19.2399 23.5883 19.1285C23.6997 19.0171 23.7881 18.8848 23.8484 18.7392C23.9087 18.5936 23.9398 18.4376 23.9398 18.28C23.9398 18.1224 23.9087 17.9663 23.8484 17.8208C23.7881 17.6752 23.6997 17.5429 23.5883 17.4314C23.4769 17.32 23.3446 17.2316 23.199 17.1713C23.0534 17.111 22.8973 17.08 22.7398 17.08Z" fill="#8B95A1"/>
</svg>
