<svg width="25" height="24" viewBox="0 0 25 24" fill="none" xmlns="http://www.w3.org/2000/svg">
<path fill-rule="evenodd" clip-rule="evenodd" d="M22.4668 10.9H2.46682C2.17508 10.9 1.89529 11.0159 1.689 11.2222C1.48271 11.4285 1.36682 11.7083 1.36682 12C1.36682 12.2918 1.48271 12.5716 1.689 12.7778C1.89529 12.9841 2.17508 13.1 2.46682 13.1H22.4668C22.7586 13.1 23.0383 12.9841 23.2446 12.7778C23.4509 12.5716 23.5668 12.2918 23.5668 12C23.5668 11.7083 23.4509 11.4285 23.2446 11.2222C23.0383 11.0159 22.7586 10.9 22.4668 10.9ZM4.46682 9.10002C4.75856 9.10002 5.03835 8.98413 5.24464 8.77784C5.45093 8.57155 5.56682 8.29176 5.56682 8.00002V5.20002C5.56682 5.1735 5.57736 5.14807 5.59611 5.12931C5.61486 5.11056 5.6403 5.10002 5.66682 5.10002H8.46682C8.75856 5.10002 9.03835 4.98413 9.24464 4.77784C9.45093 4.57155 9.56682 4.29176 9.56682 4.00002C9.56682 3.70829 9.45093 3.4285 9.24464 3.22221C9.03835 3.01592 8.75856 2.90002 8.46682 2.90002H5.66682C5.05707 2.90082 4.47251 3.14339 4.04135 3.57456C3.61019 4.00572 3.36761 4.59027 3.36682 5.20002V8.00002C3.36682 8.29176 3.48271 8.57155 3.689 8.77784C3.89529 8.98413 4.17508 9.10002 4.46682 9.10002ZM8.46682 18.9H5.66682C5.65369 18.9 5.64069 18.8974 5.62855 18.8924C5.61642 18.8874 5.6054 18.88 5.59611 18.8707C5.58682 18.8614 5.57946 18.8504 5.57443 18.8383C5.56941 18.8262 5.56682 18.8132 5.56682 18.8V16C5.56682 15.7083 5.45093 15.4285 5.24464 15.2222C5.03835 15.0159 4.75856 14.9 4.46682 14.9C4.17508 14.9 3.89529 15.0159 3.689 15.2222C3.48271 15.4285 3.36682 15.7083 3.36682 16V18.8C3.36682 20.068 4.39882 21.1 5.66682 21.1H8.46682C8.75856 21.1 9.03835 20.9841 9.24464 20.7778C9.45093 20.5716 9.56682 20.2918 9.56682 20C9.56682 19.7083 9.45093 19.4285 9.24464 19.2222C9.03835 19.0159 8.75856 18.9 8.46682 18.9ZM16.4668 5.10002H19.2668C19.2933 5.10002 19.3188 5.11056 19.3375 5.12931C19.3563 5.14807 19.3668 5.1735 19.3668 5.20002V8.00002C19.3668 8.29176 19.4827 8.57155 19.689 8.77784C19.8953 8.98413 20.1751 9.10002 20.4668 9.10002C20.7586 9.10002 21.0383 8.98413 21.2446 8.77784C21.4509 8.57155 21.5668 8.29176 21.5668 8.00002V5.20002C21.5668 3.93202 20.5348 2.90002 19.2668 2.90002H16.4668C16.1751 2.90002 15.8953 3.01592 15.689 3.22221C15.4827 3.4285 15.3668 3.70829 15.3668 4.00002C15.3668 4.29176 15.4827 4.57155 15.689 4.77784C15.8953 4.98413 16.1751 5.10002 16.4668 5.10002ZM20.4668 14.9C20.3224 14.9 20.1793 14.9285 20.0459 14.9838C19.9124 15.039 19.7911 15.1201 19.689 15.2222C19.5869 15.3244 19.5058 15.4456 19.4506 15.5791C19.3953 15.7125 19.3668 15.8556 19.3668 16V18.8C19.3668 18.8132 19.3642 18.8262 19.3592 18.8383C19.3542 18.8504 19.3468 18.8614 19.3375 18.8707C19.3282 18.88 19.3172 18.8874 19.3051 18.8924C19.293 18.8974 19.28 18.9 19.2668 18.9H16.4668C16.1751 18.9 15.8953 19.0159 15.689 19.2222C15.4827 19.4285 15.3668 19.7083 15.3668 20C15.3668 20.2918 15.4827 20.5716 15.689 20.7778C15.8953 20.9841 16.1751 21.1 16.4668 21.1H19.2668C20.5348 21.1 21.5668 20.068 21.5668 18.8V16C21.5668 15.7083 21.4509 15.4285 21.2446 15.2222C21.0383 15.0159 20.7586 14.9 20.4668 14.9Z" fill="#8B95A1"/>
</svg>
