<svg width="25" height="24" viewBox="0 0 25 24" fill="none" xmlns="http://www.w3.org/2000/svg">
<path d="M21.1768 3.99997C21.1768 3.38997 20.6868 2.90997 20.0768 2.90997H20.0668C19.4568 2.90997 18.9668 3.40997 18.9768 4.01997L19.0168 12.6C19.0168 13 18.8668 13.38 18.5768 13.66C18.2968 13.94 17.9168 14.1 17.5168 14.1H6.45678L10.3868 10.17C10.8168 9.73997 10.8168 9.03997 10.3868 8.60997C9.95678 8.17997 9.26678 8.17997 8.82678 8.60997L3.01678 14.42C2.80678 14.63 2.69678 14.91 2.69678 15.2C2.69678 15.49 2.81678 15.77 3.01678 15.98L8.82678 21.79C9.03678 22 9.32678 22.11 9.60678 22.11C9.88678 22.11 10.1668 22 10.3868 21.79C10.8168 21.36 10.8168 20.66 10.3868 20.24L6.45678 16.31H17.5268C18.5168 16.31 19.4468 15.92 20.1468 15.22C20.8468 14.52 21.2268 13.59 21.2268 12.6L21.1768 3.99997Z" fill="#8B95A1"/>
</svg>
