<svg width="25" height="24" viewBox="0 0 25 24" fill="none" xmlns="http://www.w3.org/2000/svg">
<path fill-rule="evenodd" clip-rule="evenodd" d="M4.58483 6.19999H20.5848C20.9031 6.19999 21.2083 6.07356 21.4334 5.84852C21.6584 5.62347 21.7848 5.31825 21.7848 4.99999C21.7848 4.68173 21.6584 4.3765 21.4334 4.15146C21.2083 3.92642 20.9031 3.79999 20.5848 3.79999H4.58483C4.26657 3.79999 3.96134 3.92642 3.7363 4.15146C3.51125 4.3765 3.38483 4.68173 3.38483 4.99999C3.38483 5.31825 3.51125 5.62347 3.7363 5.84852C3.96134 6.07356 4.26657 6.19999 4.58483 6.19999ZM20.5848 10.8H4.58483C4.26657 10.8 3.96134 10.9264 3.7363 11.1515C3.51125 11.3765 3.38483 11.6817 3.38483 12C3.38483 12.3182 3.51125 12.6235 3.7363 12.8485C3.96134 13.0736 4.26657 13.2 4.58483 13.2H20.5848C20.9031 13.2 21.2083 13.0736 21.4334 12.8485C21.6584 12.6235 21.7848 12.3182 21.7848 12C21.7848 11.6817 21.6584 11.3765 21.4334 11.1515C21.2083 10.9264 20.9031 10.8 20.5848 10.8ZM20.5848 17.8H4.58483C4.42724 17.8 4.2712 17.831 4.12561 17.8913C3.98002 17.9516 3.84773 18.04 3.7363 18.1515C3.62487 18.2629 3.53648 18.3952 3.47617 18.5408C3.41587 18.6864 3.38483 18.8424 3.38483 19C3.38483 19.1576 3.41587 19.3136 3.47617 19.4592C3.53648 19.6048 3.62487 19.7371 3.7363 19.8485C3.84773 19.9599 3.98002 20.0483 4.12561 20.1086C4.2712 20.169 4.42724 20.2 4.58483 20.2H20.5848C20.7424 20.2 20.8985 20.169 21.044 20.1086C21.1896 20.0483 21.3219 19.9599 21.4334 19.8485C21.5448 19.7371 21.6332 19.6048 21.6935 19.4592C21.7538 19.3136 21.7848 19.1576 21.7848 19C21.7848 18.8424 21.7538 18.6864 21.6935 18.5408C21.6332 18.3952 21.5448 18.2629 21.4334 18.1515C21.3219 18.04 21.1896 17.9516 21.044 17.8913C20.8985 17.831 20.7424 17.8 20.5848 17.8Z" fill="#8B95A1"/>
</svg>
