<svg width="25" height="24" viewBox="0 0 25 24" fill="none" xmlns="http://www.w3.org/2000/svg">
<path d="M1.4668 12C1.4668 18.1 6.3668 23 12.4668 23C18.5668 23 23.4668 18.1 23.4668 12C23.4668 5.9 18.5668 1 12.4668 1C6.3668 1 1.4668 5.9 1.4668 12ZM6.9668 12C6.9668 11.4 7.3668 11 7.9668 11H14.5668L12.2668 8.7C11.8668 8.3 11.8668 7.7 12.2668 7.3C12.6668 6.9 13.2668 6.9 13.6668 7.3L17.6668 11.3C18.0668 11.7 18.0668 12.3 17.6668 12.7L13.6668 16.7C13.4668 16.9 13.2668 17 12.9668 17C12.6668 17 12.4668 16.9 12.2668 16.7C11.8668 16.3 11.8668 15.7 12.2668 15.3L14.5668 13H7.9668C7.4668 13 6.9668 12.6 6.9668 12Z" fill="#8B95A1"/>
</svg>
