<svg width="25" height="24" viewBox="0 0 25 24" fill="none" xmlns="http://www.w3.org/2000/svg">
<path d="M5.06681 9.10001H2.66681V5.40001C2.66681 3.60001 4.06681 2.20001 5.86681 2.20001H9.66681V4.60001H5.86681C5.46681 4.60001 5.06681 5.00001 5.06681 5.40001V9.10001ZM9.56681 21.8H5.86681C4.06681 21.8 2.66681 20.4 2.66681 18.6V14.8H5.06681V18.6C5.06681 19 5.46681 19.4 5.86681 19.4H9.66681V21.8H9.56681ZM19.0668 21.8H15.2668V19.4H19.0668C19.4668 19.4 19.8668 19 19.8668 18.6V14.8H22.2668V18.6C22.2668 20.4 20.8668 21.8 19.0668 21.8ZM22.2668 9.10001H19.8668V5.40001C19.8668 5.00001 19.4668 4.60001 19.0668 4.60001H15.2668V2.20001H19.0668C20.8668 2.20001 22.2668 3.60001 22.2668 5.40001V9.10001Z" fill="#8B95A1"/>
</svg>
