<svg width="25" height="24" viewBox="0 0 25 24" fill="none" xmlns="http://www.w3.org/2000/svg">
<path fill-rule="evenodd" clip-rule="evenodd" d="M18.4668 13.247H16.4558L15.7358 15.866C15.673 16.1002 15.5342 16.307 15.3413 16.4539C15.1485 16.6008 14.9123 16.6796 14.6698 16.678H14.6688C14.1648 16.678 13.7368 16.351 13.6038 15.866L12.4668 11.738L11.3308 15.866C11.268 16.1002 11.1292 16.307 10.9363 16.4539C10.7435 16.6008 10.5073 16.6796 10.2648 16.678C9.7608 16.678 9.3328 16.352 9.1988 15.867L8.4778 13.247H6.4668C6.2281 13.247 5.99918 13.1522 5.8304 12.9834C5.66162 12.8146 5.5668 12.5857 5.5668 12.347C5.5668 12.1083 5.66162 11.8794 5.8304 11.7106C5.99918 11.5418 6.2281 11.447 6.4668 11.447H7.9828L7.3518 9.155C7.3169 9.03999 7.30538 8.91916 7.31794 8.79964C7.33049 8.68011 7.36686 8.56431 7.42489 8.45907C7.48293 8.35382 7.56145 8.26127 7.65584 8.18686C7.75022 8.11246 7.85855 8.05771 7.97443 8.02585C8.09032 7.99399 8.21141 7.98566 8.33056 8.00136C8.44972 8.01706 8.56452 8.05646 8.6682 8.11725C8.77188 8.17803 8.86234 8.25897 8.93423 8.35527C9.00612 8.45158 9.058 8.56132 9.0868 8.678L10.2648 12.956L11.4008 8.829C11.4633 8.59452 11.6019 8.38745 11.7948 8.24029C11.9878 8.09314 12.2241 8.01424 12.4668 8.016C12.9708 8.016 13.3998 8.343 13.5328 8.829L14.6698 12.956L15.8468 8.678C15.8781 8.56401 15.9316 8.45731 16.0041 8.36399C16.0767 8.27066 16.1669 8.19254 16.2697 8.13409C16.3724 8.07563 16.4857 8.03799 16.603 8.0233C16.7203 8.00862 16.8393 8.01718 16.9533 8.0485C17.0673 8.07982 17.174 8.13329 17.2673 8.20584C17.3606 8.2784 17.4388 8.36863 17.4972 8.47138C17.5557 8.57412 17.5933 8.68738 17.608 8.80468C17.6227 8.92197 17.6141 9.04101 17.5828 9.155L16.9508 11.447H18.4668C18.7055 11.447 18.9344 11.5418 19.1032 11.7106C19.272 11.8794 19.3668 12.1083 19.3668 12.347C19.3668 12.5857 19.272 12.8146 19.1032 12.9834C18.9344 13.1522 18.7055 13.247 18.4668 13.247ZM12.4668 1C6.3918 1 1.4668 5.925 1.4668 12C1.4668 18.076 6.3918 23 12.4668 23C18.5418 23 23.4668 18.076 23.4668 12C23.4668 5.925 18.5418 1 12.4668 1Z" fill="#8B95A1"/>
</svg>
