<svg width="25" height="24" viewBox="0 0 25 24" fill="none" xmlns="http://www.w3.org/2000/svg">
<path fill-rule="evenodd" clip-rule="evenodd" d="M4.3343 10.7997H18.3703L12.9193 5.34874C12.4503 4.87974 12.4503 4.11974 12.9193 3.65174C13.3883 3.18274 14.1473 3.18274 14.6163 3.65174L22.1163 11.1517C22.1193 11.1537 22.1203 11.1577 22.1233 11.1607C22.2303 11.2697 22.3163 11.3987 22.3753 11.5407C22.4973 11.8347 22.4973 12.1647 22.3753 12.4587C22.3163 12.6017 22.2303 12.7297 22.1233 12.8387C22.1203 12.8417 22.1193 12.8457 22.1163 12.8487L14.6163 20.3487C14.3823 20.5827 14.0753 20.6997 13.7683 20.6997C13.4603 20.6997 13.1533 20.5827 12.9193 20.3487C12.4503 19.8797 12.4503 19.1197 12.9193 18.6517L18.3703 13.1997H4.3343C3.6713 13.1997 3.1343 12.6627 3.1343 11.9997C3.1343 11.3377 3.6713 10.7997 4.3343 10.7997Z" fill="#8B95A1"/>
</svg>
