<svg width="25" height="24" viewBox="0 0 25 24" fill="none" xmlns="http://www.w3.org/2000/svg">
<path fill-rule="evenodd" clip-rule="evenodd" d="M15.5328 16.736C15.5328 16.9747 15.438 17.2036 15.2692 17.3724C15.1004 17.5412 14.8715 17.636 14.6328 17.636C14.3941 17.636 14.1652 17.5412 13.9964 17.3724C13.8276 17.2036 13.7328 16.9747 13.7328 16.736V11.73C13.7328 11.4913 13.8276 11.2624 13.9964 11.0936C14.1652 10.9248 14.3941 10.83 14.6328 10.83C14.8715 10.83 15.1004 10.9248 15.2692 11.0936C15.438 11.2624 15.5328 11.4913 15.5328 11.73V16.736ZM11.3998 16.736C11.3998 16.9747 11.305 17.2036 11.1362 17.3724C10.9674 17.5412 10.7385 17.636 10.4998 17.636C10.2611 17.636 10.0322 17.5412 9.8634 17.3724C9.69462 17.2036 9.5998 16.9747 9.5998 16.736V11.73C9.5998 11.4913 9.69462 11.2624 9.8634 11.0936C10.0322 10.9248 10.2611 10.83 10.4998 10.83C10.7385 10.83 10.9674 10.9248 11.1362 11.0936C11.305 11.2624 11.3998 11.4913 11.3998 11.73V16.736ZM9.4958 3.85901C9.4958 3.59379 9.60115 3.33944 9.78869 3.1519C9.97623 2.96437 10.2306 2.85901 10.4958 2.85901H14.6398C15.1908 2.85901 15.6398 3.30701 15.6398 3.85901V4.80001H9.4958V3.85901ZM20.7658 4.80001H17.6398V3.85901C17.6398 2.20501 16.2948 0.859009 14.6398 0.859009H10.4958C8.8418 0.859009 7.4958 2.20501 7.4958 3.85901V4.80001H4.1668C3.84854 4.80001 3.54331 4.92644 3.31827 5.15148C3.09323 5.37652 2.9668 5.68175 2.9668 6.00001V6.60001C2.9668 6.91827 3.09323 7.22349 3.31827 7.44854C3.54331 7.67358 3.84854 7.80001 4.1668 7.80001H4.2978L4.7698 19.836C4.79435 20.4557 5.05786 21.0419 5.5051 21.4716C5.95234 21.9013 6.54857 22.1412 7.1688 22.141H17.9648C18.5848 22.1412 19.1808 21.9013 19.6277 21.4715C20.0747 21.0417 20.3378 20.4556 20.3618 19.836L20.8358 7.78601C21.1402 7.77041 21.4271 7.63879 21.6374 7.4182C21.8478 7.19761 21.9657 6.90482 21.9668 6.60001V6.00001C21.9668 5.33801 21.4288 4.80001 20.7658 4.80001Z" fill="#8B95A1"/>
</svg>
