<svg width="25" height="24" viewBox="0 0 25 24" fill="none" xmlns="http://www.w3.org/2000/svg">
<path fill-rule="evenodd" clip-rule="evenodd" d="M12.4668 15.667C11.9853 15.667 11.5085 15.5722 11.0637 15.3879C10.6188 15.2036 10.2146 14.9336 9.87418 14.5931C9.53372 14.2526 9.26364 13.8484 9.07938 13.4036C8.89513 12.9588 8.80029 12.482 8.80029 12.0005C8.80029 11.519 8.89513 11.0422 9.07938 10.5974C9.26364 10.1526 9.53372 9.74836 9.87418 9.40789C10.2146 9.06743 10.6188 8.79735 11.0637 8.6131C11.5085 8.42884 11.9853 8.334 12.4668 8.334C13.4392 8.334 14.3718 8.72029 15.0594 9.40789C15.747 10.0955 16.1333 11.0281 16.1333 12.0005C16.1333 12.9729 15.747 13.9055 15.0594 14.5931C14.3718 15.2807 13.4392 15.667 12.4668 15.667ZM21.4998 13.952C20.9968 13.4311 20.716 12.7351 20.7168 12.011V11.99C20.716 11.2659 20.9968 10.5699 21.4998 10.049L22.4388 9.079C22.8248 8.679 22.8988 8.071 22.6218 7.59L21.3638 5.412C21.2288 5.17755 21.021 4.9935 20.772 4.88775C20.523 4.78201 20.2462 4.76033 19.9838 4.826L18.6688 5.154C17.9626 5.3308 17.2153 5.2242 16.5868 4.857L16.5688 4.847C15.9497 4.48722 15.4942 3.90155 15.2978 3.213L14.9218 1.904C14.8477 1.64368 14.6907 1.41462 14.4747 1.2515C14.2587 1.08837 13.9955 1.00008 13.7248 1H11.2088C10.6538 1 10.1638 1.369 10.0118 1.904L9.60679 3.313C9.42897 3.94272 9.01097 4.47743 8.44279 4.802C8.3841 4.83482 8.32609 4.86882 8.26879 4.904C7.6987 5.2435 7.01737 5.34345 6.37379 5.182L4.94879 4.826C4.68644 4.76041 4.40987 4.78202 4.16089 4.88756C3.91191 4.99311 3.70407 5.17685 3.56879 5.411L2.31179 7.59C2.17659 7.82444 2.12132 8.09649 2.15433 8.3651C2.18735 8.6337 2.30684 8.88428 2.49479 9.079L3.43379 10.049C3.93679 10.57 4.21779 11.266 4.21779 11.989V12.011C4.21779 12.735 3.93679 13.431 3.43379 13.952L2.93079 14.472C2.61712 14.7963 2.41759 15.214 2.36238 15.6618C2.30717 16.1096 2.39928 16.5632 2.62479 16.954L3.56979 18.589C3.84779 19.071 4.40979 19.31 4.94979 19.175L6.37479 18.819C7.01837 18.6576 7.6997 18.7575 8.26979 19.097C8.32679 19.132 8.38479 19.166 8.44379 19.199C9.01279 19.521 9.42779 20.058 9.60779 20.688L10.0118 22.097C10.1638 22.632 10.6538 23 11.2088 23H13.7248C14.2798 23 14.7698 22.632 14.9218 22.097L15.3258 20.688C15.5058 20.058 15.9208 19.521 16.4898 19.199C16.5488 19.166 16.6068 19.132 16.6638 19.097C17.2339 18.7575 17.9152 18.6576 18.5588 18.819L19.9838 19.175C20.2461 19.2406 20.5227 19.219 20.7717 19.1134C21.0207 19.0079 21.2285 18.8242 21.3638 18.59L22.6218 16.411C22.757 16.1766 22.8123 15.9045 22.7792 15.6359C22.7462 15.3673 22.6267 15.1167 22.4388 14.922L21.4988 13.952H21.4998Z" fill="#8B95A1"/>
</svg>
