<svg width="25" height="24" viewBox="0 0 25 24" fill="none" xmlns="http://www.w3.org/2000/svg">
<path fill-rule="evenodd" clip-rule="evenodd" d="M15.3898 14.123C15.2895 14.1194 15.1894 14.1361 15.0957 14.172C15.0019 14.2079 14.9164 14.2624 14.8441 14.3321C14.7719 14.4018 14.7145 14.4854 14.6753 14.5778C14.6361 14.6703 14.6159 14.7696 14.616 14.87C14.616 14.9704 14.6363 15.0698 14.6757 15.1622C14.715 15.2545 14.7725 15.338 14.8449 15.4077C14.9172 15.4773 15.0028 15.5316 15.0966 15.5674C15.1904 15.6032 15.2905 15.6198 15.3908 15.616C15.584 15.6088 15.767 15.527 15.9011 15.3876C16.0352 15.2483 16.1101 15.0624 16.11 14.869C16.1098 14.6757 16.0347 14.4899 15.9004 14.3507C15.7661 14.2116 15.583 14.13 15.3898 14.123ZM10.2898 9.02303C10.2934 8.9227 10.2767 8.82267 10.2408 8.72892C10.2049 8.63517 10.1504 8.54962 10.0807 8.47739C10.011 8.40516 9.9274 8.34772 9.83497 8.30852C9.74254 8.26931 9.64316 8.24914 9.54276 8.24921C9.44237 8.24927 9.34301 8.26958 9.25064 8.30891C9.15827 8.34824 9.07477 8.40578 9.00514 8.47811C8.9355 8.55043 8.88116 8.63605 8.84537 8.72985C8.80957 8.82365 8.79304 8.9237 8.79678 9.02403C8.80386 9.21728 8.8856 9.40027 9.02483 9.53448C9.16405 9.6687 9.3499 9.7437 9.54328 9.7437C9.73667 9.7437 9.92252 9.6687 10.0617 9.53448C10.201 9.40027 10.2827 9.21728 10.2898 9.02403" fill="#8B95A1"/>
<path fill-rule="evenodd" clip-rule="evenodd" d="M15.3898 17.214C14.7678 17.2135 14.1714 16.9661 13.7315 16.5263C13.2917 16.0864 13.0443 15.49 13.0438 14.868C13.0446 14.2461 13.292 13.65 13.7319 13.2104C14.1717 12.7707 14.7679 12.5235 15.3898 12.523C16.0116 12.5238 16.6077 12.7711 17.0474 13.2107C17.4872 13.6502 17.7347 14.2462 17.7358 14.868C17.735 15.49 17.4876 16.0862 17.0478 16.526C16.608 16.9658 16.0118 17.2132 15.3898 17.214ZM9.4608 16.083C9.38647 16.1573 9.29824 16.2162 9.20115 16.2563C9.10406 16.2965 9.00001 16.3171 8.89494 16.3171C8.78987 16.317 8.68584 16.2963 8.58879 16.2561C8.49173 16.2158 8.40356 16.1568 8.3293 16.0825C8.25503 16.0082 8.19614 15.9199 8.15597 15.8229C8.11581 15.7258 8.09516 15.6217 8.09521 15.5166C8.09525 15.4116 8.11599 15.3075 8.15624 15.2105C8.1965 15.1134 8.25547 15.0253 8.3298 14.951L15.4728 7.808C15.6258 7.67297 15.8245 7.60133 16.0285 7.60769C16.2324 7.61404 16.4263 7.69791 16.5706 7.8422C16.7149 7.98649 16.7988 8.18036 16.8051 8.38433C16.8115 8.58829 16.7398 8.787 16.6048 8.94L9.4608 16.083ZM7.1988 9.023C7.19959 8.40122 7.44687 7.80512 7.88645 7.36536C8.32602 6.9256 8.92202 6.67806 9.5438 6.677C10.1658 6.67779 10.7622 6.92518 11.2021 7.36494C11.6421 7.8047 11.8897 8.40095 11.8908 9.023C11.89 9.64513 11.6424 10.2415 11.2024 10.6813C10.7624 11.1212 10.1659 11.3685 9.5438 11.369C8.92193 11.3682 8.32579 11.1208 7.88616 10.6809C7.44653 10.2411 7.19933 9.64486 7.1988 9.023ZM12.4668 1C6.3918 1 1.4668 5.924 1.4668 12C1.4668 18.075 6.3918 23 12.4668 23C18.5418 23 23.4668 18.075 23.4668 12C23.4668 5.924 18.5418 1 12.4668 1Z" fill="#8B95A1"/>
</svg>
