<svg width="25" height="24" viewBox="0 0 25 24" fill="none" xmlns="http://www.w3.org/2000/svg">
<path fill-rule="evenodd" clip-rule="evenodd" d="M14.2819 12L19.9329 6.349C20.0443 6.23757 20.1328 6.10527 20.1932 5.95966C20.2535 5.81405 20.2846 5.65798 20.2847 5.50035C20.2847 5.34272 20.2537 5.18663 20.1934 5.04098C20.1332 4.89534 20.0448 4.76299 19.9334 4.6515C19.8219 4.54 19.6896 4.45155 19.544 4.39119C19.3984 4.33082 19.2423 4.29973 19.0847 4.29968C18.9271 4.29964 18.771 4.33064 18.6253 4.39092C18.4797 4.45119 18.3473 4.53957 18.2359 4.651L12.5849 10.303L6.93285 4.651C6.70521 4.43837 6.40386 4.32251 6.09241 4.32787C5.78096 4.33323 5.48377 4.45938 5.26358 4.67971C5.04338 4.90003 4.9174 5.19729 4.91223 5.50875C4.90706 5.8202 5.02309 6.12148 5.23585 6.349L10.8879 12L5.23585 17.651C5.06881 17.8192 4.95523 18.033 4.9094 18.2656C4.86357 18.4982 4.88753 18.7391 4.97827 18.9581C5.06901 19.1771 5.22248 19.3644 5.41937 19.4964C5.61627 19.6284 5.8478 19.6992 6.08485 19.7C6.39185 19.7 6.69885 19.583 6.93285 19.349L12.5849 13.697L18.2359 19.349C18.3471 19.4607 18.4794 19.5493 18.625 19.6097C18.7706 19.6702 18.9267 19.7013 19.0844 19.7013C19.242 19.7013 19.3981 19.6702 19.5437 19.6097C19.6893 19.5493 19.8216 19.4607 19.9329 19.349C20.0444 19.2375 20.1329 19.1052 20.1933 18.9595C20.2537 18.8138 20.2848 18.6577 20.2848 18.5C20.2848 18.3423 20.2537 18.1861 20.1933 18.0405C20.1329 17.8948 20.0444 17.7624 19.9329 17.651L14.2819 12Z" fill="#8B95A1"/>
</svg>
