<svg width="25" height="24" viewBox="0 0 25 24" fill="none" xmlns="http://www.w3.org/2000/svg">
<g clip-path="url(#clip0_239_336)">
<path fill-rule="evenodd" clip-rule="evenodd" d="M23.9028 8.45499C23.8192 8.37138 23.72 8.30506 23.6108 8.25981C23.5016 8.21457 23.3845 8.19128 23.2663 8.19128C23.1481 8.19128 23.031 8.21457 22.9218 8.25981C22.8126 8.30506 22.7134 8.37138 22.6298 8.45499L19.4488 11.637L17.9028 10.091C17.734 9.92217 17.505 9.82734 17.2663 9.82734C17.0276 9.82734 16.7986 9.92217 16.6298 10.091C16.461 10.2598 16.3662 10.4888 16.3662 10.7275C16.3662 10.9662 16.461 11.1952 16.6298 11.364L19.4478 14.182L23.9018 9.72799C23.9854 9.64441 24.0517 9.54518 24.097 9.43597C24.1422 9.32676 24.1655 9.2097 24.1655 9.09149C24.1655 8.97327 24.1422 8.85622 24.097 8.747C24.0517 8.63779 23.9854 8.53856 23.9018 8.45499M10.4668 11.456C11.6216 11.456 12.729 10.9973 13.5455 10.1807C14.3621 9.3642 14.8208 8.25674 14.8208 7.10199C14.8208 5.94723 14.3621 4.83978 13.5455 4.02324C12.729 3.20671 11.6216 2.74799 10.4668 2.74799C9.31205 2.74799 8.20459 3.20671 7.38806 4.02324C6.57153 4.83978 6.1128 5.94723 6.1128 7.10199C6.1128 8.25674 6.57153 9.3642 7.38806 10.1807C8.20459 10.9973 9.31205 11.456 10.4668 11.456ZM10.4668 12.788C4.1978 12.788 1.7608 16.777 1.7608 18.633C1.7608 20.488 6.9498 20.982 10.4668 20.982C13.9838 20.982 19.1728 20.488 19.1728 18.632C19.1728 16.777 16.7358 12.788 10.4668 12.788Z" fill="#8B95A1"/>
</g>
<defs>
<clipPath id="clip0_239_336">
<rect width="24" height="24" fill="white" transform="translate(0.466797)"/>
</clipPath>
</defs>
</svg>
