<svg width="25" height="24" viewBox="0 0 25 24" fill="none" xmlns="http://www.w3.org/2000/svg">
<path fill-rule="evenodd" clip-rule="evenodd" d="M15.2378 4.60002C15.4843 4.60802 15.718 4.71157 15.8896 4.88876C16.0611 5.06595 16.157 5.3029 16.157 5.54952C16.157 5.79614 16.0611 6.0331 15.8896 6.21029C15.718 6.38748 15.4843 6.49102 15.2378 6.49902C14.9913 6.49102 14.7576 6.38748 14.5861 6.21029C14.4145 6.0331 14.3186 5.79614 14.3186 5.54952C14.3186 5.3029 14.4145 5.06595 14.5861 4.88876C14.7576 4.71157 14.9913 4.60802 15.2378 4.60002ZM3.96682 6.64902H12.2968C12.52 7.24953 12.9212 7.76758 13.4468 8.13392C13.9723 8.50026 14.5972 8.69741 15.2378 8.69902C15.8783 8.69721 16.5029 8.49996 17.0283 8.13364C17.5537 7.76731 17.9547 7.24937 18.1778 6.64902H20.9668C21.2586 6.64902 21.5383 6.53313 21.7446 6.32684C21.9509 6.12055 22.0668 5.84076 22.0668 5.54902C22.0668 5.25729 21.9509 4.9775 21.7446 4.77121C21.5383 4.56492 21.2586 4.44902 20.9668 4.44902H18.1778C17.9545 3.84887 17.5534 3.33114 17.0281 2.965C16.5027 2.59887 15.8782 2.40176 15.2378 2.40002C14.5974 2.40184 13.9727 2.59896 13.4472 2.96507C12.9217 3.33118 12.5204 3.84887 12.2968 4.44902H3.96682C3.67508 4.44902 3.39529 4.56492 3.189 4.77121C2.98271 4.9775 2.86682 5.25729 2.86682 5.54902C2.86682 5.84076 2.98271 6.12055 3.189 6.32684C3.39529 6.53313 3.67508 6.64902 3.96682 6.64902ZM20.9668 10.899H3.96682C3.67508 10.899 3.39529 11.0149 3.189 11.2212C2.98271 11.4275 2.86682 11.7073 2.86682 11.999C2.86682 12.2908 2.98271 12.5706 3.189 12.7768C3.39529 12.9831 3.67508 13.099 3.96682 13.099H20.9668C21.2586 13.099 21.5383 12.9831 21.7446 12.7768C21.9509 12.5706 22.0668 12.2908 22.0668 11.999C22.0668 11.7073 21.9509 11.4275 21.7446 11.2212C21.5383 11.0149 21.2586 10.899 20.9668 10.899ZM9.69582 19.4C9.45167 19.3888 9.22123 19.2839 9.05241 19.1072C8.8836 18.9304 8.7894 18.6954 8.7894 18.451C8.7894 18.2066 8.8836 17.9716 9.05241 17.7949C9.22123 17.6181 9.45167 17.5132 9.69582 17.502C9.94231 17.51 10.176 17.6136 10.3476 17.7908C10.5191 17.968 10.615 18.2049 10.615 18.4515C10.615 18.6981 10.5191 18.9351 10.3476 19.1123C10.176 19.2895 9.94231 19.393 9.69582 19.401M20.9668 17.35H12.6368C12.4136 16.7495 12.0124 16.2315 11.4869 15.8651C10.9613 15.4988 10.3365 15.3016 9.69582 15.3C9.05536 15.3018 8.4307 15.4991 7.90534 15.8654C7.37998 16.2317 6.97894 16.7497 6.75582 17.35H3.96682C3.67508 17.35 3.39529 17.4659 3.189 17.6722C2.98271 17.8785 2.86682 18.1583 2.86682 18.45C2.86682 18.7418 2.98271 19.0216 3.189 19.2278C3.39529 19.4341 3.67508 19.55 3.96682 19.55H6.75582C6.97894 20.1504 7.37998 20.6683 7.90534 21.0346C8.4307 21.401 9.05536 21.5982 9.69582 21.6C10.3364 21.5981 10.9611 21.4009 11.4866 21.0346C12.0121 20.6683 12.4134 20.1504 12.6368 19.55H20.9668C21.2586 19.55 21.5383 19.4341 21.7446 19.2278C21.9509 19.0216 22.0668 18.7418 22.0668 18.45C22.0668 18.1583 21.9509 17.8785 21.7446 17.6722C21.5383 17.4659 21.2586 17.35 20.9668 17.35Z" fill="#8B95A1"/>
</svg>
