<svg width="25" height="24" viewBox="0 0 25 24" fill="none" xmlns="http://www.w3.org/2000/svg">
<path fill-rule="evenodd" clip-rule="evenodd" d="M13.2328 6.60398C13.0783 6.45144 12.8824 6.34766 12.6694 6.30553C12.4564 6.26339 12.2357 6.28476 12.0348 6.36698C11.9012 6.42199 11.7796 6.50249 11.6768 6.60398L5.97077 12.31C5.7689 12.5171 5.65672 12.7954 5.65853 13.0846C5.66035 13.3738 5.77599 13.6507 5.98044 13.8553C6.1849 14.0599 6.46169 14.1757 6.75092 14.1777C7.04014 14.1797 7.31851 14.0677 7.52577 13.866L11.3548 10.036V21.381C11.3548 21.6727 11.4707 21.9525 11.677 22.1588C11.8832 22.3651 12.163 22.481 12.4548 22.481C12.7465 22.481 13.0263 22.3651 13.2326 22.1588C13.4389 21.9525 13.5548 21.6727 13.5548 21.381V10.038L17.3838 13.867C17.5988 14.082 17.8798 14.189 18.1618 14.189C18.3794 14.189 18.5921 14.1246 18.7731 14.0037C18.954 13.8828 19.0951 13.711 19.1784 13.51C19.2617 13.3089 19.2835 13.0877 19.241 12.8743C19.1985 12.6608 19.0937 12.4648 18.9398 12.311L13.2328 6.60398ZM21.8468 2.09998H3.06277C2.77103 2.09998 2.49124 2.21587 2.28495 2.42216C2.07866 2.62845 1.96277 2.90824 1.96277 3.19998C1.96277 3.49171 2.07866 3.7715 2.28495 3.97779C2.49124 4.18408 2.77103 4.29998 3.06277 4.29998H21.8478C22.1395 4.29998 22.4193 4.18408 22.6256 3.97779C22.8319 3.7715 22.9478 3.49171 22.9478 3.19998C22.9478 2.90824 22.8319 2.62845 22.6256 2.42216C22.4193 2.21587 22.1395 2.09998 21.8478 2.09998" fill="#8B95A1"/>
</svg>
