<svg width="25" height="24" viewBox="0 0 25 24" fill="none" xmlns="http://www.w3.org/2000/svg">
<path fill-rule="evenodd" clip-rule="evenodd" d="M20.7398 9.99999L22.2238 8.51499C22.3104 8.43213 22.3795 8.33284 22.4272 8.22291C22.4748 8.11299 22.5001 7.99466 22.5014 7.87485C22.5027 7.75505 22.4801 7.63618 22.4349 7.52523C22.3897 7.41427 22.3228 7.31347 22.2381 7.22871C22.1534 7.14396 22.0526 7.07697 21.9417 7.03167C21.8308 6.98637 21.712 6.96367 21.5922 6.96491C21.4723 6.96614 21.354 6.99129 21.244 7.03887C21.1341 7.08645 21.0347 7.1555 20.9518 7.24199L19.4668 8.72699L17.9818 7.24199C17.8106 7.08511 17.5855 7.00037 17.3534 7.00542C17.1213 7.01047 16.9001 7.10493 16.7359 7.2691C16.5717 7.43327 16.4773 7.65448 16.4722 7.8866C16.4672 8.11872 16.5519 8.34383 16.7088 8.51499L18.1938 9.99999L16.7088 11.485C16.6252 11.5686 16.5589 11.6678 16.5137 11.777C16.4684 11.8862 16.4452 12.0033 16.4452 12.1215C16.4452 12.2397 16.4684 12.3567 16.5137 12.466C16.5589 12.5752 16.6252 12.6744 16.7088 12.758C16.7924 12.8416 16.8916 12.9079 17.0008 12.9531C17.11 12.9983 17.2271 13.0216 17.3453 13.0216C17.4635 13.0216 17.5806 12.9983 17.6898 12.9531C17.799 12.9079 17.8982 12.8416 17.9818 12.758L19.4668 11.273L20.9518 12.758C21.1218 12.9207 21.3488 13.0104 21.5842 13.0078C21.8195 13.0052 22.0445 12.9105 22.2108 12.744C22.3772 12.5775 22.4717 12.3525 22.4741 12.1171C22.4765 11.8818 22.3867 11.6549 22.2238 11.485L20.7398 9.99999ZM10.4668 11.456C11.6216 11.456 12.729 10.9973 13.5455 10.1807C14.3621 9.3642 14.8208 8.25674 14.8208 7.10199C14.8208 5.94723 14.3621 4.83978 13.5455 4.02324C12.729 3.20671 11.6216 2.74799 10.4668 2.74799C9.31205 2.74799 8.20459 3.20671 7.38806 4.02324C6.57153 4.83978 6.1128 5.94723 6.1128 7.10199C6.1128 8.25674 6.57153 9.3642 7.38806 10.1807C8.20459 10.9973 9.31205 11.456 10.4668 11.456ZM10.4668 12.788C4.1978 12.788 1.7608 16.777 1.7608 18.633C1.7608 20.488 6.9498 20.982 10.4668 20.982C13.9838 20.982 19.1728 20.488 19.1728 18.632C19.1728 16.777 16.7358 12.788 10.4668 12.788Z" fill="#8B95A1"/>
</svg>
