<svg width="25" height="24" viewBox="0 0 25 24" fill="none" xmlns="http://www.w3.org/2000/svg">
<path fill-rule="evenodd" clip-rule="evenodd" d="M11.3708 21.527C12.0368 21.967 12.8958 21.967 13.5608 21.527C15.6758 20.131 20.2808 16.794 22.2648 13.06C24.8798 8.13401 21.8088 3.22101 17.7488 3.22101C15.4348 3.22101 14.0428 4.43001 13.2728 5.46901C13.1803 5.59626 13.059 5.69982 12.9189 5.77123C12.7787 5.84264 12.6236 5.87986 12.4663 5.87986C12.309 5.87986 12.1539 5.84264 12.0137 5.77123C11.8736 5.69982 11.7523 5.59626 11.6598 5.46901C10.8898 4.43001 9.4978 3.22101 7.1838 3.22101C3.1238 3.22101 0.052797 8.13401 2.6688 13.06C4.6508 16.794 9.2578 20.131 11.3708 21.527Z" fill="#8B95A1"/>
</svg>
