<svg width="25" height="24" viewBox="0 0 25 24" fill="none" xmlns="http://www.w3.org/2000/svg">
<path fill-rule="evenodd" clip-rule="evenodd" d="M17.4468 12.747C17.2416 12.7522 17.0374 12.7162 16.8464 12.6412C16.6553 12.5662 16.4811 12.4538 16.3342 12.3104C16.1872 12.1671 16.0705 11.9958 15.9908 11.8066C15.9111 11.6175 15.87 11.4143 15.8701 11.209C15.8702 11.0037 15.9113 10.8005 15.9912 10.6114C16.071 10.4223 16.1879 10.2511 16.3349 10.1078C16.4819 9.96459 16.6561 9.85223 16.8473 9.77738C17.0384 9.70253 17.2426 9.6667 17.4478 9.672C17.8488 9.68236 18.2299 9.84895 18.5098 10.1363C18.7897 10.4236 18.9462 10.8089 18.9461 11.21C18.946 11.6111 18.7891 11.9963 18.5091 12.2834C18.229 12.5706 17.8478 12.7369 17.4468 12.747ZM12.5328 12.747C12.3275 12.7522 12.1232 12.7162 11.932 12.6412C11.7408 12.5661 11.5665 12.4536 11.4195 12.3102C11.2724 12.1667 11.1556 11.9953 11.0758 11.806C10.9961 11.6167 10.955 11.4134 10.9551 11.208C10.9552 11.0026 10.9963 10.7993 11.0762 10.61C11.1561 10.4208 11.273 10.2495 11.4202 10.1061C11.5673 9.96279 11.7416 9.85036 11.9329 9.77546C12.1242 9.70055 12.3285 9.6647 12.5338 9.67C12.9351 9.68036 13.3164 9.84706 13.5965 10.1346C13.8765 10.4221 14.0332 10.8076 14.0331 11.209C14.033 11.6104 13.876 11.9958 13.5958 12.2831C13.3155 12.5704 12.9341 12.7369 12.5328 12.747ZM7.61782 12.747C7.41261 12.7522 7.20844 12.7162 7.01735 12.6412C6.82626 12.5662 6.65211 12.4538 6.50517 12.3104C6.35823 12.1671 6.24147 11.9958 6.16177 11.8066C6.08207 11.6175 6.04104 11.4143 6.04111 11.209C6.04117 11.0037 6.08233 10.8005 6.16215 10.6114C6.24198 10.4223 6.35885 10.2511 6.50589 10.1078C6.65292 9.96459 6.82714 9.85223 7.01828 9.77738C7.20942 9.70253 7.41361 9.6667 7.61882 9.672C8.0198 9.68236 8.40086 9.84895 8.68076 10.1363C8.96066 10.4236 9.11724 10.8089 9.11711 11.21C9.11698 11.6111 8.96015 11.9963 8.68006 12.2834C8.39998 12.5706 8.0188 12.7369 7.61782 12.747ZM12.4668 1.5C6.63382 1.5 1.88782 5.814 1.88782 11.117C1.88782 13.387 2.84782 16.476 5.52182 18.47L5.20682 21.764C5.19499 21.8854 5.21642 22.0077 5.26881 22.1178C5.32119 22.228 5.40256 22.3218 5.5042 22.3892C5.60583 22.4566 5.7239 22.4951 5.84573 22.5005C5.96757 22.5059 6.08859 22.4781 6.19582 22.42L9.62682 20.574C10.0538 20.618 11.3078 20.734 12.4668 20.734C18.2998 20.734 23.0458 16.42 23.0458 11.117C23.0458 5.814 18.2998 1.5 12.4668 1.5Z" fill="#8B95A1"/>
</svg>
