<svg width="25" height="24" viewBox="0 0 25 24" fill="none" xmlns="http://www.w3.org/2000/svg">
<path fill-rule="evenodd" clip-rule="evenodd" d="M16.9588 13.061H7.9588C7.81679 13.0654 7.67535 13.0412 7.54288 12.9898C7.4104 12.9385 7.28958 12.8611 7.18759 12.7622C7.0856 12.6633 7.00451 12.5449 6.94914 12.414C6.89376 12.2832 6.86523 12.1426 6.86523 12.0005C6.86523 11.8584 6.89376 11.7178 6.94914 11.587C7.00451 11.4561 7.0856 11.3377 7.18759 11.2388C7.28958 11.1399 7.4104 11.0625 7.54288 11.0112C7.67535 10.9598 7.81679 10.9356 7.9588 10.94H16.9588C17.2344 10.9485 17.4959 11.0639 17.6879 11.2619C17.8799 11.4598 17.9872 11.7247 17.9872 12.0005C17.9872 12.2763 17.8799 12.5412 17.6879 12.7391C17.4959 12.9371 17.2344 13.0525 16.9588 13.061ZM12.4668 1C6.3918 1 1.4668 5.925 1.4668 12C1.4668 18.076 6.3918 23 12.4668 23C18.5418 23 23.4668 18.076 23.4668 12C23.4668 5.925 18.5418 1 12.4668 1Z" fill="#8B95A1"/>
</svg>
