<svg width="25" height="24" viewBox="0 0 25 24" fill="none" xmlns="http://www.w3.org/2000/svg">
<g clip-path="url(#clip0_239_420)">
<path fill-rule="evenodd" clip-rule="evenodd" d="M24.1898 10.94L22.1528 8.16001C22.0413 8.0079 21.8956 7.8842 21.7274 7.79893C21.5592 7.71366 21.3733 7.66922 21.1848 7.66922C20.9962 7.66922 20.8103 7.71366 20.6421 7.79893C20.4739 7.8842 20.3282 8.0079 20.2168 8.16001L18.1798 10.94C17.5998 11.733 18.1658 12.849 19.1478 12.849H20.0278C19.8959 14.0242 19.4896 15.1519 18.8417 16.1412C18.1938 17.1304 17.3224 17.9535 16.2978 18.544C13.9968 19.878 11.0478 19.878 8.74477 18.544C8.49246 18.4009 8.19386 18.3633 7.91394 18.4393C7.63403 18.5153 7.39547 18.6988 7.25017 18.9499C7.10488 19.2009 7.06461 19.4992 7.13814 19.7797C7.21167 20.0603 7.39304 20.3005 7.64277 20.448C9.12577 21.3071 10.8089 21.7603 12.5228 21.762C14.2358 21.7602 15.9182 21.3073 17.4008 20.449C18.882 19.5911 20.1128 18.3603 20.9708 16.879C21.6797 15.6438 22.1091 14.2682 22.2288 12.849H23.2218C23.4436 12.8491 23.6612 12.7877 23.8502 12.6717C24.0393 12.5556 24.1924 12.3894 24.2927 12.1915C24.393 11.9936 24.4365 11.7718 24.4183 11.5507C24.4001 11.3296 24.321 11.1179 24.1898 10.939M6.00677 11.152H5.01477C5.13167 10.1198 5.45909 9.1226 5.97677 8.22201C6.64257 7.0745 7.59678 6.12097 8.74477 5.45601C11.0468 4.12401 13.9958 4.12401 16.2988 5.45601C16.5514 5.60215 16.8517 5.64194 17.1337 5.56665C17.4156 5.49135 17.6561 5.30713 17.8023 5.05451C17.9484 4.80189 17.9882 4.50157 17.9129 4.21961C17.8376 3.93765 17.6534 3.69715 17.4008 3.55101C14.4288 1.83301 10.6138 1.83301 7.64277 3.55101C6.16175 4.40924 4.93101 5.63999 4.07277 7.12101C3.36489 8.35667 2.93555 9.73208 2.81477 11.151H1.71077C1.48893 11.1509 1.27139 11.2123 1.08234 11.3284C0.89328 11.4444 0.740099 11.6107 0.639811 11.8085C0.539522 12.0064 0.496052 12.2282 0.514228 12.4493C0.532404 12.6704 0.611515 12.8822 0.742774 13.061L2.89077 15.993C3.00222 16.1451 3.14794 16.2688 3.31612 16.3541C3.4843 16.4394 3.67021 16.4838 3.85877 16.4838C4.04734 16.4838 4.23325 16.4394 4.40143 16.3541C4.56961 16.2688 4.71533 16.1451 4.82677 15.993L6.97477 13.061C7.10603 12.8822 7.18514 12.6704 7.20332 12.4493C7.2215 12.2282 7.17803 12.0064 7.07774 11.8085C6.97745 11.6107 6.82427 11.4444 6.63521 11.3284C6.44615 11.2123 6.22862 11.1509 6.00677 11.151" fill="#8B95A1"/>
</g>
<defs>
<clipPath id="clip0_239_420">
<rect width="24" height="24" fill="white" transform="translate(0.466797)"/>
</clipPath>
</defs>
</svg>
