<svg width="25" height="24" viewBox="0 0 25 24" fill="none" xmlns="http://www.w3.org/2000/svg">
<path fill-rule="evenodd" clip-rule="evenodd" d="M21.5458 5.31001L13.4558 0.640013C13.2994 0.549872 13.1221 0.502428 12.9417 0.502441C12.7612 0.502455 12.5839 0.549924 12.4276 0.640088C12.2713 0.730252 12.1414 0.85994 12.0511 1.01614C11.9607 1.17234 11.913 1.34956 11.9128 1.53001V2.97001C11.913 3.8724 11.6756 4.75893 11.2244 5.54045C10.7733 6.32196 10.1243 6.97091 9.34276 7.42201L3.38976 10.86C3.23338 10.9502 3.1035 11.08 3.01321 11.2363C2.92291 11.3926 2.87537 11.57 2.87537 11.7505C2.87537 11.931 2.92291 12.1084 3.01321 12.2647C3.1035 12.421 3.23338 12.5508 3.38976 12.641L8.78476 15.755C8.73776 15.81 8.68076 15.851 8.64476 15.915L5.18876 21.9C5.03649 22.1752 4.99831 22.4991 5.08244 22.8021C5.16657 23.1051 5.36628 23.363 5.6386 23.5202C5.91093 23.6775 6.2341 23.7216 6.53859 23.643C6.84308 23.5644 7.10456 23.3694 7.26676 23.1L10.7228 17.116C10.7598 17.051 10.7668 16.981 10.7898 16.914L16.1858 20.028C16.342 20.1182 16.5193 20.1657 16.6997 20.1657C16.8801 20.1658 17.0574 20.1183 17.2136 20.0281C17.3699 19.9379 17.4997 19.8082 17.5899 19.6519C17.6802 19.4957 17.7277 19.3184 17.7278 19.138V12.264C17.7278 10.427 18.7068 8.73001 20.2978 7.81201L21.5458 7.09201C21.7024 7.00189 21.8325 6.87207 21.9229 6.71564C22.0134 6.55922 22.061 6.38171 22.061 6.20101C22.061 6.02032 22.0134 5.84281 21.9229 5.68638C21.8325 5.52996 21.7024 5.40014 21.5458 5.31001Z" fill="#8B95A1"/>
</svg>
