<svg width="34" height="34" viewBox="0 0 34 34" fill="none" xmlns="http://www.w3.org/2000/svg">
<path d="M19.6562 16.9649L25.8186 23.1273C26.0573 23.3661 26.1813 23.6514 26.1813 23.9771C26.1813 24.3028 26.0573 24.5882 25.8186 24.827C25.5826 25.063 25.3061 25.1936 24.993 25.2072C24.6748 25.221 24.3931 25.1011 24.1544 24.8624L17.1419 17.8499C17.0115 17.7195 16.9152 17.5775 16.8591 17.4232C16.8057 17.2765 16.7792 17.1233 16.7792 16.9646C16.7792 16.8061 16.8057 16.657 16.8608 16.5193C16.9175 16.3775 17.0137 16.243 17.1419 16.1148L24.119 9.13773C24.3577 8.899 24.6431 8.77505 24.9688 8.77505C25.2945 8.77505 25.5799 8.899 25.8186 9.13773C26.0546 9.37373 26.1852 9.65022 26.1989 9.96332C26.2127 10.2816 26.0928 10.5632 25.854 10.8019L25.8537 10.8022L19.6562 16.9649ZM10.6958 16.9649L16.8582 23.1273C17.0969 23.3661 17.2209 23.6514 17.2209 23.9771C17.2209 24.3028 17.0969 24.5882 16.8582 24.827C16.6222 25.063 16.3457 25.1936 16.0326 25.2072C15.7144 25.221 15.4327 25.1011 15.194 24.8624L8.18147 17.8499C8.05109 17.7195 7.95476 17.5775 7.89865 17.4232C7.8453 17.2765 7.81879 17.1233 7.81879 16.9646C7.81879 16.8061 7.84527 16.657 7.90035 16.5193C7.95708 16.3775 8.05333 16.243 8.18147 16.1148L15.1586 9.13773C15.3973 8.899 15.6827 8.77505 16.0084 8.77505C16.3341 8.77505 16.6194 8.899 16.8582 9.13773C17.0942 9.37373 17.2248 9.65022 17.2384 9.96332C17.2523 10.2816 17.1323 10.5632 16.8936 10.8019L16.8933 10.8022L10.6958 16.9649Z" fill="#8B95A1" stroke="#8B95A1" stroke-width="0.3"/>
</svg>
